{"glyphs":{"0":{"ha":832,"x_min":21,"x_max":811,"o":"m 419 -17 q 259 15 332 -17 q 133 109 186 46 q 51 267 81 172 q 21 490 21 363 q 49 692 21 600 q 130 850 78 785 q 254 952 182 915 q 413 989 326 989 q 590 953 514 989 q 714 850 665 917 q 787 690 763 783 q 811 481 811 596 q 785 273 811 365 q 710 116 760 181 q 587 17 660 51 q 419 -17 514 -17 m 419 199 q 464 219 443 199 q 500 276 485 239 q 524 365 515 313 q 532 481 532 417 q 522 595 532 543 q 496 685 513 647 q 457 744 479 724 q 410 765 435 765 q 370 746 390 765 q 333 691 350 726 q 306 604 317 656 q 296 490 296 553 q 308 369 296 424 q 337 277 319 315 q 376 219 354 239 q 419 199 399 199 z "},"1":{"ha":689,"x_min":35,"x_max":654,"o":"m 35 789 q 92 817 64 803 q 148 849 119 831 q 208 897 176 868 q 278 971 240 925 l 525 971 l 525 185 l 654 185 l 654 0 l 99 0 l 99 185 l 238 185 l 238 700 l 99 635 l 35 789 z "},"2":{"ha":819,"x_min":35,"x_max":785,"o":"m 46 814 q 211 942 119 899 q 407 986 303 986 q 537 965 476 986 q 642 905 597 944 q 712 809 686 865 q 738 682 738 753 q 724 579 738 622 q 682 502 710 536 q 613 438 654 468 q 515 371 571 407 q 459 331 490 354 q 398 283 428 308 q 344 231 368 257 q 307 185 319 206 l 551 185 l 551 296 l 785 296 l 785 0 l 35 0 l 35 201 q 86 281 64 249 q 131 340 108 314 q 179 388 154 365 q 238 438 204 411 q 318 499 275 471 q 398 553 361 526 q 459 609 435 581 q 483 669 483 638 q 449 742 483 722 q 367 761 415 761 q 315 751 339 761 q 269 725 290 740 q 229 691 247 710 q 196 656 211 672 l 46 814 z "},"3":{"ha":750,"x_min":21,"x_max":729,"o":"m 344 -18 q 246 -5 294 -18 q 153 30 197 8 q 76 80 110 51 q 21 139 42 108 l 163 286 q 244 222 201 247 q 346 196 286 196 q 438 223 404 196 q 471 303 471 250 q 440 382 471 360 q 356 404 408 404 l 251 404 l 251 569 l 353 569 q 437 594 403 569 q 471 665 471 618 q 460 714 471 693 q 431 748 449 735 q 392 768 414 761 q 349 775 371 775 q 265 753 308 775 q 186 692 222 731 l 51 854 q 101 898 69 875 q 172 940 132 921 q 256 973 211 960 q 349 986 301 986 q 499 965 433 986 q 610 906 565 944 q 679 813 656 867 q 703 692 703 758 q 692 628 703 656 q 665 578 681 600 q 631 541 649 557 q 600 515 614 525 q 639 483 617 503 q 681 436 661 464 q 715 372 701 408 q 729 288 729 335 q 695 153 729 210 q 607 58 661 96 q 484 1 553 19 q 344 -18 415 -18 z "},"4":{"ha":811,"x_min":14,"x_max":776,"o":"m 14 472 l 414 971 l 701 971 l 701 424 l 775 424 l 775 274 l 701 274 l 701 183 l 776 183 l 776 0 l 326 0 l 326 183 l 414 183 l 414 274 l 14 274 l 14 472 m 414 424 l 414 681 l 208 424 l 414 424 z "},"5":{"ha":801,"x_min":21,"x_max":781,"o":"m 365 -18 q 260 -4 313 -18 q 162 33 208 10 q 78 88 115 57 q 21 150 42 118 l 172 307 q 259 235 213 265 q 367 204 306 204 q 478 243 438 204 q 519 343 519 282 q 508 395 519 371 q 478 438 497 419 q 433 467 460 457 q 378 478 407 478 q 299 458 329 478 q 247 414 269 438 l 69 493 l 154 971 l 704 971 l 704 764 l 331 764 l 307 629 q 367 653 328 643 q 457 663 406 663 q 576 642 518 663 q 680 579 635 621 q 753 476 725 538 q 781 333 781 414 q 744 180 781 246 q 648 70 707 114 q 515 4 589 26 q 365 -18 440 -18 z "},"6":{"ha":807,"x_min":22,"x_max":786,"o":"m 664 696 q 576 742 628 717 q 461 767 525 767 q 391 751 422 767 q 337 710 360 736 q 299 649 314 683 q 279 578 285 615 q 362 628 308 607 q 475 649 415 649 q 596 626 539 649 q 695 563 653 603 q 762 465 738 522 q 786 339 786 407 q 760 204 786 268 q 687 92 735 140 q 569 16 639 44 q 413 -12 500 -12 q 256 19 328 -12 q 133 108 185 50 q 51 251 81 167 q 22 443 22 336 q 28 549 22 490 q 50 667 33 607 q 96 785 67 728 q 171 887 125 842 q 283 959 217 932 q 439 986 349 986 q 517 978 474 986 q 605 956 561 971 q 689 922 649 942 q 758 876 729 901 l 664 696 m 425 449 q 378 439 400 447 q 337 419 356 431 q 304 393 318 407 q 282 369 290 379 q 290 315 282 343 q 313 262 297 286 q 353 222 329 238 q 411 206 378 206 q 501 240 465 206 q 538 325 538 275 q 531 368 538 346 q 512 408 525 390 q 477 437 499 425 q 425 449 456 449 z "},"7":{"ha":786,"x_min":21,"x_max":772,"o":"m 21 971 l 772 971 l 772 786 l 399 0 l 99 0 l 471 786 l 243 786 l 243 696 l 21 696 l 21 971 z "},"8":{"ha":776,"x_min":21,"x_max":756,"o":"m 21 285 q 31 354 21 318 q 61 424 42 390 q 108 485 81 457 q 171 529 136 513 q 92 613 118 561 q 67 714 67 664 q 89 822 67 772 q 153 909 111 872 q 258 967 196 946 q 397 988 319 988 q 540 967 478 988 q 644 909 601 946 q 708 822 686 872 q 729 714 729 772 q 694 596 729 644 q 613 525 658 547 q 719 423 683 490 q 756 285 756 356 q 730 165 756 221 q 656 69 704 110 q 540 6 608 29 q 389 -18 472 -18 q 234 6 303 -18 q 118 69 165 29 q 46 165 71 110 q 21 285 21 221 m 261 293 q 272 247 261 268 q 299 211 282 226 q 340 188 317 196 q 390 179 364 179 q 479 207 440 179 q 518 293 518 235 q 499 353 518 329 q 453 390 481 376 q 396 410 426 404 q 342 417 365 415 q 285 365 310 399 q 261 293 261 332 m 499 725 q 467 788 499 763 q 394 813 436 813 q 324 786 354 813 q 294 725 294 760 q 310 678 294 696 q 347 651 325 661 q 392 638 368 642 q 432 633 415 633 q 478 669 458 646 q 499 725 499 693 z "},"9":{"ha":815,"x_min":21,"x_max":793,"o":"m 143 278 q 231 232 179 257 q 346 207 282 207 q 470 256 425 207 q 515 396 515 304 q 440 346 486 367 q 332 325 393 325 q 210 347 267 325 q 112 410 154 369 q 45 508 69 451 q 21 635 21 565 q 47 769 21 706 q 120 881 72 833 q 238 958 168 929 q 394 986 307 986 q 553 954 481 986 q 680 863 626 922 q 763 719 733 804 q 793 525 793 633 q 786 413 793 472 q 762 293 779 353 q 715 178 744 233 q 638 80 685 122 q 524 13 590 38 q 368 -12 457 -12 q 289 -5 332 -12 q 202 17 246 3 q 118 51 158 31 q 49 97 78 72 l 143 278 m 382 525 q 427 535 407 526 q 463 555 447 543 q 492 580 479 567 q 513 604 504 593 q 507 659 513 631 q 488 712 501 688 q 451 752 474 736 q 396 768 429 768 q 306 733 342 768 q 269 649 269 699 q 275 606 269 628 q 294 566 281 583 q 329 537 308 549 q 382 525 350 525 z "}," ":{"ha":347,"x_min":0,"x_max":0,"o":""},"#":{"ha":790,"x_min":42,"x_max":744,"o":"m 346 569 l 326 415 l 439 415 l 458 569 l 346 569 m 622 569 l 601 415 l 706 415 l 706 268 l 583 268 l 546 0 l 383 0 l 421 268 l 308 268 l 271 0 l 108 0 l 146 268 l 42 268 l 42 415 l 164 415 l 185 569 l 81 569 l 81 717 l 203 717 l 238 968 l 400 968 l 367 717 l 478 717 l 513 968 l 675 968 l 642 717 l 744 717 l 744 569 l 622 569 z "},"$":{"ha":986,"x_min":35,"x_max":951,"o":"m 396 24 q 337 63 363 42 q 293 107 311 85 l 278 0 l 35 0 l 35 350 l 293 350 q 313 280 293 307 q 359 238 332 253 q 416 217 386 222 q 468 211 446 211 q 507 214 486 211 q 545 224 528 217 q 574 245 563 232 q 586 281 586 258 q 547 324 586 307 q 448 358 507 342 q 319 397 389 375 q 191 456 250 418 q 92 551 132 493 q 53 697 53 608 q 85 831 53 774 q 167 924 118 888 q 274 978 217 960 q 383 996 332 996 l 396 996 l 396 1061 l 610 1061 l 610 929 q 645 896 629 914 q 674 854 661 878 l 688 971 l 926 971 l 926 622 l 675 622 q 661 691 675 661 q 623 742 647 721 q 566 773 599 763 q 497 783 533 783 q 465 778 482 783 q 434 765 449 774 q 410 742 419 756 q 401 710 401 728 q 442 650 401 674 q 544 606 483 626 q 676 560 606 585 q 808 500 747 536 q 910 410 869 464 q 951 274 951 356 q 920 142 951 196 q 840 53 889 88 q 731 1 792 18 q 610 -19 669 -17 l 610 -90 l 396 -90 l 396 24 z "},"%":{"ha":1635,"x_min":65,"x_max":1592,"o":"m 1592 224 q 1563 115 1592 163 q 1486 33 1533 67 q 1379 -17 1439 0 q 1260 -35 1319 -35 q 1116 -14 1178 -35 q 1013 44 1054 7 q 949 131 971 81 q 928 239 928 181 q 957 348 928 300 q 1033 429 986 396 q 1140 480 1081 463 q 1260 497 1200 497 q 1401 476 1339 497 q 1505 419 1463 456 q 1569 332 1547 382 q 1592 224 1592 282 m 1357 256 q 1347 283 1357 271 q 1321 304 1336 296 q 1288 317 1306 313 q 1257 322 1271 322 q 1189 296 1219 322 q 1158 228 1158 269 q 1191 165 1158 189 q 1263 140 1224 140 q 1331 167 1300 140 q 1361 235 1361 193 q 1357 256 1361 244 m 967 982 l 1203 982 l 685 4 l 449 4 l 967 982 m 729 714 q 700 605 729 653 q 624 524 671 557 q 517 473 576 490 q 397 456 457 456 q 253 476 315 456 q 150 534 192 497 q 87 621 108 571 q 65 729 65 671 q 94 838 65 790 q 171 919 124 886 q 278 970 218 953 q 397 988 338 988 q 538 967 476 988 q 642 909 600 946 q 707 822 685 872 q 729 714 729 772 m 494 746 q 484 774 494 761 q 458 794 474 786 q 426 808 443 803 q 394 813 408 813 q 326 786 357 813 q 296 718 296 760 q 328 655 296 679 q 400 631 361 631 q 468 657 438 631 q 499 725 499 683 q 494 746 499 735 z "},"&":{"ha":1019,"x_min":47,"x_max":1008,"o":"m 338 356 q 304 272 304 322 q 333 192 304 226 q 421 157 363 157 q 511 179 472 157 l 338 356 m 469 706 q 455 753 469 735 q 417 771 440 771 q 370 750 383 771 q 357 706 357 729 q 364 667 357 682 q 383 638 371 653 l 413 603 q 451 643 432 615 q 469 706 469 671 m 689 0 l 640 50 q 513 -1 588 17 q 368 -18 439 -18 q 240 -1 299 -18 q 138 49 181 15 q 72 132 96 82 q 47 247 47 182 q 87 385 47 322 q 214 488 126 449 q 134 573 161 521 q 107 692 107 625 q 129 790 107 746 q 192 867 151 835 q 289 917 232 900 q 415 935 346 935 q 540 917 485 935 q 635 869 596 900 q 694 798 674 839 q 715 711 715 757 q 706 642 715 674 q 676 583 697 611 q 620 530 656 556 q 533 478 585 504 l 672 339 q 704 401 688 363 q 732 472 721 439 l 924 417 q 876 299 907 358 q 813 197 844 239 l 1008 0 l 689 0 z "},"'":{"ha":379,"x_min":50,"x_max":325,"o":"m 325 974 l 275 558 l 101 558 l 50 974 l 325 974 z "},"(":{"ha":539,"x_min":35,"x_max":504,"o":"m 504 985 q 442 906 479 954 q 372 791 406 858 q 315 635 339 724 q 290 433 290 546 q 313 226 290 317 q 367 66 335 136 q 436 -55 399 -4 q 504 -142 474 -106 l 361 -290 q 247 -164 304 -239 q 142 4 189 -89 q 65 206 94 97 q 35 433 35 314 q 69 667 35 556 q 155 868 104 778 q 262 1026 206 958 q 361 1132 318 1094 l 504 985 z "},")":{"ha":539,"x_min":35,"x_max":504,"o":"m 178 1131 q 277 1025 221 1093 q 384 867 333 957 q 469 665 435 776 q 504 432 504 554 q 474 204 504 313 q 397 3 444 96 q 292 -165 350 -90 q 178 -292 233 -240 l 35 -143 q 103 -56 65 -107 q 172 65 140 -6 q 226 225 204 135 q 249 432 249 315 q 224 633 249 544 q 167 790 200 722 q 97 905 133 857 q 35 983 60 953 l 178 1131 z "},"*":{"ha":706,"x_min":32,"x_max":664,"o":"m 492 640 l 601 486 l 454 381 l 343 532 l 235 390 l 93 497 l 208 640 l 32 703 l 88 869 l 260 804 l 260 986 l 440 986 l 440 804 l 613 860 l 664 693 l 492 640 z "},"+":{"ha":1003,"x_min":50,"x_max":924,"o":"m 600 364 l 600 33 l 374 33 l 374 364 l 50 364 l 50 583 l 374 583 l 374 908 l 600 908 l 600 583 l 924 583 l 924 364 l 600 364 z "},",":{"ha":378,"x_min":-8,"x_max":376,"o":"m -8 -179 q 50 -97 25 -137 q 92 -10 75 -56 q 117 88 108 36 q 126 203 126 140 q 126 237 126 219 q 124 272 125 254 l 376 206 l 376 189 q 316 -60 376 58 q 151 -269 256 -178 l -8 -179 z "},"-":{"ha":536,"x_min":65,"x_max":468,"o":"m 65 424 l 468 424 l 468 239 l 65 239 l 65 424 z "},".":{"ha":358,"x_min":21,"x_max":338,"o":"m 21 144 q 31 199 21 171 q 61 251 42 228 q 110 288 81 274 q 178 303 140 303 q 245 288 215 303 q 296 251 275 274 q 327 199 317 228 q 338 144 338 171 q 297 38 338 82 q 178 -6 257 -6 q 115 8 143 -6 q 65 42 86 21 q 33 90 44 63 q 21 144 21 117 z "},"/":{"ha":788,"x_min":3,"x_max":742,"o":"m 579 1042 l 742 1042 l 165 -76 l 3 -76 l 579 1042 z "},":":{"ha":353,"x_min":21,"x_max":332,"o":"m 21 136 q 31 190 21 163 q 60 240 40 217 q 109 277 81 263 q 175 292 138 292 q 242 277 213 292 q 291 240 271 263 q 322 190 311 217 q 332 136 332 163 q 321 78 332 106 q 289 32 310 51 q 239 1 268 13 q 175 -11 210 -11 q 113 1 142 -11 q 64 35 85 14 q 32 82 43 56 q 21 136 21 108 m 21 558 q 31 612 21 585 q 60 662 40 639 q 109 699 81 685 q 175 714 138 714 q 242 699 213 714 q 291 662 271 685 q 322 612 311 639 q 332 558 332 585 q 291 453 332 496 q 175 411 250 411 q 115 424 143 411 q 65 457 86 436 q 33 504 44 478 q 21 558 21 531 z "},";":{"ha":419,"x_min":7,"x_max":399,"o":"m 7 -179 q 65 -97 40 -137 q 107 -10 90 -56 q 133 88 124 36 q 142 203 142 140 q 141 237 142 219 q 139 272 140 254 l 392 206 l 392 189 q 331 -60 392 58 q 167 -269 271 -178 l 7 -179 m 82 535 q 92 590 82 561 q 122 641 103 618 q 172 678 142 664 q 239 693 201 693 q 306 678 276 693 q 357 641 336 664 q 388 590 378 618 q 399 535 399 561 q 356 428 399 472 q 239 385 314 385 q 177 398 206 385 q 128 432 149 411 q 94 480 107 453 q 82 535 82 507 z "},"<":{"ha":474,"x_min":28,"x_max":450,"o":"m 275 689 l 450 579 l 282 357 l 450 136 l 275 24 l 28 357 l 275 689 z "},"=":{"ha":697,"x_min":61,"x_max":633,"o":"m 61 424 l 633 424 l 633 239 l 61 239 l 61 424 m 61 731 l 633 731 l 633 546 l 61 546 l 61 731 z "},">":{"ha":474,"x_min":28,"x_max":450,"o":"m 203 24 l 28 136 l 196 357 l 28 579 l 203 689 l 450 357 l 203 24 z "},"?":{"ha":722,"x_min":3,"x_max":694,"o":"m 3 814 q 168 946 76 899 q 364 993 260 993 q 494 975 433 993 q 599 921 554 957 q 669 832 643 885 q 694 708 694 779 q 678 628 694 663 q 637 567 661 594 q 584 517 613 539 q 531 477 556 496 q 490 440 507 458 q 474 400 474 421 l 474 324 l 217 324 l 215 435 q 249 521 215 482 q 325 592 283 560 q 401 653 367 625 q 436 711 436 682 q 427 743 436 731 q 403 763 418 756 q 370 774 389 771 q 333 776 351 776 q 287 767 311 776 q 238 740 263 757 q 192 703 214 724 q 153 663 171 683 l 3 814 m 179 142 q 190 194 179 168 q 221 242 200 221 q 271 276 242 263 q 338 289 300 289 q 405 277 375 289 q 457 245 435 265 q 491 198 479 225 q 503 142 503 171 q 458 41 503 83 q 338 -1 414 -1 q 275 11 304 -1 q 224 43 246 24 q 191 88 203 63 q 179 142 179 114 z "},"@":{"ha":1290,"x_min":35,"x_max":1256,"o":"m 1256 467 q 1230 251 1256 339 q 1163 108 1204 164 q 1066 28 1121 53 q 953 4 1011 4 q 863 20 897 4 q 808 60 828 36 q 781 112 789 83 q 772 164 774 140 q 744 108 761 136 q 700 55 726 79 q 637 15 674 31 q 550 0 600 0 q 474 12 513 0 q 403 55 435 24 q 351 140 371 86 q 331 279 331 194 q 356 460 331 383 q 424 589 382 538 q 524 666 467 640 q 643 692 581 692 q 721 675 693 692 q 764 642 749 658 l 797 681 l 963 681 l 901 307 q 897 260 897 282 q 911 199 897 224 q 961 175 925 175 q 1019 237 999 175 q 1040 453 1040 299 q 1022 613 1040 543 q 961 730 1003 682 q 852 802 919 778 q 688 826 785 826 q 506 790 586 826 q 368 687 425 754 q 281 525 311 619 q 250 314 250 431 q 280 108 250 190 q 360 -25 310 25 q 474 -97 410 -75 q 604 -118 538 -118 q 792 -104 711 -118 q 929 -74 872 -90 l 929 -254 q 797 -284 876 -269 q 604 -299 717 -299 q 402 -271 504 -299 q 219 -174 300 -243 q 86 14 138 -104 q 35 314 35 132 q 90 621 35 490 q 236 837 144 751 q 445 965 328 922 q 688 1007 563 1007 q 915 974 811 1007 q 1095 875 1019 942 q 1213 707 1171 808 q 1256 467 1256 606 m 728 518 q 702 529 718 522 q 665 536 686 536 q 615 511 636 536 q 579 449 593 486 q 558 366 565 411 q 551 282 551 321 q 560 185 551 210 q 594 160 568 160 q 626 174 611 160 q 653 208 640 188 q 676 255 665 229 q 693 306 686 281 l 728 518 z "},"A":{"ha":1143,"x_min":21,"x_max":1122,"o":"m 1122 0 l 565 0 l 565 182 l 697 182 l 668 276 l 383 276 l 354 182 l 463 182 l 463 0 l 21 0 l 21 182 l 115 182 l 303 792 l 246 792 l 246 971 l 779 971 l 1025 182 l 1122 182 l 1122 0 m 435 443 l 617 443 l 525 743 l 435 443 z "},"B":{"ha":954,"x_min":35,"x_max":940,"o":"m 35 0 l 35 181 l 115 181 l 115 792 l 35 792 l 35 971 l 553 971 q 810 909 726 971 q 893 733 893 847 q 886 656 893 689 q 864 598 879 624 q 822 553 849 572 q 757 518 796 533 q 828 488 794 507 q 886 440 861 469 q 926 372 911 411 q 940 282 940 332 q 852 67 940 135 q 563 0 764 0 l 35 0 m 514 181 q 592 212 558 181 q 626 300 626 243 q 597 388 626 353 q 510 422 568 422 l 403 422 l 403 181 l 514 181 m 403 788 l 403 579 l 488 579 q 563 608 543 579 q 582 686 582 636 q 556 761 582 735 q 490 788 531 788 l 403 788 z "},"C":{"ha":953,"x_min":21,"x_max":932,"o":"m 932 174 q 851 99 896 135 q 754 37 807 64 q 640 -6 701 10 q 511 -22 579 -22 q 310 12 400 -22 q 156 110 219 46 q 56 267 92 175 q 21 476 21 360 q 61 691 21 596 q 164 852 101 786 q 301 953 226 918 q 443 988 375 988 q 533 975 494 988 q 597 947 571 963 q 638 915 624 931 q 657 893 653 899 l 689 971 l 907 971 l 907 576 l 658 576 q 647 642 657 610 q 620 698 638 674 q 576 737 603 722 q 511 751 549 751 q 443 730 474 751 q 391 671 413 708 q 358 583 369 633 q 346 476 346 533 q 359 378 346 425 q 398 294 372 331 q 461 237 424 258 q 549 215 499 215 q 631 235 592 215 q 699 278 669 254 q 747 324 728 303 q 769 351 765 346 l 932 174 z "},"D":{"ha":1000,"x_min":35,"x_max":986,"o":"m 35 0 l 35 185 l 121 185 l 121 788 l 35 788 l 35 971 l 458 971 q 683 934 585 971 q 848 834 781 897 q 951 685 915 771 q 986 499 986 599 q 849 130 986 260 q 453 0 711 0 l 35 0 m 667 499 q 655 606 667 554 q 618 699 643 658 q 553 763 593 739 q 458 788 514 788 l 406 788 l 406 185 l 458 185 q 553 210 514 185 q 618 277 593 235 q 655 376 643 319 q 667 499 667 433 z "},"E":{"ha":907,"x_min":35,"x_max":872,"o":"m 35 971 l 872 971 l 872 664 l 632 664 l 632 788 l 410 788 l 410 596 l 674 596 l 674 411 l 410 411 l 410 185 l 632 185 l 632 314 l 872 314 l 872 0 l 35 0 l 35 185 l 122 185 l 122 788 l 35 788 l 35 971 z "},"F":{"ha":886,"x_min":35,"x_max":865,"o":"m 35 971 l 865 971 l 865 664 l 619 664 l 619 788 l 410 788 l 410 546 l 674 546 l 674 361 l 410 361 l 410 185 l 551 185 l 551 0 l 35 0 l 35 185 l 121 185 l 121 788 l 35 788 l 35 971 z "},"G":{"ha":1078,"x_min":21,"x_max":1057,"o":"m 681 88 q 597 18 657 49 q 457 -12 538 -12 q 286 22 365 -12 q 148 119 207 56 q 55 274 89 183 q 21 476 21 364 q 57 684 21 590 q 153 845 93 778 q 289 950 213 913 q 447 988 365 988 q 571 972 522 988 q 649 938 619 957 q 694 899 679 918 q 718 871 710 879 l 747 971 l 954 971 l 954 561 l 706 561 q 691 636 704 603 q 656 692 678 669 q 606 726 633 714 q 547 738 578 738 q 470 716 506 738 q 410 659 435 694 q 371 576 385 624 q 357 476 357 528 q 369 377 357 424 q 406 296 382 331 q 466 241 431 261 q 547 221 501 221 q 636 241 607 221 q 681 289 665 261 l 681 347 l 596 347 l 596 496 l 1057 496 l 1057 347 l 1001 347 l 1001 0 l 724 0 l 681 88 z "},"H":{"ha":1067,"x_min":35,"x_max":1032,"o":"m 35 971 l 485 971 l 485 788 l 399 788 l 399 578 l 663 578 l 663 788 l 581 788 l 581 971 l 1032 971 l 1032 788 l 951 788 l 951 183 l 1032 183 l 1032 0 l 581 0 l 581 183 l 663 183 l 663 393 l 399 393 l 399 183 l 485 183 l 485 0 l 35 0 l 35 183 l 111 183 l 111 788 l 35 788 l 35 971 z "},"I":{"ha":531,"x_min":35,"x_max":496,"o":"m 35 971 l 496 971 l 496 788 l 410 788 l 410 185 l 496 185 l 496 0 l 35 0 l 35 185 l 122 185 l 122 788 l 35 788 l 35 971 z "},"J":{"ha":643,"x_min":28,"x_max":608,"o":"m 28 -85 q 90 -97 54 -97 q 174 -53 142 -97 q 206 103 206 -8 l 206 789 l 86 789 l 86 971 l 608 971 l 608 789 l 493 789 l 493 103 q 472 -61 493 11 q 405 -183 451 -133 q 283 -258 358 -232 q 101 -283 208 -283 q 63 -279 82 -283 q 29 -268 44 -275 l 28 -85 z "},"K":{"ha":1132,"x_min":35,"x_max":1097,"o":"m 472 792 l 397 792 l 397 565 l 656 792 l 556 792 l 556 971 l 1018 971 l 1018 792 l 938 792 l 736 618 l 1017 181 l 1097 181 l 1097 0 l 556 0 l 556 181 l 650 181 l 500 417 l 397 329 l 397 181 l 472 181 l 472 0 l 35 0 l 35 181 l 110 181 l 110 792 l 35 792 l 35 971 l 472 971 l 472 792 z "},"L":{"ha":847,"x_min":35,"x_max":813,"o":"m 35 971 l 474 971 l 474 788 l 400 788 l 400 185 l 579 185 l 579 361 l 813 361 l 813 0 l 35 0 l 35 185 l 111 185 l 111 788 l 35 788 l 35 971 z "},"M":{"ha":1400,"x_min":35,"x_max":1365,"o":"m 999 726 q 989 675 994 703 q 978 622 983 647 q 967 574 972 596 q 958 540 961 553 l 813 0 l 522 0 l 367 554 q 360 581 364 563 q 351 624 356 600 q 343 674 347 647 q 338 726 339 700 l 332 726 l 332 179 l 411 179 l 411 0 l 35 0 l 35 179 l 110 179 l 110 792 l 36 792 l 36 971 l 563 971 l 703 451 l 836 971 l 1365 971 l 1365 792 l 1289 792 l 1289 181 l 1365 181 l 1365 0 l 926 0 l 926 181 l 1006 181 l 1006 726 l 999 726 z "},"N":{"ha":1133,"x_min":35,"x_max":1099,"o":"m 1099 792 l 1007 792 l 1007 0 l 708 0 l 354 529 l 354 179 l 461 179 l 461 0 l 35 0 l 35 179 l 117 179 l 117 792 l 36 792 l 36 971 l 435 971 l 776 461 l 776 792 l 681 792 l 681 971 l 1099 971 l 1099 792 z "},"O":{"ha":1028,"x_min":21,"x_max":1007,"o":"m 518 -25 q 318 7 410 -25 q 160 103 226 39 q 58 263 94 167 q 21 490 21 360 q 56 696 21 603 q 156 856 92 789 q 310 960 221 924 q 508 997 400 997 q 730 960 636 997 q 885 856 824 924 q 977 693 947 789 q 1007 481 1007 597 q 975 269 1007 363 q 881 110 943 175 q 727 10 818 44 q 518 -25 636 -25 m 518 193 q 577 214 551 193 q 622 272 603 235 q 650 363 640 310 q 660 481 660 415 q 651 599 660 544 q 623 695 642 654 q 575 760 604 736 q 506 783 546 783 q 448 762 474 783 q 403 701 422 740 q 374 608 385 663 q 364 490 364 554 q 376 367 364 422 q 408 274 388 313 q 456 214 428 235 q 518 193 485 193 z "},"P":{"ha":889,"x_min":35,"x_max":868,"o":"m 35 971 l 485 971 q 681 947 606 971 q 797 881 756 922 q 853 787 839 840 q 868 674 868 733 q 839 553 868 604 q 760 467 810 501 q 644 416 710 433 q 503 399 578 399 l 397 399 l 397 183 l 482 183 l 482 0 l 35 0 l 35 183 l 113 183 l 113 789 l 35 789 l 35 971 m 397 790 l 397 549 l 460 549 q 558 578 521 549 q 596 664 596 608 q 562 758 596 726 q 467 790 528 790 l 397 790 z "},"Q":{"ha":1049,"x_min":21,"x_max":1028,"o":"m 496 0 q 303 31 390 0 q 153 123 215 61 q 56 276 90 185 q 21 492 21 368 q 54 686 21 597 q 149 840 88 775 q 297 940 211 904 q 488 975 383 975 q 699 940 610 975 q 847 840 789 904 q 934 684 906 775 q 963 482 963 593 q 847 135 963 261 q 869 74 856 103 q 908 44 882 44 q 931 67 926 44 q 936 107 936 89 l 936 147 l 1028 147 l 1028 76 q 1015 -10 1028 31 q 976 -81 1001 -51 q 910 -128 950 -111 q 819 -146 871 -146 q 742 -133 776 -146 q 681 -99 707 -121 q 635 -50 654 -78 q 604 8 615 -22 q 496 0 554 0 m 496 482 q 579 467 540 482 q 651 428 618 451 q 653 453 653 440 q 654 482 654 467 q 642 595 654 542 q 608 688 631 649 q 555 749 586 726 q 485 772 524 772 q 424 751 453 772 q 374 692 396 729 q 340 603 353 654 q 326 492 326 551 q 332 415 326 447 q 394 461 356 440 q 496 482 433 482 m 496 208 q 569 239 535 208 q 547 324 563 292 q 496 356 532 356 q 440 326 461 356 q 403 254 418 296 q 496 208 444 208 z "},"R":{"ha":1024,"x_min":35,"x_max":1010,"o":"m 35 971 l 486 971 q 682 949 607 971 q 799 888 757 926 q 856 797 842 849 q 871 685 871 744 q 856 610 871 644 q 813 549 840 575 q 749 506 786 524 q 669 483 713 489 q 738 460 706 478 q 796 417 771 443 q 836 357 821 390 q 851 286 851 324 q 858 217 851 242 q 885 192 865 192 q 917 236 917 192 l 917 282 l 1010 282 l 1010 206 q 1000 122 1010 163 q 967 51 990 82 q 904 2 943 21 q 807 -17 865 -17 q 603 51 669 -17 q 538 242 538 119 q 533 319 538 289 q 515 367 529 350 q 472 392 500 385 q 399 399 444 399 l 399 183 l 483 183 l 483 0 l 35 0 l 35 183 l 113 183 l 113 789 l 35 789 l 35 971 m 399 790 l 399 554 l 461 554 q 558 583 522 554 q 594 667 594 611 q 562 760 594 729 q 468 790 529 790 l 399 790 z "},"S":{"ha":986,"x_min":35,"x_max":951,"o":"m 35 0 l 35 350 l 293 350 q 313 280 293 307 q 359 238 332 253 q 416 217 386 222 q 468 211 446 211 q 507 214 486 211 q 545 224 528 217 q 574 245 563 232 q 586 281 586 258 q 547 324 586 307 q 448 358 507 342 q 319 397 389 375 q 191 456 250 418 q 92 551 132 493 q 53 697 53 608 q 85 831 53 774 q 167 924 118 888 q 274 978 217 960 q 383 996 332 996 q 469 988 426 996 q 551 964 513 981 q 622 920 590 947 q 674 854 653 893 l 688 971 l 926 971 l 926 622 l 675 622 q 661 691 675 661 q 623 742 647 721 q 566 773 599 763 q 497 783 533 783 q 465 778 482 783 q 434 765 449 774 q 410 742 419 756 q 401 710 401 728 q 442 650 401 674 q 544 606 483 626 q 676 560 606 585 q 808 500 747 536 q 910 410 869 464 q 951 274 951 356 q 917 136 951 192 q 830 45 883 81 q 711 -6 776 10 q 583 -21 646 -21 q 486 -10 531 -21 q 406 19 442 1 q 341 60 369 38 q 293 107 313 83 l 278 0 l 35 0 z "},"T":{"ha":974,"x_min":21,"x_max":953,"o":"m 953 971 l 953 610 l 749 610 l 749 788 l 632 788 l 632 185 l 747 185 l 747 0 l 231 0 l 231 185 l 344 185 l 344 788 l 225 788 l 225 610 l 21 610 l 21 971 l 953 971 z "},"U":{"ha":1024,"x_min":21,"x_max":1003,"o":"m 21 971 l 463 971 l 463 792 l 388 792 l 388 492 q 397 356 388 408 q 424 273 406 303 q 467 232 442 243 q 526 221 493 221 q 584 230 558 221 q 628 267 610 239 q 657 349 647 296 q 667 493 667 403 l 667 788 l 592 788 l 592 971 l 1003 971 l 1003 792 l 928 792 l 928 454 q 826 92 928 207 q 529 -24 725 -24 q 208 97 318 -17 q 99 447 99 210 l 99 790 l 21 790 l 21 971 z "},"V":{"ha":1074,"x_min":-14,"x_max":1088,"o":"m 590 311 q 606 388 593 340 q 640 488 618 435 l 767 790 l 694 790 l 694 971 l 1088 971 l 1088 790 l 1019 790 l 686 0 l 431 0 l 63 790 l -14 790 l -14 971 l 499 971 l 499 790 l 422 790 l 540 479 q 569 384 557 428 q 583 311 581 340 l 590 311 z "},"W":{"ha":1410,"x_min":-14,"x_max":1424,"o":"m 451 314 q 460 365 453 328 q 476 451 467 403 q 497 554 486 500 q 519 658 508 608 l 589 971 l 878 971 l 965 588 q 980 517 974 554 q 991 443 986 479 q 1000 374 996 407 q 1007 314 1004 340 l 1014 314 q 1020 374 1015 338 q 1031 448 1025 410 q 1044 522 1038 486 q 1056 579 1050 557 l 1103 790 l 1026 790 l 1026 971 l 1424 971 l 1424 790 l 1347 790 l 1140 0 l 811 0 l 728 331 q 718 372 724 349 q 708 418 713 394 q 700 464 704 442 q 693 503 696 486 l 688 503 q 681 465 685 488 q 673 417 678 442 q 663 371 668 393 q 654 333 658 349 l 569 0 l 247 0 l 64 790 l -14 790 l -14 971 l 444 971 l 444 790 l 364 790 l 400 588 q 413 522 406 563 q 426 441 419 482 q 437 365 432 400 q 444 314 442 329 l 451 314 z "},"X":{"ha":1160,"x_min":35,"x_max":1125,"o":"m 496 0 l 35 0 l 35 179 l 156 179 l 360 444 l 108 790 l 36 790 l 36 971 l 586 971 l 586 790 l 506 790 l 642 606 l 783 790 l 661 790 l 661 971 l 1122 971 l 1122 790 l 1004 790 l 794 522 l 1044 181 l 1125 181 l 1125 0 l 571 0 l 571 181 l 650 181 l 515 361 l 372 179 l 496 179 l 496 0 z "},"Y":{"ha":929,"x_min":-14,"x_max":943,"o":"m 518 533 q 526 558 519 543 q 540 590 532 574 q 556 624 547 607 q 569 653 564 640 l 646 793 l 569 793 l 569 971 l 943 971 l 943 793 l 868 793 l 611 342 l 611 181 l 689 181 l 689 0 l 244 0 l 244 181 l 324 181 l 324 344 l 54 793 l -14 793 l -14 971 l 461 971 l 461 793 l 389 793 l 469 646 q 478 621 472 636 q 492 589 485 606 q 504 557 499 572 q 513 533 510 542 l 518 533 z "},"Z":{"ha":992,"x_min":35,"x_max":954,"o":"m 43 606 l 43 971 l 954 971 l 954 786 l 449 183 l 706 183 l 706 361 l 953 361 l 953 0 l 35 0 l 35 181 l 540 788 l 278 788 l 278 606 l 43 606 z "},"[":{"ha":1000,"x_min":40,"x_max":960,"o":"m 40 972 l 490 972 q 686 945 611 972 q 803 874 761 918 q 859 772 844 829 q 874 656 874 715 q 832 520 874 578 q 724 426 790 463 l 879 181 l 960 181 l 960 0 l 693 0 l 463 372 l 403 372 l 403 183 l 488 183 l 488 0 l 40 0 l 40 183 l 118 183 l 118 789 l 40 789 l 40 972 m 403 790 l 403 549 l 465 549 q 564 578 526 549 q 601 664 601 608 q 567 758 601 726 q 472 790 533 790 l 403 790 z "},"\\":{"ha":788,"x_min":3,"x_max":742,"o":"m 742 -76 l 579 -76 l 3 1042 l 165 1042 l 742 -76 z "},"]":{"ha":899,"x_min":42,"x_max":868,"o":"m 42 0 l 42 181 l 99 181 l 99 860 l 42 860 l 42 1042 l 363 1042 l 363 414 l 524 510 l 424 510 l 424 694 l 813 694 l 813 510 l 706 510 l 618 458 l 811 182 l 868 182 l 868 0 l 643 0 l 410 332 l 361 299 l 361 182 l 460 182 l 460 0 l 42 0 z "},"^":{"ha":925,"x_min":114,"x_max":817,"o":"m 556 540 l 465 767 l 372 540 l 114 540 l 324 983 l 607 983 l 817 540 l 556 540 z "},"_":{"ha":694,"x_min":0,"x_max":694,"o":"m 0 -174 l 0 -104 l 694 -104 l 694 -174 l 0 -174 z "},"`":{"ha":707,"x_min":-201,"x_max":182,"o":"m 74 974 l 182 776 l 8 776 l -201 974 l 74 974 z "},"a":{"ha":833,"x_min":21,"x_max":813,"o":"m 50 636 q 103 665 71 649 q 174 698 135 682 q 259 724 214 714 q 353 735 304 735 q 482 722 415 735 q 603 676 549 708 q 694 588 658 643 q 729 449 729 532 l 729 178 l 813 178 l 813 0 l 515 0 l 482 63 q 438 19 463 36 q 388 -8 414 1 q 338 -22 363 -18 q 294 -26 313 -26 q 196 -12 244 -26 q 108 29 147 1 q 45 101 69 57 q 21 206 21 144 q 44 311 21 264 q 106 392 67 358 q 199 443 146 425 q 310 461 251 461 q 365 455 340 461 q 406 440 389 449 q 434 424 424 432 q 447 413 444 415 l 447 461 q 410 524 447 508 q 315 539 372 539 q 201 518 253 539 q 108 475 149 497 l 50 636 m 358 154 q 414 169 390 154 q 447 200 438 185 l 447 253 q 441 262 446 256 q 426 275 436 268 q 402 288 417 282 q 365 293 388 293 q 304 272 324 293 q 285 219 285 251 q 306 172 285 190 q 358 154 326 154 z "},"b":{"ha":911,"x_min":43,"x_max":881,"o":"m 43 0 l 43 181 l 101 181 l 101 860 l 43 860 l 43 1042 l 379 1042 l 379 640 q 410 666 390 654 q 456 687 431 678 q 508 701 481 696 q 561 706 536 706 q 701 675 642 706 q 801 594 761 644 q 860 477 840 543 q 881 342 881 411 q 856 195 879 261 q 792 83 833 129 q 692 10 750 36 q 560 -15 633 -15 q 492 -10 519 -15 q 443 3 464 -6 q 406 24 422 13 q 376 47 390 35 l 356 0 l 43 0 m 575 339 q 568 401 575 369 q 548 456 561 432 q 516 494 535 479 q 475 510 497 510 q 406 467 436 510 q 376 349 376 424 q 383 276 376 310 q 403 218 390 243 q 435 179 417 193 q 476 165 454 165 q 548 213 521 165 q 575 339 575 260 z "},"c":{"ha":738,"x_min":1,"x_max":724,"o":"m 500 381 q 494 431 499 406 q 479 478 489 457 q 453 513 469 500 q 413 526 436 526 q 359 511 382 526 q 321 471 336 496 q 298 414 306 446 q 290 349 290 382 q 329 231 290 278 q 438 185 368 185 q 529 206 490 185 q 601 264 568 228 l 724 122 q 664 70 699 96 q 585 25 629 44 q 490 -7 542 6 q 383 -19 439 -19 q 238 3 307 -19 q 116 73 168 26 q 33 189 64 119 q 1 351 1 258 q 30 510 1 443 q 106 622 58 578 q 215 686 153 665 q 343 707 276 707 q 406 699 378 707 q 456 678 435 690 q 493 651 478 665 q 517 628 508 638 l 540 694 l 704 694 l 704 381 l 500 381 z "},"d":{"ha":881,"x_min":14,"x_max":860,"o":"m 511 861 l 447 861 l 447 1042 l 793 1042 l 793 181 l 860 181 l 860 0 l 535 0 l 511 51 q 490 34 504 44 q 453 13 475 24 q 401 -5 431 3 q 336 -12 372 -12 q 203 17 263 -12 q 101 98 143 47 q 37 215 60 149 q 14 354 14 282 q 40 501 14 435 q 111 613 67 567 q 214 683 156 658 q 336 708 272 708 q 451 688 410 708 q 511 656 492 668 l 511 861 m 313 354 q 319 292 313 322 q 340 238 326 261 q 371 199 353 214 q 413 183 389 183 q 481 226 451 183 q 511 344 511 269 q 504 417 511 383 q 484 475 497 450 q 452 514 471 500 q 411 528 433 528 q 340 481 367 528 q 313 354 313 433 z "},"e":{"ha":753,"x_min":7,"x_max":732,"o":"m 732 96 q 568 2 654 29 q 374 -25 482 -25 q 243 -3 308 -25 q 126 63 178 18 q 40 180 74 108 q 7 351 7 251 q 36 503 7 436 q 115 618 65 571 q 233 690 165 665 q 381 714 301 714 q 533 689 467 714 q 643 619 599 664 q 710 515 688 575 q 732 383 732 454 q 728 328 732 356 q 715 278 724 301 l 278 278 q 287 244 281 264 q 308 207 293 225 q 350 176 324 189 q 421 164 376 164 q 460 165 439 164 q 507 174 482 167 q 560 194 532 181 q 615 231 588 207 l 732 96 m 389 526 q 337 514 357 526 q 305 484 317 501 q 288 447 293 467 q 282 415 283 428 l 492 415 q 488 455 492 435 q 473 491 483 475 q 442 517 463 507 q 389 526 422 526 z "},"f":{"ha":536,"x_min":35,"x_max":571,"o":"m 488 872 q 458 882 476 878 q 411 886 439 886 q 367 813 367 886 l 367 694 l 493 694 l 493 514 l 367 514 l 367 182 l 450 182 l 450 0 l 36 0 l 36 182 l 92 182 l 92 514 l 35 514 l 35 694 l 92 694 l 92 813 q 99 885 92 842 q 135 969 107 929 q 218 1038 164 1010 q 367 1067 272 1067 q 424 1064 393 1067 q 482 1056 454 1061 q 533 1045 510 1051 q 571 1032 557 1039 l 488 872 z "},"g":{"ha":889,"x_min":14,"x_max":868,"o":"m 107 -8 q 144 -34 119 -19 q 200 -63 168 -49 q 270 -87 232 -78 q 349 -97 308 -97 q 426 -85 396 -97 q 476 -53 457 -72 q 502 -12 494 -35 q 510 33 510 11 l 510 81 q 489 58 503 71 q 455 33 475 44 q 408 13 435 21 q 347 4 381 4 q 194 34 257 4 q 91 113 131 64 q 33 224 51 161 q 14 351 14 286 q 36 498 14 432 q 102 610 58 564 q 211 683 146 657 q 363 708 276 708 q 449 690 408 708 q 510 651 489 672 l 538 694 l 868 694 l 868 513 l 785 513 l 785 97 q 758 -59 785 11 q 678 -179 732 -129 q 542 -257 624 -229 q 351 -285 461 -285 q 245 -272 294 -285 q 155 -241 196 -260 q 83 -201 114 -222 q 33 -162 53 -181 l 107 -8 m 310 354 q 317 292 310 322 q 337 238 324 261 q 368 199 350 214 q 410 183 386 183 q 478 226 449 183 q 508 344 508 269 q 501 417 508 383 q 481 475 494 450 q 449 514 468 500 q 408 528 431 528 q 337 481 364 528 q 310 354 310 433 z "},"h":{"ha":918,"x_min":35,"x_max":897,"o":"m 471 0 l 35 0 l 35 182 l 93 182 l 93 861 l 35 861 l 35 1042 l 371 1042 l 371 608 q 397 636 376 618 q 448 673 418 654 q 515 706 478 692 q 589 719 551 719 q 717 692 669 719 q 791 622 765 665 q 824 523 817 578 q 832 414 832 468 l 832 182 l 897 182 l 897 0 l 540 0 l 540 378 q 539 418 540 396 q 530 460 538 440 q 506 493 522 479 q 458 507 489 507 q 415 495 432 507 q 388 465 397 483 q 374 423 378 446 q 371 378 371 400 l 371 182 l 471 182 l 471 0 z "},"i":{"ha":458,"x_min":35,"x_max":424,"o":"m 424 0 l 35 0 l 35 182 l 93 182 l 93 514 l 35 514 l 35 694 l 357 694 l 357 182 l 424 182 l 424 0 m 74 897 q 83 946 74 921 q 112 992 93 971 q 159 1026 131 1013 q 224 1039 188 1039 q 288 1026 260 1039 q 336 992 317 1013 q 366 946 356 971 q 376 897 376 921 q 338 798 376 839 q 224 757 299 757 q 163 769 190 757 q 116 802 136 782 q 85 847 96 822 q 74 897 74 872 z "},"j":{"ha":500,"x_min":19,"x_max":461,"o":"m 178 514 l 119 514 l 119 694 l 442 694 l 442 97 q 428 -36 442 32 q 369 -161 414 -104 q 242 -254 325 -218 q 19 -290 158 -290 l 19 -104 q 112 -82 79 -104 q 159 -28 144 -60 q 176 38 174 3 q 178 97 178 72 l 178 514 m 158 897 q 168 946 158 921 q 197 992 178 971 q 244 1026 215 1013 q 308 1039 272 1039 q 373 1026 344 1039 q 421 992 401 1013 q 451 946 440 971 q 461 897 461 921 q 422 798 461 839 q 308 757 383 757 q 248 769 275 757 q 201 802 221 782 q 169 847 181 822 q 158 897 158 872 z "},"k":{"ha":908,"x_min":53,"x_max":879,"o":"m 53 0 l 53 181 l 110 181 l 110 860 l 53 860 l 53 1042 l 374 1042 l 374 414 l 535 510 l 435 510 l 435 693 l 824 693 l 824 510 l 717 510 l 622 450 l 810 182 l 879 182 l 879 0 l 468 0 l 468 182 l 526 182 l 421 332 l 372 299 l 372 182 l 424 182 l 424 0 l 53 0 z "},"l":{"ha":461,"x_min":35,"x_max":440,"o":"m 440 0 l 35 0 l 35 182 l 94 182 l 94 863 l 36 863 l 36 1042 l 358 1042 l 358 182 l 440 182 l 440 0 z "},"m":{"ha":1261,"x_min":35,"x_max":1240,"o":"m 447 0 l 35 0 l 35 182 l 93 182 l 93 510 l 35 510 l 35 693 l 297 693 l 328 611 q 352 638 336 621 q 390 672 368 656 q 440 701 413 689 q 501 713 468 713 q 590 701 554 713 q 649 675 625 690 q 686 642 672 660 q 708 613 700 625 q 790 681 740 649 q 913 713 840 713 q 1048 684 997 713 q 1126 609 1099 656 q 1163 503 1154 563 q 1172 379 1172 443 l 1172 188 l 1240 188 l 1240 0 l 888 0 l 888 340 q 888 369 888 354 q 889 401 889 385 q 887 442 889 422 q 879 478 885 463 q 863 503 874 493 q 835 513 853 513 q 776 484 790 513 q 761 411 761 456 l 761 186 l 844 186 l 844 0 l 485 0 l 485 354 q 476 476 485 439 q 426 513 468 513 q 378 492 393 513 q 364 429 364 472 l 364 182 l 447 182 l 447 0 z "},"n":{"ha":899,"x_min":35,"x_max":878,"o":"m 463 0 l 35 0 l 35 182 l 93 182 l 93 514 l 35 514 l 35 694 l 331 694 l 363 608 q 447 688 399 657 q 561 719 494 719 q 691 692 642 719 q 767 622 740 665 q 803 523 794 578 q 813 414 813 468 l 813 182 l 878 182 l 878 0 l 528 0 l 528 379 q 527 419 528 397 q 519 461 526 442 q 497 494 513 481 q 450 508 481 508 q 406 497 424 508 q 379 466 389 485 q 366 424 369 447 q 363 379 363 401 l 363 182 l 463 182 l 463 0 z "},"o":{"ha":797,"x_min":15,"x_max":782,"o":"m 403 -18 q 258 5 328 -18 q 133 74 188 28 q 47 189 79 119 q 15 350 15 258 q 48 505 15 438 q 134 618 81 572 q 256 688 188 664 q 396 711 325 711 q 549 685 478 711 q 672 612 619 660 q 753 495 724 564 q 782 339 782 426 q 752 187 782 253 q 671 75 722 121 q 551 6 619 29 q 403 -18 482 -18 m 403 160 q 442 174 425 160 q 472 213 460 188 q 491 272 485 238 q 497 344 497 306 q 490 417 497 383 q 471 476 483 451 q 440 516 458 501 q 396 531 421 531 q 358 517 375 531 q 328 478 340 503 q 308 419 315 453 q 300 349 300 386 q 329 211 300 263 q 403 160 358 160 z "},"p":{"ha":886,"x_min":35,"x_max":872,"o":"m 574 339 q 567 401 574 369 q 547 456 560 432 q 515 494 533 479 q 474 510 496 510 q 405 467 435 510 q 375 349 375 424 q 382 276 375 310 q 402 218 389 243 q 434 179 415 193 q 475 165 453 165 q 547 213 519 165 q 574 339 574 260 m 35 -101 l 93 -101 l 93 510 l 35 510 l 35 694 l 353 694 l 376 646 q 402 663 386 653 q 439 683 418 674 q 486 699 460 692 q 544 706 513 706 q 687 676 625 706 q 790 597 749 647 q 851 481 831 547 q 872 342 872 415 q 848 192 872 258 q 781 81 824 126 q 681 10 739 35 q 556 -15 622 -15 q 480 -8 513 -15 q 426 8 447 -1 q 392 27 404 18 q 375 39 379 36 l 375 -101 l 450 -101 l 450 -283 l 35 -283 l 35 -101 z "},"q":{"ha":917,"x_min":35,"x_max":882,"o":"m 532 357 q 525 419 532 388 q 505 474 518 450 q 473 513 492 497 q 432 528 454 528 q 363 485 393 528 q 333 367 333 442 q 340 294 333 328 q 360 236 347 261 q 392 197 374 211 q 433 183 411 183 q 505 231 478 183 q 532 357 532 278 m 442 -137 l 532 -137 l 532 46 q 463 7 508 26 q 354 -12 417 -12 q 229 13 288 -12 q 128 86 171 39 q 60 201 85 133 q 35 351 35 268 q 60 508 35 442 q 131 619 86 575 q 237 686 176 664 q 367 708 297 708 q 478 688 435 708 q 532 653 521 667 l 558 694 l 882 694 l 882 514 l 814 514 l 814 -133 l 882 -133 l 882 -319 l 442 -319 l 442 -137 z "},"r":{"ha":575,"x_min":35,"x_max":554,"o":"m 428 0 l 35 0 l 35 182 l 96 182 l 96 514 l 36 514 l 36 694 l 297 694 l 339 606 q 368 653 353 631 q 407 692 383 675 q 465 719 431 710 q 554 729 500 729 l 554 479 q 409 448 460 479 q 358 325 358 417 l 358 182 l 428 182 l 428 0 z "},"s":{"ha":706,"x_min":21,"x_max":678,"o":"m 21 0 l 21 250 l 207 250 q 224 204 207 222 q 265 176 242 186 q 314 161 289 165 q 354 157 339 157 q 395 166 375 157 q 415 204 415 175 q 387 235 415 224 q 315 258 358 247 q 221 285 271 269 q 127 327 171 300 q 55 398 83 354 q 26 510 26 442 q 51 601 26 563 q 112 663 75 639 q 191 699 149 688 q 271 711 233 711 q 399 679 342 711 q 478 603 456 647 l 489 694 l 660 694 l 660 444 l 479 444 q 467 485 479 467 q 434 519 454 504 q 389 542 414 533 q 338 550 364 550 q 299 538 315 550 q 283 500 283 526 q 313 463 283 476 q 385 435 342 449 q 481 406 429 422 q 576 364 532 390 q 649 297 619 338 q 678 192 678 256 q 656 104 678 143 q 599 38 635 65 q 517 -3 564 11 q 419 -17 469 -17 q 288 14 344 -17 q 207 85 232 44 l 194 0 l 21 0 z "},"t":{"ha":504,"x_min":21,"x_max":483,"o":"m 21 694 l 96 694 l 96 822 l 351 904 l 351 694 l 483 694 l 483 514 l 351 514 l 351 267 q 351 247 351 257 q 350 226 350 238 q 358 177 350 199 q 396 156 365 156 q 437 163 410 156 q 483 179 464 171 l 483 1 q 444 -10 468 -6 q 396 -18 421 -15 q 349 -23 371 -21 q 315 -25 328 -25 q 194 -4 238 -25 q 129 54 150 17 q 103 146 108 92 q 96 267 97 200 l 96 514 l 21 514 l 21 694 z "},"u":{"ha":876,"x_min":21,"x_max":856,"o":"m 21 694 l 357 694 l 357 360 q 373 227 357 269 q 432 185 389 185 q 494 214 468 185 q 519 290 519 243 l 519 511 l 428 511 l 428 694 l 788 694 l 788 185 l 856 185 l 856 0 l 593 0 l 556 88 q 528 56 544 75 q 490 21 513 38 q 435 -8 467 4 q 358 -19 403 -19 q 226 1 279 -19 q 140 64 172 22 q 93 169 107 106 q 79 319 79 233 l 79 511 l 21 511 l 21 694 z "},"v":{"ha":851,"x_min":0,"x_max":851,"o":"m 458 225 q 462 253 458 236 q 471 292 465 271 q 484 335 476 313 q 500 378 492 357 l 567 518 l 493 518 l 493 694 l 851 694 l 851 518 l 779 518 l 539 0 l 324 0 l 65 518 l 0 518 l 0 694 l 422 694 l 422 518 l 353 518 l 417 371 q 440 289 431 331 q 453 225 450 247 l 458 225 z "},"w":{"ha":1211,"x_min":0,"x_max":1211,"o":"m 394 213 q 399 268 396 233 q 409 345 403 303 q 426 437 415 388 q 451 539 436 486 l 496 694 l 753 694 l 806 514 q 828 428 818 474 q 846 340 838 382 q 859 265 854 299 q 865 213 864 231 l 868 213 q 873 255 869 229 q 881 311 876 281 q 891 373 885 342 q 906 432 897 404 l 929 514 l 872 514 l 872 694 l 1211 694 l 1211 514 l 1154 514 l 992 0 l 699 0 l 603 314 l 503 0 l 217 0 l 60 514 l 0 514 l 0 694 l 374 694 l 374 514 l 326 514 l 357 413 q 370 359 364 388 q 381 303 376 331 q 388 251 385 275 q 392 213 390 228 l 394 213 z "},"x":{"ha":901,"x_min":28,"x_max":876,"o":"m 521 694 l 875 694 l 875 521 l 783 521 l 636 372 l 811 172 l 876 172 l 876 0 l 433 0 l 433 172 l 499 172 l 393 285 l 293 172 l 383 172 l 383 0 l 28 0 l 28 172 l 121 172 l 263 332 l 90 521 l 28 521 l 28 694 l 478 694 l 478 521 l 413 521 l 510 415 l 614 521 l 521 521 l 521 694 z "},"y":{"ha":806,"x_min":-12,"x_max":819,"o":"m 531 518 l 467 518 l 467 694 l 819 694 l 819 522 l 753 522 l 489 -119 q 453 -187 474 -153 q 400 -251 433 -222 q 316 -297 367 -279 q 190 -315 265 -315 q 95 -293 136 -312 q 22 -246 54 -274 l 126 -82 q 170 -115 146 -100 q 218 -131 194 -131 q 266 -107 246 -131 q 296 -56 286 -83 l 315 3 l 44 517 l -12 517 l -12 694 l 415 694 l 415 518 l 350 518 l 440 301 l 531 518 z "},"z":{"ha":768,"x_min":35,"x_max":733,"o":"m 35 417 l 35 694 l 722 694 l 722 515 l 392 182 l 538 182 l 538 276 l 733 276 l 733 0 l 35 0 l 35 182 l 369 515 l 215 515 l 215 417 l 35 417 z "},"{":{"ha":596,"x_min":107,"x_max":511,"o":"m 401 -217 q 320 -205 357 -217 q 256 -167 283 -193 q 215 -99 229 -142 q 200 6 200 -57 l 200 222 q 195 268 200 251 q 179 294 190 285 q 150 306 168 303 q 107 308 132 308 l 107 494 q 181 512 163 494 q 200 578 200 529 l 200 796 q 253 969 200 921 q 401 1017 306 1017 l 511 1017 l 511 807 l 479 807 q 442 799 456 807 q 423 779 429 790 q 415 756 417 768 q 413 733 413 743 l 413 524 q 400 451 413 476 q 371 415 388 426 q 338 403 354 404 q 311 401 321 401 l 311 399 q 338 397 321 399 q 371 383 354 394 q 400 348 388 372 q 413 281 413 324 l 413 67 q 415 44 413 57 q 425 20 418 32 q 445 1 432 8 q 479 -7 458 -7 l 511 -7 l 511 -217 l 401 -217 z "},"|":{"ha":308,"x_min":39,"x_max":269,"o":"m 39 -82 l 39 1040 l 269 1040 l 269 -82 l 39 -82 z "},"}":{"ha":600,"x_min":108,"x_max":513,"o":"m 108 -7 l 140 -7 q 174 1 161 -7 q 194 20 188 8 q 204 44 201 32 q 207 67 207 57 l 207 281 q 219 348 207 324 q 249 383 232 372 q 282 397 265 394 q 308 399 299 399 l 308 401 q 282 403 299 401 q 249 415 265 404 q 219 451 232 426 q 207 524 207 476 l 207 733 q 205 756 207 743 q 197 779 203 768 q 176 799 190 790 q 140 807 163 807 l 108 807 l 108 1017 l 218 1017 q 367 969 314 1017 q 419 796 419 921 l 419 578 q 438 512 419 529 q 513 494 457 494 l 513 308 q 469 306 486 308 q 440 294 451 303 q 424 268 429 285 q 419 222 419 251 l 419 6 q 405 -99 419 -57 q 363 -167 390 -142 q 299 -205 336 -193 q 218 -217 263 -217 l 108 -217 l 108 -7 z "},"~":{"ha":925,"x_min":139,"x_max":789,"o":"m 789 344 q 611 267 731 267 q 519 279 557 267 q 449 307 481 292 q 387 335 417 322 q 319 347 357 347 q 251 335 281 347 q 192 296 222 322 l 139 510 q 206 555 164 533 q 314 576 247 576 q 397 564 361 576 q 465 537 432 551 q 531 510 497 522 q 607 497 565 497 q 681 514 646 497 q 742 561 717 531 l 789 344 z "}," ":{"ha":0,"x_min":0,"x_max":0,"o":""},"¡":{"ha":428,"x_min":39,"x_max":376,"o":"m 376 556 q 366 503 376 529 q 335 456 356 476 q 285 422 314 435 q 218 408 256 408 q 151 420 181 408 q 99 452 121 432 q 65 499 76 472 q 53 556 53 526 q 97 656 53 614 q 218 699 142 699 q 280 686 251 699 q 330 654 308 674 q 364 608 351 635 q 376 556 376 582 m 371 -10 l 371 -274 l 39 -274 l 39 -10 l 113 340 l 296 340 l 371 -10 z "},"¢":{"ha":738,"x_min":1,"x_max":724,"o":"m 342 -82 l 342 -18 q 210 14 272 -12 q 102 86 149 40 q 28 199 56 132 q 1 351 1 265 q 30 510 1 443 q 105 620 58 576 q 213 685 151 664 q 342 707 275 707 l 342 760 l 458 760 l 458 676 q 493 651 479 664 q 517 628 507 638 l 540 694 l 704 694 l 704 381 l 500 381 q 488 452 497 417 q 458 508 479 488 l 458 185 q 537 210 503 189 q 601 264 571 231 l 724 122 q 615 40 683 78 q 458 -12 546 1 l 458 -82 l 342 -82 m 290 349 q 303 275 290 308 q 342 219 317 242 l 342 497 q 303 433 315 472 q 290 349 290 393 z "},"£":{"ha":1036,"x_min":40,"x_max":1001,"o":"m 40 500 l 144 500 q 183 704 149 614 q 272 858 218 794 q 393 954 326 921 q 526 988 460 988 q 616 975 578 988 q 681 947 654 963 q 722 915 707 931 q 740 893 736 899 l 772 971 l 990 971 l 990 576 l 742 576 q 731 642 740 610 q 703 698 721 674 q 659 737 686 722 q 594 751 632 751 q 529 732 558 751 q 478 678 500 713 q 444 599 457 644 q 429 500 432 553 l 663 500 l 663 315 l 429 315 l 429 185 l 761 185 l 761 314 l 1001 314 l 1001 0 l 43 0 l 43 185 l 144 185 l 144 315 l 40 315 l 40 500 z "},"¤":{"ha":1090,"x_min":21,"x_max":1064,"o":"m 546 107 q 386 135 463 107 q 254 219 310 163 l 196 140 l 21 253 l 160 435 q 158 454 158 444 q 158 475 158 464 q 158 494 158 485 q 160 511 158 503 l 21 696 l 196 806 l 257 724 q 385 808 311 779 q 539 836 460 836 q 703 806 629 836 q 829 722 776 775 l 889 801 l 1064 689 l 922 503 q 924 486 924 494 q 925 469 925 478 q 924 449 925 458 q 924 431 924 440 l 1064 246 l 889 136 l 829 215 q 703 135 776 163 q 546 107 631 107 m 546 285 q 585 299 568 285 q 615 338 603 313 q 634 397 628 363 q 640 469 640 431 q 633 542 640 508 q 614 601 626 576 q 583 641 601 626 q 539 656 564 656 q 501 642 518 656 q 471 603 483 628 q 451 544 458 578 q 443 474 443 511 q 472 336 443 388 q 546 285 501 285 z "},"¥":{"ha":929,"x_min":-14,"x_max":943,"o":"m 196 556 l 288 556 l 54 793 l -14 793 l -14 971 l 461 971 l 461 793 l 389 793 l 513 667 l 518 667 l 646 793 l 569 793 l 569 971 l 943 971 l 943 793 l 868 793 l 647 556 l 753 556 l 753 449 l 611 449 l 611 378 l 753 378 l 753 272 l 611 272 l 611 181 l 689 181 l 689 0 l 244 0 l 244 181 l 324 181 l 324 272 l 196 272 l 196 378 l 324 378 l 324 449 l 196 449 l 196 556 z "},"¦":{"ha":308,"x_min":39,"x_max":269,"o":"m 39 -82 l 39 357 l 269 357 l 269 -82 l 39 -82 m 269 643 l 39 643 l 39 1040 l 269 1040 l 269 643 z "},"§":{"ha":667,"x_min":28,"x_max":639,"o":"m 639 411 q 626 339 639 369 q 592 289 613 308 q 549 258 572 269 q 506 242 526 246 q 536 220 519 233 q 567 187 553 207 q 591 140 582 167 q 600 78 600 113 q 575 -33 600 10 q 508 -100 550 -76 q 410 -133 465 -124 q 296 -142 356 -142 q 153 -132 214 -142 q 53 -108 93 -122 l 53 85 q 167 57 108 69 q 264 44 226 44 q 317 53 296 44 q 339 90 339 63 q 315 126 339 113 q 256 154 290 139 l 189 183 q 131 213 160 196 q 78 252 101 229 q 42 306 56 275 q 28 381 28 338 q 41 447 28 419 q 75 492 54 474 q 121 522 96 511 q 169 540 146 533 q 135 562 153 549 q 101 597 117 575 q 76 649 86 618 q 67 719 67 679 q 92 820 67 779 q 160 885 117 861 q 261 920 203 910 q 385 931 319 931 q 527 916 474 931 q 614 889 581 901 l 614 701 q 502 729 561 715 q 389 743 443 743 q 344 734 361 743 q 328 700 328 725 q 356 663 328 676 q 425 631 385 649 l 499 596 q 551 568 525 583 q 596 531 576 553 q 627 481 615 510 q 639 411 639 451 m 401 383 q 390 428 401 414 q 356 454 379 443 l 314 474 q 283 446 299 464 q 268 404 268 428 q 285 360 268 376 q 324 333 301 343 l 365 315 q 389 342 376 325 q 401 383 401 360 z "},"¨":{"ha":814,"x_min":74,"x_max":758,"o":"m 456 897 q 465 946 456 921 q 494 992 475 971 q 541 1026 513 1013 q 606 1039 569 1039 q 670 1026 642 1039 q 718 992 699 1013 q 748 946 738 971 q 758 897 758 921 q 719 798 758 839 q 606 757 681 757 q 545 769 572 757 q 498 802 518 782 q 467 847 478 822 q 456 897 456 872 m 74 897 q 83 946 74 921 q 112 992 93 971 q 159 1026 131 1013 q 224 1039 188 1039 q 288 1026 260 1039 q 336 992 317 1013 q 366 946 356 971 q 376 897 376 921 q 338 798 376 839 q 224 757 299 757 q 163 769 190 757 q 116 802 136 782 q 85 847 96 822 q 74 897 74 872 z "},"©":{"ha":1083,"x_min":35,"x_max":1049,"o":"m 1049 479 q 1010 249 1049 349 q 903 81 971 149 q 742 -21 835 14 q 542 -56 650 -56 q 341 -22 433 -56 q 181 78 249 11 q 74 245 113 144 q 35 479 35 346 q 74 711 35 611 q 181 878 113 811 q 341 980 249 946 q 542 1014 433 1014 q 742 978 650 1014 q 903 876 835 943 q 1010 708 971 808 q 1049 479 1049 608 m 840 479 q 765 752 840 657 q 542 847 689 847 q 319 758 394 847 q 243 479 243 668 q 265 315 243 385 q 325 201 286 246 q 419 133 364 156 q 542 111 475 111 q 760 201 681 111 q 840 479 840 292 m 689 226 q 642 212 668 218 q 576 206 615 206 q 495 215 539 206 q 414 254 451 225 q 351 338 376 283 q 325 482 325 392 q 351 623 325 569 q 417 706 378 676 q 501 745 456 735 q 585 756 547 756 q 649 748 624 756 q 689 733 674 740 l 689 601 q 646 615 668 608 q 592 622 624 622 q 521 592 547 622 q 494 482 494 561 q 517 379 494 415 q 583 343 539 343 q 640 349 614 343 q 689 363 667 354 l 689 226 z "},"ª":{"ha":625,"x_min":15,"x_max":610,"o":"m 38 904 q 77 926 53 914 q 131 951 101 939 q 194 971 160 963 q 264 979 228 979 q 361 969 311 979 q 453 935 411 960 q 521 868 494 910 q 547 764 547 826 l 547 561 l 610 561 l 610 428 l 386 428 l 361 475 q 328 442 346 454 q 290 422 310 429 q 253 411 271 414 q 221 408 235 408 q 147 419 183 408 q 81 450 110 429 q 33 503 51 471 q 15 582 15 536 q 33 662 15 626 q 79 722 50 697 q 148 760 108 747 q 232 774 188 774 q 305 758 278 774 q 335 738 332 742 l 335 774 q 307 821 335 810 q 236 832 279 832 q 151 816 190 832 q 81 783 111 800 l 38 904 m 268 543 q 310 555 292 543 q 335 578 328 567 l 335 617 q 319 634 332 621 q 274 647 307 647 q 228 632 242 647 q 214 592 214 617 q 229 556 214 569 q 268 543 244 543 m 17 317 l 607 317 l 607 132 l 17 132 l 17 317 z "},"«":{"ha":783,"x_min":0,"x_max":785,"o":"m 236 11 l 0 354 l 236 699 l 396 590 l 236 354 l 396 118 l 236 11 m 625 11 l 396 354 l 625 699 l 785 590 l 625 354 l 785 118 l 625 11 z "},"¬":{"ha":847,"x_min":42,"x_max":806,"o":"m 569 138 l 569 361 l 42 361 l 42 583 l 806 583 l 806 138 l 569 138 z "},"­":{"ha":621,"x_min":44,"x_max":568,"o":"m 44 424 l 568 424 l 568 239 l 44 239 l 44 424 z "},"®":{"ha":1083,"x_min":35,"x_max":1049,"o":"m 1049 479 q 1010 249 1049 349 q 903 81 971 149 q 742 -21 835 14 q 542 -56 650 -56 q 341 -22 433 -56 q 181 78 249 11 q 74 245 113 144 q 35 479 35 346 q 74 711 35 611 q 181 878 113 811 q 341 980 249 946 q 542 1014 433 1014 q 742 978 650 1014 q 903 876 835 943 q 1010 708 971 808 q 1049 479 1049 608 m 840 479 q 765 752 840 657 q 542 847 689 847 q 319 758 394 847 q 243 479 243 668 q 265 315 243 385 q 325 201 286 246 q 419 133 364 156 q 542 111 475 111 q 760 201 681 111 q 840 479 840 292 m 592 232 l 576 314 q 562 374 569 350 q 535 418 554 399 l 513 414 l 513 232 l 358 232 l 358 746 l 526 746 q 606 742 567 746 q 678 724 646 739 q 729 678 710 708 q 749 594 749 647 q 721 510 749 540 q 646 460 693 481 q 697 408 681 439 q 726 340 714 376 l 763 232 l 592 232 m 593 588 q 575 638 593 629 q 528 646 557 646 l 513 646 l 513 506 q 553 517 538 511 q 578 531 569 522 q 590 552 586 539 q 593 588 593 565 z "},"¯":{"ha":899,"x_min":38,"x_max":813,"o":"m 38 969 l 813 969 l 813 785 l 38 785 l 38 969 z "},"°":{"ha":797,"x_min":65,"x_max":729,"o":"m 729 714 q 700 605 729 653 q 624 524 671 557 q 517 473 576 490 q 397 456 457 456 q 253 476 315 456 q 150 534 192 497 q 87 621 108 571 q 65 729 65 671 q 94 838 65 790 q 171 919 124 886 q 278 970 218 953 q 397 988 338 988 q 538 967 476 988 q 642 909 600 946 q 707 822 685 872 q 729 714 729 772 m 494 746 q 484 774 494 761 q 458 794 474 786 q 426 808 443 803 q 394 813 408 813 q 326 786 357 813 q 296 718 296 760 q 328 655 296 679 q 400 631 361 631 q 468 657 438 631 q 499 725 499 683 q 494 746 499 735 z "},"±":{"ha":1003,"x_min":47,"x_max":921,"o":"m 47 89 l 47 308 l 921 308 l 921 89 l 47 89 m 597 636 l 597 407 l 371 407 l 371 636 l 47 636 l 47 856 l 371 856 l 371 1074 l 597 1074 l 597 856 l 921 856 l 921 636 l 597 636 z "},"²":{"ha":492,"x_min":51,"x_max":501,"o":"m 58 879 q 275 982 149 982 q 353 969 317 982 q 416 933 389 957 q 458 876 443 910 q 474 800 474 842 q 465 738 474 764 q 440 692 457 713 q 399 652 424 671 q 340 613 374 633 q 306 589 325 603 q 269 560 288 575 q 237 529 251 544 q 215 501 222 514 l 361 501 l 361 568 l 501 568 l 501 390 l 51 390 l 51 511 q 82 558 68 539 q 109 594 96 578 q 138 623 122 610 q 174 653 153 636 q 222 690 196 672 q 269 723 247 707 q 306 756 292 739 q 321 792 321 772 q 300 835 321 824 q 250 847 279 847 q 192 825 217 847 q 149 783 168 803 l 58 879 z "},"³":{"ha":478,"x_min":25,"x_max":450,"o":"m 219 381 q 160 388 190 381 q 104 409 131 396 q 58 440 78 422 q 25 475 38 457 l 110 564 q 158 525 133 540 q 219 510 183 510 q 275 526 256 510 q 294 574 294 542 q 276 621 294 607 q 226 635 258 635 l 164 635 l 164 733 l 224 733 q 274 748 254 733 q 294 790 294 763 q 272 841 294 825 q 222 857 249 857 q 172 844 199 857 q 124 807 146 831 l 43 904 q 73 931 54 917 q 115 956 92 944 q 166 976 139 968 q 222 983 193 983 q 379 935 324 983 q 435 807 435 888 q 412 739 435 764 q 372 701 389 714 q 395 683 382 694 q 421 653 408 671 q 442 614 433 636 q 450 564 450 592 q 430 483 450 518 q 377 426 410 449 q 303 392 344 403 q 219 381 261 381 z "},"´":{"ha":707,"x_min":-54,"x_max":329,"o":"m 329 974 l 119 776 l -54 776 l 54 974 l 329 974 z "},"µ":{"ha":876,"x_min":-79,"x_max":856,"o":"m 79 511 l 21 511 l 21 694 l 357 694 l 357 360 q 373 227 357 269 q 432 185 389 185 q 494 214 468 185 q 519 290 519 243 l 519 511 l 428 511 l 428 694 l 788 694 l 788 185 l 856 185 l 856 0 l 593 0 l 560 67 q 549 40 560 56 q 522 11 539 25 q 482 -12 504 -3 q 436 -21 460 -21 q 391 -8 413 -21 q 357 40 369 6 q 317 -71 346 -12 q 237 -178 289 -129 q 107 -258 185 -226 q -79 -290 29 -290 l -79 -104 q 13 -82 -19 -104 q 60 -28 46 -60 q 77 38 75 3 q 79 97 79 72 l 79 511 z "},"¶":{"ha":871,"x_min":68,"x_max":794,"o":"m 632 -175 l 632 843 l 536 843 l 536 -175 l 374 -175 l 374 474 q 141 539 214 474 q 68 722 68 604 q 92 841 68 793 q 160 917 117 889 q 265 956 204 944 q 397 968 325 968 l 794 968 l 794 -175 l 632 -175 z "},"·":{"ha":353,"x_min":21,"x_max":332,"o":"m 21 558 q 31 612 21 585 q 60 662 40 639 q 109 699 81 685 q 175 714 138 714 q 242 699 213 714 q 291 662 271 685 q 322 612 311 639 q 332 558 332 585 q 291 453 332 496 q 175 411 250 411 q 115 424 143 411 q 65 457 86 436 q 33 504 44 478 q 21 558 21 531 z "},"¸":{"ha":596,"x_min":182,"x_max":472,"o":"m 472 -136 q 463 -187 472 -161 q 435 -233 454 -212 q 383 -265 415 -253 q 304 -278 351 -278 q 238 -269 272 -278 q 182 -250 204 -261 l 226 -164 q 293 -179 260 -179 q 339 -146 339 -179 q 293 -112 339 -112 q 271 -113 281 -112 q 254 -115 261 -114 l 240 -92 l 278 28 l 388 14 l 365 -35 q 444 -67 415 -39 q 472 -136 472 -96 z "},"¹":{"ha":432,"x_min":19,"x_max":392,"o":"m 19 860 q 53 876 38 868 q 87 896 69 885 q 123 924 104 907 q 165 968 142 940 l 314 968 l 314 497 l 392 497 l 392 386 l 58 386 l 58 497 l 142 497 l 142 806 l 58 767 l 19 860 z "},"º":{"ha":597,"x_min":11,"x_max":586,"o":"m 301 433 q 192 451 244 433 q 100 502 140 468 q 35 588 60 536 q 11 710 11 640 q 35 826 11 775 q 100 910 60 876 q 192 963 140 944 q 297 981 243 981 q 413 961 360 981 q 503 906 465 942 q 564 817 542 869 q 586 700 586 765 q 564 586 586 636 q 503 502 542 536 q 412 451 464 468 q 301 433 360 433 m 301 567 q 354 607 336 567 q 372 706 372 647 q 353 804 372 764 q 297 844 333 844 q 245 806 265 844 q 225 708 225 767 q 247 606 225 644 q 301 567 269 567 m 17 317 l 586 317 l 586 132 l 17 132 l 17 317 z "},"»":{"ha":783,"x_min":0,"x_max":785,"o":"m 160 11 l 0 118 l 160 354 l 0 590 l 160 699 l 396 354 l 160 11 m 549 11 l 396 118 l 549 354 l 389 590 l 549 699 l 785 354 l 549 11 z "},"¼":{"ha":1149,"x_min":63,"x_max":1082,"o":"m 63 861 q 97 878 81 869 q 130 897 113 886 q 166 925 147 908 q 208 969 185 942 l 357 969 l 357 499 l 435 499 l 435 388 l 101 388 l 101 499 l 185 499 l 185 807 l 101 768 l 63 861 m 625 283 l 865 582 l 1038 582 l 1038 254 l 1082 254 l 1082 164 l 1038 164 l 1038 110 l 1082 110 l 1082 0 l 813 0 l 813 110 l 865 110 l 865 164 l 625 164 l 625 283 m 865 254 l 865 408 l 742 254 l 865 254 m 801 1042 l 964 1042 l 388 -76 l 225 -76 l 801 1042 z "},"½":{"ha":1215,"x_min":63,"x_max":1157,"o":"m 63 861 q 97 878 81 869 q 130 897 113 886 q 166 925 147 908 q 208 969 185 942 l 357 969 l 357 499 l 435 499 l 435 388 l 101 388 l 101 499 l 185 499 l 185 807 l 101 768 l 63 861 m 801 1042 l 964 1042 l 388 -76 l 225 -76 l 801 1042 m 714 489 q 931 592 804 592 q 1008 579 972 592 q 1072 543 1044 567 q 1114 485 1099 519 q 1129 410 1129 451 q 1121 348 1129 374 q 1096 301 1113 322 q 1054 262 1079 281 q 996 222 1029 243 q 962 199 981 213 q 925 169 943 185 q 892 139 907 154 q 871 111 878 124 l 1017 111 l 1017 178 l 1157 178 l 1157 0 l 707 0 l 707 121 q 738 168 724 149 q 765 203 751 188 q 793 233 778 219 q 829 263 808 246 q 877 299 851 282 q 925 333 903 317 q 962 365 947 349 q 976 401 976 382 q 956 445 976 433 q 906 457 935 457 q 848 435 872 457 q 804 393 824 413 l 714 489 z "},"¾":{"ha":1149,"x_min":56,"x_max":1082,"o":"m 625 283 l 865 582 l 1038 582 l 1038 254 l 1082 254 l 1082 164 l 1038 164 l 1038 110 l 1082 110 l 1082 0 l 813 0 l 813 110 l 865 110 l 865 164 l 625 164 l 625 283 m 865 254 l 865 408 l 742 254 l 865 254 m 801 1042 l 964 1042 l 388 -76 l 225 -76 l 801 1042 m 250 382 q 191 390 221 382 q 135 410 161 397 q 88 441 108 424 q 56 476 68 458 l 140 565 q 189 526 164 542 q 250 511 214 511 q 306 527 286 511 q 325 575 325 543 q 307 622 325 608 q 257 636 289 636 l 194 636 l 194 735 l 254 735 q 305 749 285 735 q 325 792 325 764 q 302 842 325 826 q 253 858 279 858 q 203 845 229 858 q 154 808 176 832 l 74 906 q 103 932 85 918 q 146 958 122 946 q 197 977 169 969 q 253 985 224 985 q 410 937 354 985 q 465 808 465 889 q 442 740 465 765 q 403 703 419 715 q 426 684 413 696 q 451 655 439 672 q 472 615 464 638 q 481 565 481 593 q 460 485 481 519 q 408 427 440 450 q 333 393 375 404 q 250 382 292 382 z "},"¿":{"ha":722,"x_min":3,"x_max":694,"o":"m 694 -119 q 529 -251 621 -204 q 333 -299 438 -299 q 203 -281 264 -299 q 99 -226 143 -262 q 28 -137 54 -190 q 3 -14 3 -85 q 19 65 3 31 q 60 128 36 100 q 113 177 85 156 q 166 218 142 199 q 207 256 190 238 q 224 294 224 274 l 224 371 l 481 371 l 482 260 q 448 173 482 211 q 372 102 414 135 q 296 41 331 69 q 261 -17 261 13 q 270 -49 261 -36 q 294 -69 279 -62 q 327 -79 308 -76 q 364 -82 346 -82 q 410 -72 386 -82 q 459 -46 435 -62 q 505 -9 483 -29 q 544 32 526 11 l 694 -119 m 518 553 q 508 500 518 526 q 476 453 497 474 q 426 419 456 432 q 360 406 397 406 q 292 417 322 406 q 240 449 263 429 q 206 497 218 469 q 194 553 194 524 q 239 653 194 611 q 360 696 283 696 q 422 683 393 696 q 473 651 451 671 q 506 606 494 632 q 518 553 518 579 z "},"À":{"ha":1143,"x_min":21,"x_max":1122,"o":"m 1122 0 l 565 0 l 565 182 l 697 182 l 668 276 l 383 276 l 354 182 l 463 182 l 463 0 l 21 0 l 21 182 l 115 182 l 303 792 l 246 792 l 246 971 l 779 971 l 1025 182 l 1122 182 l 1122 0 m 435 443 l 617 443 l 525 743 l 435 443 m 569 1250 l 678 1053 l 504 1053 l 294 1250 l 569 1250 z "},"Á":{"ha":1143,"x_min":21,"x_max":1122,"o":"m 1122 0 l 565 0 l 565 182 l 697 182 l 668 276 l 383 276 l 354 182 l 463 182 l 463 0 l 21 0 l 21 182 l 115 182 l 303 792 l 246 792 l 246 971 l 779 971 l 1025 182 l 1122 182 l 1122 0 m 435 443 l 617 443 l 525 743 l 435 443 m 825 1250 l 615 1053 l 442 1053 l 550 1250 l 825 1250 z "},"Â":{"ha":1143,"x_min":21,"x_max":1122,"o":"m 1122 0 l 565 0 l 565 182 l 697 182 l 668 276 l 383 276 l 354 182 l 463 182 l 463 0 l 21 0 l 21 182 l 115 182 l 303 792 l 246 792 l 246 971 l 779 971 l 1025 182 l 1122 182 l 1122 0 m 435 443 l 617 443 l 525 743 l 435 443 m 735 1035 l 525 1132 l 354 1035 l 285 1164 l 550 1329 l 813 1164 l 735 1035 z "},"Ã":{"ha":1143,"x_min":21,"x_max":1122,"o":"m 1122 0 l 565 0 l 565 182 l 697 182 l 668 276 l 383 276 l 354 182 l 463 182 l 463 0 l 21 0 l 21 182 l 115 182 l 303 792 l 246 792 l 246 971 l 779 971 l 1025 182 l 1122 182 l 1122 0 m 435 443 l 617 443 l 525 743 l 435 443 m 829 1118 q 758 1061 799 1081 q 658 1042 718 1042 q 605 1050 626 1042 q 564 1067 583 1058 q 524 1085 544 1076 q 472 1093 503 1093 q 375 1051 417 1093 l 314 1190 q 385 1251 346 1231 q 476 1272 424 1272 q 532 1265 510 1272 q 574 1248 554 1257 q 615 1231 594 1239 q 665 1224 636 1224 q 724 1236 696 1224 q 767 1264 753 1249 l 829 1118 z "},"Ä":{"ha":1143,"x_min":21,"x_max":1122,"o":"m 1122 0 l 565 0 l 565 182 l 697 182 l 668 276 l 383 276 l 354 182 l 463 182 l 463 0 l 21 0 l 21 182 l 115 182 l 303 792 l 246 792 l 246 971 l 779 971 l 1025 182 l 1122 182 l 1122 0 m 435 443 l 617 443 l 525 743 l 435 443 m 611 1174 q 621 1222 611 1197 q 649 1268 631 1247 q 697 1302 668 1289 q 761 1315 725 1315 q 826 1302 797 1315 q 874 1268 854 1289 q 903 1222 893 1247 q 914 1174 914 1197 q 875 1074 914 1115 q 761 1033 836 1033 q 701 1046 728 1033 q 653 1078 674 1058 q 622 1124 633 1099 q 611 1174 611 1149 m 229 1174 q 239 1222 229 1197 q 267 1268 249 1247 q 315 1302 286 1289 q 379 1315 343 1315 q 444 1302 415 1315 q 492 1268 472 1289 q 522 1222 511 1247 q 532 1174 532 1197 q 493 1074 532 1115 q 379 1033 454 1033 q 319 1046 346 1033 q 272 1078 292 1058 q 240 1124 251 1099 q 229 1174 229 1149 z "},"Å":{"ha":1143,"x_min":21,"x_max":1122,"o":"m 593 1142 q 576 1183 593 1167 q 539 1200 560 1200 q 494 1183 511 1200 q 478 1142 478 1167 q 494 1100 478 1117 q 535 1083 511 1083 q 577 1100 561 1083 q 593 1142 593 1117 m 697 1142 q 684 1085 697 1111 q 649 1038 671 1058 q 597 1006 626 1018 q 538 994 568 994 q 473 1006 503 994 q 421 1038 443 1018 q 386 1085 399 1058 q 374 1142 374 1111 q 387 1199 374 1172 q 423 1245 400 1225 q 475 1277 446 1265 q 538 1289 504 1289 q 599 1277 571 1289 q 650 1245 628 1265 q 685 1199 672 1225 q 697 1142 697 1172 m 1122 0 l 565 0 l 565 182 l 697 182 l 668 276 l 383 276 l 354 182 l 463 182 l 463 0 l 21 0 l 21 182 l 115 182 l 303 792 l 246 792 l 246 971 l 779 971 l 1025 182 l 1122 182 l 1122 0 m 435 443 l 617 443 l 525 743 l 435 443 z "},"Æ":{"ha":1614,"x_min":60,"x_max":1546,"o":"m 458 971 l 1546 971 l 1546 664 l 1306 664 l 1306 788 l 1083 788 l 1083 596 l 1347 596 l 1347 411 l 1083 411 l 1083 185 l 1306 185 l 1306 314 l 1546 314 l 1546 0 l 708 0 l 708 185 l 796 185 l 796 276 l 492 276 l 435 182 l 542 182 l 542 0 l 60 0 l 60 182 l 154 182 l 515 792 l 458 792 l 458 971 m 796 443 l 796 792 l 590 443 l 796 443 z "},"Ç":{"ha":953,"x_min":21,"x_max":932,"o":"m 621 -165 q 612 -216 621 -190 q 583 -262 603 -242 q 532 -294 564 -282 q 453 -307 500 -307 q 387 -299 421 -307 q 331 -279 353 -290 l 375 -193 q 442 -208 408 -208 q 488 -175 488 -208 q 442 -142 488 -142 q 419 -142 429 -142 q 403 -144 410 -143 l 389 -121 l 421 -15 q 256 37 329 -3 q 130 139 182 76 q 49 287 78 201 q 21 476 21 372 q 61 691 21 596 q 164 852 101 786 q 301 953 226 918 q 443 988 375 988 q 533 975 494 988 q 597 947 571 963 q 638 915 624 931 q 657 893 653 899 l 689 971 l 907 971 l 907 576 l 658 576 q 647 642 657 610 q 620 698 638 674 q 576 737 603 722 q 511 751 549 751 q 443 730 474 751 q 391 671 413 708 q 358 583 369 633 q 346 476 346 533 q 359 378 346 425 q 398 294 372 331 q 461 237 424 258 q 549 215 499 215 q 631 235 592 215 q 699 278 669 254 q 747 324 728 303 q 769 351 765 346 l 932 174 q 856 102 899 136 q 763 42 813 68 q 655 -1 713 15 q 533 -21 597 -18 l 514 -64 q 592 -97 564 -68 q 621 -165 621 -125 z "},"È":{"ha":907,"x_min":35,"x_max":872,"o":"m 35 971 l 872 971 l 872 664 l 632 664 l 632 788 l 410 788 l 410 596 l 674 596 l 674 411 l 410 411 l 410 185 l 632 185 l 632 314 l 872 314 l 872 0 l 35 0 l 35 185 l 122 185 l 122 788 l 35 788 l 35 971 m 536 1250 l 644 1053 l 471 1053 l 261 1250 l 536 1250 z "},"É":{"ha":907,"x_min":35,"x_max":872,"o":"m 35 971 l 872 971 l 872 664 l 632 664 l 632 788 l 410 788 l 410 596 l 674 596 l 674 411 l 410 411 l 410 185 l 632 185 l 632 314 l 872 314 l 872 0 l 35 0 l 35 185 l 122 185 l 122 788 l 35 788 l 35 971 m 707 1250 l 497 1053 l 324 1053 l 432 1250 l 707 1250 z "},"Ê":{"ha":907,"x_min":35,"x_max":872,"o":"m 35 971 l 872 971 l 872 664 l 632 664 l 632 788 l 410 788 l 410 596 l 674 596 l 674 411 l 410 411 l 410 185 l 632 185 l 632 314 l 872 314 l 872 0 l 35 0 l 35 185 l 122 185 l 122 788 l 35 788 l 35 971 m 617 1035 l 424 1132 l 236 1035 l 167 1164 l 432 1329 l 694 1164 l 617 1035 z "},"Ë":{"ha":907,"x_min":35,"x_max":872,"o":"m 35 971 l 872 971 l 872 664 l 632 664 l 632 788 l 410 788 l 410 596 l 674 596 l 674 411 l 410 411 l 410 185 l 632 185 l 632 314 l 872 314 l 872 0 l 35 0 l 35 185 l 122 185 l 122 788 l 35 788 l 35 971 m 493 1174 q 503 1222 493 1197 q 531 1268 513 1247 q 578 1302 550 1289 q 643 1315 607 1315 q 708 1302 679 1315 q 756 1268 736 1289 q 785 1222 775 1247 q 796 1174 796 1197 q 757 1074 796 1115 q 643 1033 718 1033 q 583 1046 610 1033 q 535 1078 556 1058 q 504 1124 515 1099 q 493 1174 493 1149 m 111 1174 q 121 1222 111 1197 q 149 1268 131 1247 q 197 1302 168 1289 q 261 1315 225 1315 q 326 1302 297 1315 q 374 1268 354 1289 q 403 1222 393 1247 q 414 1174 414 1197 q 375 1074 414 1115 q 261 1033 336 1033 q 201 1046 228 1033 q 153 1078 174 1058 q 122 1124 133 1099 q 111 1174 111 1149 z "},"Ì":{"ha":531,"x_min":35,"x_max":496,"o":"m 35 971 l 496 971 l 496 788 l 410 788 l 410 185 l 496 185 l 496 0 l 35 0 l 35 185 l 122 185 l 122 788 l 35 788 l 35 971 m 349 1250 l 457 1053 l 283 1053 l 74 1250 l 349 1250 z "},"Í":{"ha":531,"x_min":35,"x_max":519,"o":"m 35 971 l 496 971 l 496 788 l 410 788 l 410 185 l 496 185 l 496 0 l 35 0 l 35 185 l 122 185 l 122 788 l 35 788 l 35 971 m 519 1250 l 310 1053 l 136 1053 l 244 1250 l 519 1250 z "},"Î":{"ha":531,"x_min":10,"x_max":538,"o":"m 35 971 l 496 971 l 496 788 l 410 788 l 410 185 l 496 185 l 496 0 l 35 0 l 35 185 l 122 185 l 122 788 l 35 788 l 35 971 m 460 1035 l 267 1132 l 79 1035 l 10 1164 l 275 1329 l 538 1164 l 460 1035 z "},"Ï":{"ha":531,"x_min":-76,"x_max":608,"o":"m 35 971 l 496 971 l 496 788 l 410 788 l 410 185 l 496 185 l 496 0 l 35 0 l 35 185 l 122 185 l 122 788 l 35 788 l 35 971 m 306 1174 q 315 1222 306 1197 q 344 1268 325 1247 q 391 1302 363 1289 q 456 1315 419 1315 q 520 1302 492 1315 q 568 1268 549 1289 q 598 1222 588 1247 q 608 1174 608 1197 q 569 1074 608 1115 q 456 1033 531 1033 q 395 1046 422 1033 q 348 1078 368 1058 q 317 1124 328 1099 q 306 1174 306 1149 m -76 1174 q -67 1222 -76 1197 q -38 1268 -57 1247 q 9 1302 -19 1289 q 74 1315 38 1315 q 138 1302 110 1315 q 186 1268 167 1289 q 216 1222 206 1247 q 226 1174 226 1197 q 188 1074 226 1115 q 74 1033 149 1033 q 13 1046 40 1033 q -34 1078 -14 1058 q -65 1124 -54 1099 q -76 1174 -76 1149 z "},"Ð":{"ha":1000,"x_min":35,"x_max":986,"o":"m 58 581 l 121 581 l 121 788 l 35 788 l 35 971 l 458 971 q 683 934 585 971 q 848 834 781 897 q 951 685 915 771 q 986 499 986 599 q 849 130 986 260 q 453 0 711 0 l 35 0 l 35 185 l 121 185 l 121 396 l 58 396 l 58 581 m 667 499 q 655 606 667 554 q 618 699 643 658 q 553 763 593 739 q 458 788 514 788 l 406 788 l 406 581 l 461 581 l 461 396 l 406 396 l 406 185 l 458 185 q 553 210 514 185 q 618 277 593 235 q 655 376 643 319 q 667 499 667 433 z "},"Ñ":{"ha":1133,"x_min":35,"x_max":1099,"o":"m 1099 792 l 1007 792 l 1007 0 l 708 0 l 354 529 l 354 179 l 461 179 l 461 0 l 35 0 l 35 179 l 117 179 l 117 792 l 36 792 l 36 971 l 435 971 l 776 461 l 776 792 l 681 792 l 681 971 l 1099 971 l 1099 792 m 824 1118 q 753 1061 793 1081 q 653 1042 713 1042 q 599 1050 621 1042 q 558 1067 578 1058 q 518 1085 539 1076 q 467 1093 497 1093 q 369 1051 411 1093 l 308 1190 q 379 1251 340 1231 q 471 1272 418 1272 q 526 1265 504 1272 q 569 1248 549 1257 q 610 1231 589 1239 q 660 1224 631 1224 q 719 1236 690 1224 q 761 1264 747 1249 l 824 1118 z "},"Ò":{"ha":1028,"x_min":21,"x_max":1007,"o":"m 518 -25 q 318 7 410 -25 q 160 103 226 39 q 58 263 94 167 q 21 490 21 360 q 56 696 21 603 q 156 856 92 789 q 310 960 221 924 q 508 997 400 997 q 730 960 636 997 q 885 856 824 924 q 977 693 947 789 q 1007 481 1007 597 q 975 269 1007 363 q 881 110 943 175 q 727 10 818 44 q 518 -25 636 -25 m 518 193 q 577 214 551 193 q 622 272 603 235 q 650 363 640 310 q 660 481 660 415 q 651 599 660 544 q 623 695 642 654 q 575 760 604 736 q 506 783 546 783 q 448 762 474 783 q 403 701 422 740 q 374 608 385 663 q 364 490 364 554 q 376 367 364 422 q 408 274 388 313 q 456 214 428 235 q 518 193 485 193 m 597 1250 l 706 1053 l 532 1053 l 322 1250 l 597 1250 z "},"Ó":{"ha":1028,"x_min":21,"x_max":1007,"o":"m 518 -25 q 318 7 410 -25 q 160 103 226 39 q 58 263 94 167 q 21 490 21 360 q 56 696 21 603 q 156 856 92 789 q 310 960 221 924 q 508 997 400 997 q 730 960 636 997 q 885 856 824 924 q 977 693 947 789 q 1007 481 1007 597 q 975 269 1007 363 q 881 110 943 175 q 727 10 818 44 q 518 -25 636 -25 m 518 193 q 577 214 551 193 q 622 272 603 235 q 650 363 640 310 q 660 481 660 415 q 651 599 660 544 q 623 695 642 654 q 575 760 604 736 q 506 783 546 783 q 448 762 474 783 q 403 701 422 740 q 374 608 385 663 q 364 490 364 554 q 376 367 364 422 q 408 274 388 313 q 456 214 428 235 q 518 193 485 193 m 768 1250 l 558 1053 l 385 1053 l 493 1250 l 768 1250 z "},"Ô":{"ha":1028,"x_min":21,"x_max":1007,"o":"m 518 -25 q 318 7 410 -25 q 160 103 226 39 q 58 263 94 167 q 21 490 21 360 q 56 696 21 603 q 156 856 92 789 q 310 960 221 924 q 508 997 400 997 q 730 960 636 997 q 885 856 824 924 q 977 693 947 789 q 1007 481 1007 597 q 975 269 1007 363 q 881 110 943 175 q 727 10 818 44 q 518 -25 636 -25 m 518 193 q 577 214 551 193 q 622 272 603 235 q 650 363 640 310 q 660 481 660 415 q 651 599 660 544 q 623 695 642 654 q 575 760 604 736 q 506 783 546 783 q 448 762 474 783 q 403 701 422 740 q 374 608 385 663 q 364 490 364 554 q 376 367 364 422 q 408 274 388 313 q 456 214 428 235 q 518 193 485 193 m 676 1035 l 483 1132 l 296 1035 l 226 1164 l 492 1329 l 754 1164 l 676 1035 z "},"Õ":{"ha":1028,"x_min":21,"x_max":1007,"o":"m 518 -25 q 318 7 410 -25 q 160 103 226 39 q 58 263 94 167 q 21 490 21 360 q 56 696 21 603 q 156 856 92 789 q 310 960 221 924 q 508 997 400 997 q 730 960 636 997 q 885 856 824 924 q 977 693 947 789 q 1007 481 1007 597 q 975 269 1007 363 q 881 110 943 175 q 727 10 818 44 q 518 -25 636 -25 m 518 193 q 577 214 551 193 q 622 272 603 235 q 650 363 640 310 q 660 481 660 415 q 651 599 660 544 q 623 695 642 654 q 575 760 604 736 q 506 783 546 783 q 448 762 474 783 q 403 701 422 740 q 374 608 385 663 q 364 490 364 554 q 376 367 364 422 q 408 274 388 313 q 456 214 428 235 q 518 193 485 193 m 771 1118 q 700 1061 740 1081 q 600 1042 660 1042 q 547 1050 568 1042 q 506 1067 525 1058 q 465 1085 486 1076 q 414 1093 444 1093 q 317 1051 358 1093 l 256 1190 q 326 1251 288 1231 q 418 1272 365 1272 q 474 1265 451 1272 q 516 1248 496 1257 q 557 1231 536 1239 q 607 1224 578 1224 q 666 1236 638 1224 q 708 1264 694 1249 l 771 1118 z "},"Ö":{"ha":1028,"x_min":21,"x_max":1007,"o":"m 518 -25 q 318 7 410 -25 q 160 103 226 39 q 58 263 94 167 q 21 490 21 360 q 56 696 21 603 q 156 856 92 789 q 310 960 221 924 q 508 997 400 997 q 730 960 636 997 q 885 856 824 924 q 977 693 947 789 q 1007 481 1007 597 q 975 269 1007 363 q 881 110 943 175 q 727 10 818 44 q 518 -25 636 -25 m 518 193 q 577 214 551 193 q 622 272 603 235 q 650 363 640 310 q 660 481 660 415 q 651 599 660 544 q 623 695 642 654 q 575 760 604 736 q 506 783 546 783 q 448 762 474 783 q 403 701 422 740 q 374 608 385 663 q 364 490 364 554 q 376 367 364 422 q 408 274 388 313 q 456 214 428 235 q 518 193 485 193 m 553 1174 q 563 1222 553 1197 q 591 1268 572 1247 q 638 1302 610 1289 q 703 1315 667 1315 q 767 1302 739 1315 q 815 1268 796 1289 q 845 1222 835 1247 q 856 1174 856 1197 q 817 1074 856 1115 q 703 1033 778 1033 q 642 1046 669 1033 q 595 1078 615 1058 q 564 1124 575 1099 q 553 1174 553 1149 m 171 1174 q 181 1222 171 1197 q 209 1268 190 1247 q 256 1302 228 1289 q 321 1315 285 1315 q 385 1302 357 1315 q 433 1268 414 1289 q 463 1222 453 1247 q 474 1174 474 1197 q 435 1074 474 1115 q 321 1033 396 1033 q 260 1046 288 1033 q 213 1078 233 1058 q 182 1124 193 1099 q 171 1174 171 1149 z "},"×":{"ha":1003,"x_min":97,"x_max":876,"o":"m 492 315 l 257 81 l 97 242 l 331 475 l 103 704 l 257 858 l 486 631 l 715 860 l 876 700 l 646 469 l 875 242 l 719 86 l 492 315 z "},"Ø":{"ha":1028,"x_min":21,"x_max":1007,"o":"m 151 111 q 55 270 89 176 q 21 490 21 364 q 56 696 21 603 q 156 856 92 789 q 310 960 221 924 q 508 997 400 997 q 633 986 575 997 q 739 956 690 975 l 750 971 l 953 971 l 878 864 q 976 699 944 796 q 1007 481 1007 601 q 975 269 1007 363 q 881 110 943 175 q 727 10 818 44 q 518 -25 636 -25 q 289 18 392 -25 l 276 0 l 74 0 l 151 111 m 364 490 q 365 454 364 471 q 367 421 365 438 l 592 744 q 506 783 557 783 q 448 762 474 783 q 403 701 422 740 q 374 608 385 663 q 364 490 364 554 m 518 193 q 577 214 551 193 q 622 272 603 235 q 650 363 640 310 q 660 481 660 415 q 659 514 660 497 q 657 546 658 531 l 438 231 q 518 193 471 193 z "},"Ù":{"ha":1024,"x_min":21,"x_max":1003,"o":"m 21 971 l 463 971 l 463 792 l 388 792 l 388 492 q 397 356 388 408 q 424 273 406 303 q 467 232 442 243 q 526 221 493 221 q 584 230 558 221 q 628 267 610 239 q 657 349 647 296 q 667 493 667 403 l 667 788 l 592 788 l 592 971 l 1003 971 l 1003 792 l 928 792 l 928 454 q 826 92 928 207 q 529 -24 725 -24 q 208 97 318 -17 q 99 447 99 210 l 99 790 l 21 790 l 21 971 m 506 1250 l 614 1053 l 440 1053 l 231 1250 l 506 1250 z "},"Ú":{"ha":1024,"x_min":21,"x_max":1003,"o":"m 21 971 l 463 971 l 463 792 l 388 792 l 388 492 q 397 356 388 408 q 424 273 406 303 q 467 232 442 243 q 526 221 493 221 q 584 230 558 221 q 628 267 610 239 q 657 349 647 296 q 667 493 667 403 l 667 788 l 592 788 l 592 971 l 1003 971 l 1003 792 l 928 792 l 928 454 q 826 92 928 207 q 529 -24 725 -24 q 208 97 318 -17 q 99 447 99 210 l 99 790 l 21 790 l 21 971 m 819 1250 l 610 1053 l 436 1053 l 544 1250 l 819 1250 z "},"Û":{"ha":1024,"x_min":21,"x_max":1003,"o":"m 21 971 l 463 971 l 463 792 l 388 792 l 388 492 q 397 356 388 408 q 424 273 406 303 q 467 232 442 243 q 526 221 493 221 q 584 230 558 221 q 628 267 610 239 q 657 349 647 296 q 667 493 667 403 l 667 788 l 592 788 l 592 971 l 1003 971 l 1003 792 l 928 792 l 928 454 q 826 92 928 207 q 529 -24 725 -24 q 208 97 318 -17 q 99 447 99 210 l 99 790 l 21 790 l 21 971 m 713 1035 l 519 1132 l 332 1035 l 263 1164 l 528 1329 l 790 1164 l 713 1035 z "},"Ü":{"ha":1024,"x_min":21,"x_max":1003,"o":"m 21 971 l 463 971 l 463 792 l 388 792 l 388 492 q 397 356 388 408 q 424 273 406 303 q 467 232 442 243 q 526 221 493 221 q 584 230 558 221 q 628 267 610 239 q 657 349 647 296 q 667 493 667 403 l 667 788 l 592 788 l 592 971 l 1003 971 l 1003 792 l 928 792 l 928 454 q 826 92 928 207 q 529 -24 725 -24 q 208 97 318 -17 q 99 447 99 210 l 99 790 l 21 790 l 21 971 m 561 1174 q 571 1222 561 1197 q 599 1268 581 1247 q 647 1302 618 1289 q 711 1315 675 1315 q 776 1302 747 1315 q 824 1268 804 1289 q 853 1222 843 1247 q 864 1174 864 1197 q 825 1074 864 1115 q 711 1033 786 1033 q 651 1046 678 1033 q 603 1078 624 1058 q 572 1124 583 1099 q 561 1174 561 1149 m 179 1174 q 189 1222 179 1197 q 217 1268 199 1247 q 265 1302 236 1289 q 329 1315 293 1315 q 394 1302 365 1315 q 442 1268 422 1289 q 472 1222 461 1247 q 482 1174 482 1197 q 443 1074 482 1115 q 329 1033 404 1033 q 269 1046 296 1033 q 222 1078 242 1058 q 190 1124 201 1099 q 179 1174 179 1149 z "},"Ý":{"ha":929,"x_min":-14,"x_max":943,"o":"m 518 533 q 526 558 519 543 q 540 590 532 574 q 556 624 547 607 q 569 653 564 640 l 646 793 l 569 793 l 569 971 l 943 971 l 943 793 l 868 793 l 611 342 l 611 181 l 689 181 l 689 0 l 244 0 l 244 181 l 324 181 l 324 344 l 54 793 l -14 793 l -14 971 l 461 971 l 461 793 l 389 793 l 469 646 q 478 621 472 636 q 492 589 485 606 q 504 557 499 572 q 513 533 510 542 l 518 533 m 803 1250 l 593 1053 l 419 1053 l 528 1250 l 803 1250 z "},"Þ":{"ha":889,"x_min":25,"x_max":868,"o":"m 25 971 l 486 971 l 486 788 l 400 788 l 400 739 l 485 739 q 681 720 606 739 q 797 667 756 701 q 853 584 839 632 q 868 476 868 536 q 839 360 868 407 q 760 285 810 314 q 644 243 710 256 q 503 231 578 231 l 400 231 l 400 185 l 486 185 l 486 0 l 25 0 l 25 185 l 113 185 l 113 788 l 25 788 l 25 971 m 400 558 l 400 381 l 460 381 q 515 383 490 381 q 558 396 540 386 q 586 422 576 406 q 596 467 596 439 q 587 515 596 497 q 561 543 578 533 q 521 556 544 553 q 467 558 497 558 l 400 558 z "},"ß":{"ha":924,"x_min":35,"x_max":885,"o":"m 486 183 q 541 197 515 183 q 585 233 567 211 q 615 281 604 254 q 626 335 626 308 q 616 390 626 363 q 588 438 606 417 q 546 472 569 458 q 496 485 522 485 l 493 650 q 577 674 543 650 q 611 746 611 699 q 599 808 611 782 q 565 852 586 835 q 515 878 543 869 q 458 886 488 886 q 431 882 447 886 q 401 868 415 878 q 376 844 386 858 q 367 813 367 831 l 367 182 l 429 182 l 429 0 l 36 0 l 36 182 l 92 182 l 92 514 l 35 514 l 35 694 l 92 694 l 92 813 q 114 885 92 842 q 181 969 136 929 q 294 1038 225 1010 q 457 1067 363 1067 q 609 1049 539 1067 q 731 996 679 1032 q 813 904 783 960 q 843 772 843 849 q 832 708 843 736 q 805 659 821 681 q 772 622 789 638 q 740 596 754 606 q 781 558 757 583 q 828 498 806 533 q 868 419 851 463 q 885 329 885 376 q 849 188 885 251 q 755 78 813 124 q 626 7 697 32 q 485 -18 556 -18 l 486 183 z "},"à":{"ha":833,"x_min":21,"x_max":813,"o":"m 50 636 q 103 665 71 649 q 174 698 135 682 q 259 724 214 714 q 353 735 304 735 q 482 722 415 735 q 603 676 549 708 q 694 588 658 643 q 729 449 729 532 l 729 178 l 813 178 l 813 0 l 515 0 l 482 63 q 438 19 463 36 q 388 -8 414 1 q 338 -22 363 -18 q 294 -26 313 -26 q 196 -12 244 -26 q 108 29 147 1 q 45 101 69 57 q 21 206 21 144 q 44 311 21 264 q 106 392 67 358 q 199 443 146 425 q 310 461 251 461 q 365 455 340 461 q 406 440 389 449 q 434 424 424 432 q 447 413 444 415 l 447 461 q 410 524 447 508 q 315 539 372 539 q 201 518 253 539 q 108 475 149 497 l 50 636 m 358 154 q 414 169 390 154 q 447 200 438 185 l 447 253 q 441 262 446 256 q 426 275 436 268 q 402 288 417 282 q 365 293 388 293 q 304 272 324 293 q 285 219 285 251 q 306 172 285 190 q 358 154 326 154 m 315 974 l 424 776 l 250 776 l 40 974 l 315 974 z "},"á":{"ha":833,"x_min":21,"x_max":813,"o":"m 50 636 q 103 665 71 649 q 174 698 135 682 q 259 724 214 714 q 353 735 304 735 q 482 722 415 735 q 603 676 549 708 q 694 588 658 643 q 729 449 729 532 l 729 178 l 813 178 l 813 0 l 515 0 l 482 63 q 438 19 463 36 q 388 -8 414 1 q 338 -22 363 -18 q 294 -26 313 -26 q 196 -12 244 -26 q 108 29 147 1 q 45 101 69 57 q 21 206 21 144 q 44 311 21 264 q 106 392 67 358 q 199 443 146 425 q 310 461 251 461 q 365 455 340 461 q 406 440 389 449 q 434 424 424 432 q 447 413 444 415 l 447 461 q 410 524 447 508 q 315 539 372 539 q 201 518 253 539 q 108 475 149 497 l 50 636 m 358 154 q 414 169 390 154 q 447 200 438 185 l 447 253 q 441 262 446 256 q 426 275 436 268 q 402 288 417 282 q 365 293 388 293 q 304 272 324 293 q 285 219 285 251 q 306 172 285 190 q 358 154 326 154 m 671 974 l 461 776 l 288 776 l 396 974 l 671 974 z "},"â":{"ha":833,"x_min":21,"x_max":813,"o":"m 50 636 q 103 665 71 649 q 174 698 135 682 q 259 724 214 714 q 353 735 304 735 q 482 722 415 735 q 603 676 549 708 q 694 588 658 643 q 729 449 729 532 l 729 178 l 813 178 l 813 0 l 515 0 l 482 63 q 438 19 463 36 q 388 -8 414 1 q 338 -22 363 -18 q 294 -26 313 -26 q 196 -12 244 -26 q 108 29 147 1 q 45 101 69 57 q 21 206 21 144 q 44 311 21 264 q 106 392 67 358 q 199 443 146 425 q 310 461 251 461 q 365 455 340 461 q 406 440 389 449 q 434 424 424 432 q 447 413 444 415 l 447 461 q 410 524 447 508 q 315 539 372 539 q 201 518 253 539 q 108 475 149 497 l 50 636 m 358 154 q 414 169 390 154 q 447 200 438 185 l 447 253 q 441 262 446 256 q 426 275 436 268 q 402 288 417 282 q 365 293 388 293 q 304 272 324 293 q 285 219 285 251 q 306 172 285 190 q 358 154 326 154 m 579 758 l 386 856 l 199 758 l 129 888 l 394 1053 l 657 888 l 579 758 z "},"ã":{"ha":833,"x_min":21,"x_max":813,"o":"m 50 636 q 103 665 71 649 q 174 698 135 682 q 259 724 214 714 q 353 735 304 735 q 482 722 415 735 q 603 676 549 708 q 694 588 658 643 q 729 449 729 532 l 729 178 l 813 178 l 813 0 l 515 0 l 482 63 q 438 19 463 36 q 388 -8 414 1 q 338 -22 363 -18 q 294 -26 313 -26 q 196 -12 244 -26 q 108 29 147 1 q 45 101 69 57 q 21 206 21 144 q 44 311 21 264 q 106 392 67 358 q 199 443 146 425 q 310 461 251 461 q 365 455 340 461 q 406 440 389 449 q 434 424 424 432 q 447 413 444 415 l 447 461 q 410 524 447 508 q 315 539 372 539 q 201 518 253 539 q 108 475 149 497 l 50 636 m 358 154 q 414 169 390 154 q 447 200 438 185 l 447 253 q 441 262 446 256 q 426 275 436 268 q 402 288 417 282 q 365 293 388 293 q 304 272 324 293 q 285 219 285 251 q 306 172 285 190 q 358 154 326 154 m 658 839 q 588 782 628 801 q 488 763 547 763 q 434 771 456 763 q 393 788 413 779 q 353 806 374 797 q 301 814 332 814 q 204 772 246 814 l 143 911 q 214 972 175 951 q 306 993 253 993 q 361 985 339 993 q 403 969 383 978 q 444 952 424 960 q 494 944 465 944 q 553 957 525 944 q 596 985 582 969 l 658 839 z "},"ä":{"ha":833,"x_min":21,"x_max":813,"o":"m 50 636 q 103 665 71 649 q 174 698 135 682 q 259 724 214 714 q 353 735 304 735 q 482 722 415 735 q 603 676 549 708 q 694 588 658 643 q 729 449 729 532 l 729 178 l 813 178 l 813 0 l 515 0 l 482 63 q 438 19 463 36 q 388 -8 414 1 q 338 -22 363 -18 q 294 -26 313 -26 q 196 -12 244 -26 q 108 29 147 1 q 45 101 69 57 q 21 206 21 144 q 44 311 21 264 q 106 392 67 358 q 199 443 146 425 q 310 461 251 461 q 365 455 340 461 q 406 440 389 449 q 434 424 424 432 q 447 413 444 415 l 447 461 q 410 524 447 508 q 315 539 372 539 q 201 518 253 539 q 108 475 149 497 l 50 636 m 358 154 q 414 169 390 154 q 447 200 438 185 l 447 253 q 441 262 446 256 q 426 275 436 268 q 402 288 417 282 q 365 293 388 293 q 304 272 324 293 q 285 219 285 251 q 306 172 285 190 q 358 154 326 154 m 456 897 q 465 946 456 921 q 494 992 475 971 q 541 1026 513 1013 q 606 1039 569 1039 q 670 1026 642 1039 q 718 992 699 1013 q 748 946 738 971 q 758 897 758 921 q 719 798 758 839 q 606 757 681 757 q 545 769 572 757 q 498 802 518 782 q 467 847 478 822 q 456 897 456 872 m 74 897 q 83 946 74 921 q 112 992 93 971 q 159 1026 131 1013 q 224 1039 188 1039 q 288 1026 260 1039 q 336 992 317 1013 q 366 946 356 971 q 376 897 376 921 q 338 798 376 839 q 224 757 299 757 q 163 769 190 757 q 116 802 136 782 q 85 847 96 822 q 74 897 74 872 z "},"å":{"ha":833,"x_min":21,"x_max":813,"o":"m 443 901 q 426 943 443 926 q 389 960 410 960 q 344 943 361 960 q 328 901 328 926 q 344 860 328 876 q 385 843 361 843 q 427 860 411 843 q 443 901 443 876 m 547 901 q 534 844 547 871 q 499 798 521 818 q 447 766 476 778 q 388 754 418 754 q 323 766 353 754 q 271 798 293 778 q 236 844 249 818 q 224 901 224 871 q 237 958 224 932 q 273 1005 250 985 q 325 1037 296 1025 q 388 1049 354 1049 q 449 1037 421 1049 q 500 1005 478 1025 q 535 958 522 985 q 547 901 547 932 m 50 636 q 103 665 71 649 q 174 698 135 682 q 259 724 214 714 q 353 735 304 735 q 482 722 415 735 q 603 676 549 708 q 694 588 658 643 q 729 449 729 532 l 729 178 l 813 178 l 813 0 l 515 0 l 482 63 q 438 19 463 36 q 388 -8 414 1 q 338 -22 363 -18 q 294 -26 313 -26 q 196 -12 244 -26 q 108 29 147 1 q 45 101 69 57 q 21 206 21 144 q 44 311 21 264 q 106 392 67 358 q 199 443 146 425 q 310 461 251 461 q 365 455 340 461 q 406 440 389 449 q 434 424 424 432 q 447 413 444 415 l 447 461 q 410 524 447 508 q 315 539 372 539 q 201 518 253 539 q 108 475 149 497 l 50 636 m 358 154 q 414 169 390 154 q 447 200 438 185 l 447 253 q 441 262 446 256 q 426 275 436 268 q 402 288 417 282 q 365 293 388 293 q 304 272 324 293 q 285 219 285 251 q 306 172 285 190 q 358 154 326 154 z "},"æ":{"ha":1257,"x_min":21,"x_max":1189,"o":"m 1189 96 q 1025 2 1111 29 q 831 -25 939 -25 q 676 5 753 -25 q 546 100 600 35 q 498 51 526 74 q 437 10 469 28 q 367 -17 404 -7 q 294 -26 331 -26 q 196 -12 244 -26 q 108 29 147 1 q 45 101 69 57 q 21 206 21 144 q 44 311 21 264 q 106 392 67 358 q 199 443 146 425 q 310 461 251 461 q 365 455 340 461 q 406 440 389 449 q 434 424 424 432 q 447 413 444 415 l 447 461 q 410 524 447 508 q 315 539 372 539 q 201 518 253 539 q 108 475 149 497 l 50 636 q 103 665 71 649 q 174 698 135 682 q 259 724 214 714 q 353 735 304 735 q 497 718 424 735 q 628 660 569 701 q 725 700 672 686 q 838 714 778 714 q 990 689 924 714 q 1100 619 1056 664 q 1167 515 1144 575 q 1189 383 1189 454 q 1185 328 1189 356 q 1172 278 1181 301 l 735 278 q 744 244 738 264 q 765 207 750 225 q 807 176 781 189 q 878 164 833 164 q 917 165 896 164 q 964 174 939 167 q 1017 194 989 181 q 1072 231 1044 207 l 1189 96 m 846 526 q 794 514 814 526 q 762 484 774 501 q 745 447 750 467 q 739 415 740 428 l 949 415 q 944 455 949 435 q 930 491 940 475 q 899 517 919 507 q 846 526 879 526 m 358 154 q 414 169 390 154 q 447 200 438 185 l 447 253 q 441 262 446 256 q 426 275 436 268 q 402 288 417 282 q 365 293 388 293 q 304 272 324 293 q 285 219 285 251 q 306 172 285 190 q 358 154 326 154 z "},"ç":{"ha":738,"x_min":1,"x_max":724,"o":"m 514 -161 q 505 -212 514 -186 q 476 -258 496 -237 q 425 -290 457 -278 q 346 -303 393 -303 q 280 -294 314 -303 q 224 -275 246 -286 l 268 -189 q 335 -204 301 -204 q 381 -171 381 -204 q 335 -137 381 -137 q 313 -138 322 -137 q 296 -140 303 -139 l 282 -117 l 314 -14 q 192 22 249 -6 q 92 96 135 50 q 26 206 50 142 q 1 351 1 269 q 30 510 1 443 q 106 622 58 578 q 215 686 153 665 q 343 707 276 707 q 406 699 378 707 q 456 678 435 690 q 493 651 478 665 q 517 628 508 638 l 540 694 l 704 694 l 704 381 l 500 381 q 494 431 499 406 q 479 478 489 457 q 453 513 469 500 q 413 526 436 526 q 359 511 382 526 q 321 471 336 496 q 298 414 306 446 q 290 349 290 382 q 329 231 290 278 q 438 185 368 185 q 529 206 490 185 q 601 264 568 228 l 724 122 q 602 33 679 74 q 426 -17 525 -8 l 407 -60 q 485 -92 457 -64 q 514 -161 514 -121 z "},"è":{"ha":753,"x_min":7,"x_max":732,"o":"m 732 96 q 568 2 654 29 q 374 -25 482 -25 q 243 -3 308 -25 q 126 63 178 18 q 40 180 74 108 q 7 351 7 251 q 36 503 7 436 q 115 618 65 571 q 233 690 165 665 q 381 714 301 714 q 533 689 467 714 q 643 619 599 664 q 710 515 688 575 q 732 383 732 454 q 728 328 732 356 q 715 278 724 301 l 278 278 q 287 244 281 264 q 308 207 293 225 q 350 176 324 189 q 421 164 376 164 q 460 165 439 164 q 507 174 482 167 q 560 194 532 181 q 615 231 588 207 l 732 96 m 389 526 q 337 514 357 526 q 305 484 317 501 q 288 447 293 467 q 282 415 283 428 l 492 415 q 488 455 492 435 q 473 491 483 475 q 442 517 463 507 q 389 526 422 526 m 375 974 l 483 776 l 310 776 l 100 974 l 375 974 z "},"é":{"ha":753,"x_min":7,"x_max":732,"o":"m 732 96 q 568 2 654 29 q 374 -25 482 -25 q 243 -3 308 -25 q 126 63 178 18 q 40 180 74 108 q 7 351 7 251 q 36 503 7 436 q 115 618 65 571 q 233 690 165 665 q 381 714 301 714 q 533 689 467 714 q 643 619 599 664 q 710 515 688 575 q 732 383 732 454 q 728 328 732 356 q 715 278 724 301 l 278 278 q 287 244 281 264 q 308 207 293 225 q 350 176 324 189 q 421 164 376 164 q 460 165 439 164 q 507 174 482 167 q 560 194 532 181 q 615 231 588 207 l 732 96 m 389 526 q 337 514 357 526 q 305 484 317 501 q 288 447 293 467 q 282 415 283 428 l 492 415 q 488 455 492 435 q 473 491 483 475 q 442 517 463 507 q 389 526 422 526 m 631 974 l 421 776 l 247 776 l 356 974 l 631 974 z "},"ê":{"ha":753,"x_min":7,"x_max":732,"o":"m 732 96 q 568 2 654 29 q 374 -25 482 -25 q 243 -3 308 -25 q 126 63 178 18 q 40 180 74 108 q 7 351 7 251 q 36 503 7 436 q 115 618 65 571 q 233 690 165 665 q 381 714 301 714 q 533 689 467 714 q 643 619 599 664 q 710 515 688 575 q 732 383 732 454 q 728 328 732 356 q 715 278 724 301 l 278 278 q 287 244 281 264 q 308 207 293 225 q 350 176 324 189 q 421 164 376 164 q 460 165 439 164 q 507 174 482 167 q 560 194 532 181 q 615 231 588 207 l 732 96 m 389 526 q 337 514 357 526 q 305 484 317 501 q 288 447 293 467 q 282 415 283 428 l 492 415 q 488 455 492 435 q 473 491 483 475 q 442 517 463 507 q 389 526 422 526 m 578 753 l 385 850 l 197 753 l 128 882 l 393 1047 l 656 882 l 578 753 z "},"ë":{"ha":753,"x_min":7,"x_max":732,"o":"m 732 96 q 568 2 654 29 q 374 -25 482 -25 q 243 -3 308 -25 q 126 63 178 18 q 40 180 74 108 q 7 351 7 251 q 36 503 7 436 q 115 618 65 571 q 233 690 165 665 q 381 714 301 714 q 533 689 467 714 q 643 619 599 664 q 710 515 688 575 q 732 383 732 454 q 728 328 732 356 q 715 278 724 301 l 278 278 q 287 244 281 264 q 308 207 293 225 q 350 176 324 189 q 421 164 376 164 q 460 165 439 164 q 507 174 482 167 q 560 194 532 181 q 615 231 588 207 l 732 96 m 389 526 q 337 514 357 526 q 305 484 317 501 q 288 447 293 467 q 282 415 283 428 l 492 415 q 488 455 492 435 q 473 491 483 475 q 442 517 463 507 q 389 526 422 526 m 417 897 q 426 946 417 921 q 455 992 436 971 q 502 1026 474 1013 q 567 1039 531 1039 q 631 1026 603 1039 q 679 992 660 1013 q 709 946 699 971 q 719 897 719 921 q 681 798 719 839 q 567 757 642 757 q 506 769 533 757 q 459 802 479 782 q 428 847 439 822 q 417 897 417 872 m 35 897 q 44 946 35 921 q 73 992 54 971 q 120 1026 92 1013 q 185 1039 149 1039 q 249 1026 221 1039 q 297 992 278 1013 q 327 946 317 971 q 338 897 338 921 q 299 798 338 839 q 185 757 260 757 q 124 769 151 757 q 77 802 97 782 q 46 847 57 822 q 35 897 35 872 z "},"ì":{"ha":458,"x_min":35,"x_max":424,"o":"m 424 0 l 35 0 l 35 182 l 93 182 l 93 514 l 35 514 l 35 694 l 357 694 l 357 182 l 424 182 l 424 0 m 313 974 l 424 776 l 247 776 l 38 974 l 313 974 z "},"í":{"ha":458,"x_min":35,"x_max":424,"o":"m 424 0 l 35 0 l 35 182 l 93 182 l 93 514 l 35 514 l 35 694 l 357 694 l 357 182 l 424 182 l 424 0 m 421 974 l 211 776 l 38 776 l 146 974 l 421 974 z "},"î":{"ha":458,"x_min":-71,"x_max":457,"o":"m 424 0 l 35 0 l 35 182 l 93 182 l 93 514 l 35 514 l 35 694 l 357 694 l 357 182 l 424 182 l 424 0 m 379 758 l 186 856 l -1 758 l -71 888 l 194 1053 l 457 888 l 379 758 z "},"ï":{"ha":458,"x_min":-112,"x_max":572,"o":"m 424 0 l 35 0 l 35 182 l 93 182 l 93 514 l 35 514 l 35 694 l 357 694 l 357 182 l 424 182 l 424 0 m 269 897 q 279 946 269 921 q 308 992 289 971 q 355 1026 326 1013 q 419 1039 383 1039 q 484 1026 456 1039 q 532 992 513 1013 q 562 946 551 971 q 572 897 572 921 q 533 798 572 839 q 419 757 494 757 q 359 769 386 757 q 312 802 332 782 q 281 847 292 822 q 269 897 269 872 m -112 897 q -103 946 -112 921 q -74 992 -93 971 q -27 1026 -56 1013 q 38 1039 1 1039 q 102 1026 74 1039 q 150 992 131 1013 q 180 946 169 971 q 190 897 190 921 q 151 798 190 839 q 38 757 113 757 q -23 769 4 757 q -70 802 -50 782 q -101 847 -90 822 q -112 897 -112 872 z "},"ð":{"ha":793,"x_min":15,"x_max":782,"o":"m 397 974 l 467 882 l 675 882 l 675 764 l 558 764 l 686 597 q 756 486 731 546 q 782 339 782 426 q 752 187 782 253 q 671 75 722 121 q 551 6 619 29 q 403 -18 482 -18 q 258 5 328 -18 q 133 74 188 28 q 47 189 79 119 q 15 350 15 258 q 48 503 15 436 q 133 617 81 571 q 255 687 186 663 q 394 711 324 711 l 339 764 l 104 764 l 104 882 l 217 882 l 122 974 l 397 974 m 403 160 q 442 174 425 160 q 472 213 460 188 q 491 272 485 238 q 497 344 497 306 q 490 417 497 383 q 471 476 483 451 q 440 516 458 501 q 396 531 421 531 q 358 517 375 531 q 328 478 340 503 q 308 419 315 453 q 300 349 300 386 q 329 211 300 263 q 403 160 358 160 z "},"ñ":{"ha":899,"x_min":35,"x_max":878,"o":"m 463 0 l 35 0 l 35 182 l 93 182 l 93 514 l 35 514 l 35 694 l 331 694 l 363 608 q 447 688 399 657 q 561 719 494 719 q 691 692 642 719 q 767 622 740 665 q 803 523 794 578 q 813 414 813 468 l 813 182 l 878 182 l 878 0 l 528 0 l 528 379 q 527 419 528 397 q 519 461 526 442 q 497 494 513 481 q 450 508 481 508 q 406 497 424 508 q 379 466 389 485 q 366 424 369 447 q 363 379 363 401 l 363 182 l 463 182 l 463 0 m 681 842 q 610 785 650 804 q 510 765 569 765 q 456 774 478 765 q 415 791 435 782 q 375 808 396 800 q 324 817 354 817 q 226 775 268 817 l 165 914 q 236 975 197 954 q 328 996 275 996 q 383 988 361 996 q 426 972 406 981 q 467 955 446 963 q 517 947 488 947 q 576 960 547 947 q 618 988 604 972 l 681 842 z "},"ò":{"ha":797,"x_min":15,"x_max":782,"o":"m 403 -18 q 258 5 328 -18 q 133 74 188 28 q 47 189 79 119 q 15 350 15 258 q 48 505 15 438 q 134 618 81 572 q 256 688 188 664 q 396 711 325 711 q 549 685 478 711 q 672 612 619 660 q 753 495 724 564 q 782 339 782 426 q 752 187 782 253 q 671 75 722 121 q 551 6 619 29 q 403 -18 482 -18 m 403 160 q 442 174 425 160 q 472 213 460 188 q 491 272 485 238 q 497 344 497 306 q 490 417 497 383 q 471 476 483 451 q 440 516 458 501 q 396 531 421 531 q 358 517 375 531 q 328 478 340 503 q 308 419 315 453 q 300 349 300 386 q 329 211 300 263 q 403 160 358 160 m 397 974 l 506 776 l 332 776 l 122 974 l 397 974 z "},"ó":{"ha":797,"x_min":15,"x_max":782,"o":"m 403 -18 q 258 5 328 -18 q 133 74 188 28 q 47 189 79 119 q 15 350 15 258 q 48 505 15 438 q 134 618 81 572 q 256 688 188 664 q 396 711 325 711 q 549 685 478 711 q 672 612 619 660 q 753 495 724 564 q 782 339 782 426 q 752 187 782 253 q 671 75 722 121 q 551 6 619 29 q 403 -18 482 -18 m 403 160 q 442 174 425 160 q 472 213 460 188 q 491 272 485 238 q 497 344 497 306 q 490 417 497 383 q 471 476 483 451 q 440 516 458 501 q 396 531 421 531 q 358 517 375 531 q 328 478 340 503 q 308 419 315 453 q 300 349 300 386 q 329 211 300 263 q 403 160 358 160 m 653 974 l 443 776 l 269 776 l 378 974 l 653 974 z "},"ô":{"ha":797,"x_min":15,"x_max":782,"o":"m 403 -18 q 258 5 328 -18 q 133 74 188 28 q 47 189 79 119 q 15 350 15 258 q 48 505 15 438 q 134 618 81 572 q 256 688 188 664 q 396 711 325 711 q 549 685 478 711 q 672 612 619 660 q 753 495 724 564 q 782 339 782 426 q 752 187 782 253 q 671 75 722 121 q 551 6 619 29 q 403 -18 482 -18 m 403 160 q 442 174 425 160 q 472 213 460 188 q 491 272 485 238 q 497 344 497 306 q 490 417 497 383 q 471 476 483 451 q 440 516 458 501 q 396 531 421 531 q 358 517 375 531 q 328 478 340 503 q 308 419 315 453 q 300 349 300 386 q 329 211 300 263 q 403 160 358 160 m 561 758 l 368 856 l 181 758 l 111 888 l 376 1053 l 639 888 l 561 758 z "},"õ":{"ha":797,"x_min":15,"x_max":782,"o":"m 403 -18 q 258 5 328 -18 q 133 74 188 28 q 47 189 79 119 q 15 350 15 258 q 48 505 15 438 q 134 618 81 572 q 256 688 188 664 q 396 711 325 711 q 549 685 478 711 q 672 612 619 660 q 753 495 724 564 q 782 339 782 426 q 752 187 782 253 q 671 75 722 121 q 551 6 619 29 q 403 -18 482 -18 m 403 160 q 442 174 425 160 q 472 213 460 188 q 491 272 485 238 q 497 344 497 306 q 490 417 497 383 q 471 476 483 451 q 440 516 458 501 q 396 531 421 531 q 358 517 375 531 q 328 478 340 503 q 308 419 315 453 q 300 349 300 386 q 329 211 300 263 q 403 160 358 160 m 656 842 q 585 785 625 804 q 485 765 544 765 q 431 774 453 765 q 390 791 410 782 q 350 808 371 800 q 299 817 329 817 q 201 775 243 817 l 140 914 q 211 975 172 954 q 303 996 250 996 q 358 988 336 996 q 401 972 381 981 q 442 955 421 963 q 492 947 463 947 q 551 960 522 947 q 593 988 579 972 l 656 842 z "},"ö":{"ha":797,"x_min":15,"x_max":782,"o":"m 403 -18 q 258 5 328 -18 q 133 74 188 28 q 47 189 79 119 q 15 350 15 258 q 48 505 15 438 q 134 618 81 572 q 256 688 188 664 q 396 711 325 711 q 549 685 478 711 q 672 612 619 660 q 753 495 724 564 q 782 339 782 426 q 752 187 782 253 q 671 75 722 121 q 551 6 619 29 q 403 -18 482 -18 m 403 160 q 442 174 425 160 q 472 213 460 188 q 491 272 485 238 q 497 344 497 306 q 490 417 497 383 q 471 476 483 451 q 440 516 458 501 q 396 531 421 531 q 358 517 375 531 q 328 478 340 503 q 308 419 315 453 q 300 349 300 386 q 329 211 300 263 q 403 160 358 160 m 439 897 q 449 946 439 921 q 477 992 458 971 q 524 1026 496 1013 q 589 1039 553 1039 q 653 1026 625 1039 q 701 992 682 1013 q 731 946 721 971 q 742 897 742 921 q 703 798 742 839 q 589 757 664 757 q 528 769 556 757 q 481 802 501 782 q 450 847 461 822 q 439 897 439 872 m 57 897 q 67 946 57 921 q 95 992 76 971 q 142 1026 114 1013 q 207 1039 171 1039 q 272 1026 243 1039 q 319 992 300 1013 q 349 946 339 971 q 360 897 360 921 q 321 798 360 839 q 207 757 282 757 q 147 769 174 757 q 99 802 119 782 q 68 847 79 822 q 57 897 57 872 z "},"÷":{"ha":728,"x_min":81,"x_max":653,"o":"m 215 136 q 225 190 215 163 q 255 240 235 217 q 303 277 275 263 q 369 292 332 292 q 436 277 407 292 q 485 240 465 263 q 516 190 506 217 q 526 136 526 163 q 515 78 526 106 q 483 32 504 51 q 433 1 463 13 q 369 -11 404 -11 q 308 1 336 -11 q 258 35 279 14 q 226 82 238 56 q 215 136 215 108 m 215 721 q 225 774 215 747 q 255 824 235 801 q 303 862 275 847 q 369 876 332 876 q 436 862 407 876 q 485 824 465 847 q 516 774 506 801 q 526 721 526 747 q 485 616 526 658 q 369 574 444 574 q 309 586 338 574 q 260 619 281 599 q 227 667 239 640 q 215 721 215 693 m 81 524 l 653 524 l 653 339 l 81 339 l 81 524 z "},"ø":{"ha":797,"x_min":15,"x_max":782,"o":"m 115 89 q 41 199 67 135 q 15 350 15 264 q 48 505 15 438 q 134 618 81 572 q 256 688 188 664 q 396 711 325 711 q 489 701 444 711 q 574 675 533 690 l 590 696 l 754 696 l 681 603 q 755 489 728 556 q 782 339 782 422 q 752 187 782 253 q 671 75 722 121 q 551 6 619 29 q 403 -18 482 -18 q 224 18 308 -18 l 210 0 l 46 0 l 115 89 m 403 160 q 442 174 425 160 q 472 213 460 188 q 491 272 485 238 q 497 344 497 306 q 497 355 497 350 q 496 367 497 360 l 351 181 q 403 160 374 160 m 300 325 l 444 510 q 421 524 433 518 q 396 531 408 531 q 358 517 375 531 q 328 478 340 503 q 308 419 315 453 q 300 349 300 386 l 300 325 z "},"ù":{"ha":876,"x_min":21,"x_max":856,"o":"m 21 694 l 357 694 l 357 360 q 373 227 357 269 q 432 185 389 185 q 494 214 468 185 q 519 290 519 243 l 519 511 l 428 511 l 428 694 l 788 694 l 788 185 l 856 185 l 856 0 l 593 0 l 556 88 q 528 56 544 75 q 490 21 513 38 q 435 -8 467 4 q 358 -19 403 -19 q 226 1 279 -19 q 140 64 172 22 q 93 169 107 106 q 79 319 79 233 l 79 511 l 21 511 l 21 694 m 436 974 l 544 776 l 371 776 l 161 974 l 436 974 z "},"ú":{"ha":876,"x_min":21,"x_max":856,"o":"m 21 694 l 357 694 l 357 360 q 373 227 357 269 q 432 185 389 185 q 494 214 468 185 q 519 290 519 243 l 519 511 l 428 511 l 428 694 l 788 694 l 788 185 l 856 185 l 856 0 l 593 0 l 556 88 q 528 56 544 75 q 490 21 513 38 q 435 -8 467 4 q 358 -19 403 -19 q 226 1 279 -19 q 140 64 172 22 q 93 169 107 106 q 79 319 79 233 l 79 511 l 21 511 l 21 694 m 692 974 l 482 776 l 308 776 l 417 974 l 692 974 z "},"û":{"ha":876,"x_min":21,"x_max":856,"o":"m 21 694 l 357 694 l 357 360 q 373 227 357 269 q 432 185 389 185 q 494 214 468 185 q 519 290 519 243 l 519 511 l 428 511 l 428 694 l 788 694 l 788 185 l 856 185 l 856 0 l 593 0 l 556 88 q 528 56 544 75 q 490 21 513 38 q 435 -8 467 4 q 358 -19 403 -19 q 226 1 279 -19 q 140 64 172 22 q 93 169 107 106 q 79 319 79 233 l 79 511 l 21 511 l 21 694 m 601 758 l 408 856 l 221 758 l 151 888 l 417 1053 l 679 888 l 601 758 z "},"ü":{"ha":876,"x_min":21,"x_max":856,"o":"m 21 694 l 357 694 l 357 360 q 373 227 357 269 q 432 185 389 185 q 494 214 468 185 q 519 290 519 243 l 519 511 l 428 511 l 428 694 l 788 694 l 788 185 l 856 185 l 856 0 l 593 0 l 556 88 q 528 56 544 75 q 490 21 513 38 q 435 -8 467 4 q 358 -19 403 -19 q 226 1 279 -19 q 140 64 172 22 q 93 169 107 106 q 79 319 79 233 l 79 511 l 21 511 l 21 694 m 478 897 q 488 946 478 921 q 516 992 497 971 q 563 1026 535 1013 q 628 1039 592 1039 q 692 1026 664 1039 q 740 992 721 1013 q 770 946 760 971 q 781 897 781 921 q 742 798 781 839 q 628 757 703 757 q 567 769 594 757 q 520 802 540 782 q 489 847 500 822 q 478 897 478 872 m 96 897 q 106 946 96 921 q 134 992 115 971 q 181 1026 153 1013 q 246 1039 210 1039 q 310 1026 282 1039 q 358 992 339 1013 q 388 946 378 971 q 399 897 399 921 q 360 798 399 839 q 246 757 321 757 q 185 769 213 757 q 138 802 158 782 q 107 847 118 822 q 96 897 96 872 z "},"ý":{"ha":806,"x_min":-12,"x_max":819,"o":"m 531 518 l 467 518 l 467 694 l 819 694 l 819 522 l 753 522 l 489 -119 q 453 -187 474 -153 q 400 -251 433 -222 q 316 -297 367 -279 q 190 -315 265 -315 q 95 -293 136 -312 q 22 -246 54 -274 l 126 -82 q 170 -115 146 -100 q 218 -131 194 -131 q 266 -107 246 -131 q 296 -56 286 -83 l 315 3 l 44 517 l -12 517 l -12 694 l 415 694 l 415 518 l 350 518 l 440 301 l 531 518 m 657 974 l 440 776 l 274 776 l 382 974 l 657 974 z "},"þ":{"ha":886,"x_min":35,"x_max":872,"o":"m 35 -101 l 93 -101 l 93 863 l 36 863 l 36 1042 l 358 1042 l 358 632 l 376 646 q 401 663 386 653 q 438 683 417 674 q 486 699 460 692 q 544 706 513 706 q 687 676 625 706 q 790 597 749 647 q 851 481 831 547 q 872 342 872 415 q 848 192 872 258 q 781 81 824 126 q 681 10 739 35 q 556 -15 622 -15 q 480 -8 513 -15 q 426 8 447 -1 q 392 27 404 18 q 375 39 379 36 l 375 -101 l 450 -101 l 450 -283 l 35 -283 l 35 -101 m 574 339 q 567 401 574 369 q 547 456 560 432 q 515 494 533 479 q 474 510 496 510 q 405 467 435 510 q 375 349 375 424 q 382 276 375 310 q 402 218 389 243 q 434 179 415 193 q 475 165 453 165 q 547 213 519 165 q 574 339 574 260 z "},"ÿ":{"ha":806,"x_min":-12,"x_max":819,"o":"m 531 518 l 467 518 l 467 694 l 819 694 l 819 522 l 753 522 l 489 -119 q 453 -187 474 -153 q 400 -251 433 -222 q 316 -297 367 -279 q 190 -315 265 -315 q 95 -293 136 -312 q 22 -246 54 -274 l 126 -82 q 170 -115 146 -100 q 218 -131 194 -131 q 266 -107 246 -131 q 296 -56 286 -83 l 315 3 l 44 517 l -12 517 l -12 694 l 415 694 l 415 518 l 350 518 l 440 301 l 531 518 m 443 897 q 453 946 443 921 q 481 992 463 971 q 528 1026 500 1013 q 593 1039 557 1039 q 658 1026 629 1039 q 706 992 686 1013 q 735 946 725 971 q 746 897 746 921 q 707 798 746 839 q 593 757 668 757 q 533 769 560 757 q 485 802 506 782 q 454 847 465 822 q 443 897 443 872 m 61 897 q 71 946 61 921 q 99 992 81 971 q 147 1026 118 1013 q 211 1039 175 1039 q 276 1026 247 1039 q 324 992 304 1013 q 353 946 343 971 q 364 897 364 921 q 325 798 364 839 q 211 757 286 757 q 151 769 178 757 q 103 802 124 782 q 72 847 83 822 q 61 897 61 872 z "},"Ā":{"ha":1143,"x_min":21,"x_max":1122,"o":"m 1122 0 l 565 0 l 565 182 l 697 182 l 668 276 l 383 276 l 354 182 l 463 182 l 463 0 l 21 0 l 21 182 l 115 182 l 303 792 l 246 792 l 246 971 l 779 971 l 1025 182 l 1122 182 l 1122 0 m 435 443 l 617 443 l 525 743 l 435 443 m 154 1246 l 929 1246 l 929 1061 l 154 1061 l 154 1246 z "},"ā":{"ha":833,"x_min":21,"x_max":813,"o":"m 50 636 q 103 665 71 649 q 174 698 135 682 q 259 724 214 714 q 353 735 304 735 q 482 722 415 735 q 603 676 549 708 q 694 588 658 643 q 729 449 729 532 l 729 178 l 813 178 l 813 0 l 515 0 l 482 63 q 438 19 463 36 q 388 -8 414 1 q 338 -22 363 -18 q 294 -26 313 -26 q 196 -12 244 -26 q 108 29 147 1 q 45 101 69 57 q 21 206 21 144 q 44 311 21 264 q 106 392 67 358 q 199 443 146 425 q 310 461 251 461 q 365 455 340 461 q 406 440 389 449 q 434 424 424 432 q 447 413 444 415 l 447 461 q 410 524 447 508 q 315 539 372 539 q 201 518 253 539 q 108 475 149 497 l 50 636 m 358 154 q 414 169 390 154 q 447 200 438 185 l 447 253 q 441 262 446 256 q 426 275 436 268 q 402 288 417 282 q 365 293 388 293 q 304 272 324 293 q 285 219 285 251 q 306 172 285 190 q 358 154 326 154 m 67 969 l 760 969 l 760 785 l 67 785 l 67 969 z "},"Ă":{"ha":1143,"x_min":21,"x_max":1122,"o":"m 1122 0 l 565 0 l 565 182 l 697 182 l 668 276 l 383 276 l 354 182 l 463 182 l 463 0 l 21 0 l 21 182 l 115 182 l 303 792 l 246 792 l 246 971 l 779 971 l 1025 182 l 1122 182 l 1122 0 m 435 443 l 617 443 l 525 743 l 435 443 m 833 1265 q 802 1167 826 1210 q 740 1094 778 1124 q 653 1050 703 1065 q 550 1035 604 1035 q 451 1049 500 1035 q 364 1091 403 1063 q 298 1163 325 1119 q 263 1263 271 1206 l 478 1263 q 504 1193 485 1218 q 550 1168 524 1168 q 594 1195 578 1168 q 618 1264 611 1222 l 833 1265 z "},"ă":{"ha":833,"x_min":21,"x_max":813,"o":"m 50 636 q 103 665 71 649 q 174 698 135 682 q 259 724 214 714 q 353 735 304 735 q 482 722 415 735 q 603 676 549 708 q 694 588 658 643 q 729 449 729 532 l 729 178 l 813 178 l 813 0 l 515 0 l 482 63 q 438 19 463 36 q 388 -8 414 1 q 338 -22 363 -18 q 294 -26 313 -26 q 196 -12 244 -26 q 108 29 147 1 q 45 101 69 57 q 21 206 21 144 q 44 311 21 264 q 106 392 67 358 q 199 443 146 425 q 310 461 251 461 q 365 455 340 461 q 406 440 389 449 q 434 424 424 432 q 447 413 444 415 l 447 461 q 410 524 447 508 q 315 539 372 539 q 201 518 253 539 q 108 475 149 497 l 50 636 m 358 154 q 414 169 390 154 q 447 200 438 185 l 447 253 q 441 262 446 256 q 426 275 436 268 q 402 288 417 282 q 365 293 388 293 q 304 272 324 293 q 285 219 285 251 q 306 172 285 190 q 358 154 326 154 m 668 1032 q 637 933 661 976 q 575 861 613 890 q 488 817 538 832 q 385 801 439 801 q 286 815 335 801 q 199 858 238 829 q 133 929 160 886 q 97 1029 106 972 l 313 1029 q 339 960 319 985 q 385 935 358 935 q 429 962 413 935 q 453 1031 446 989 l 668 1032 z "},"Ą":{"ha":1143,"x_min":21,"x_max":1122,"o":"m 1122 0 l 964 0 l 938 -15 q 897 -58 910 -31 q 883 -110 883 -85 q 907 -158 883 -139 q 956 -178 931 -178 q 1033 -165 986 -178 q 1122 -136 1079 -151 l 1122 -335 q 1043 -359 1090 -349 q 931 -369 996 -369 q 840 -360 883 -369 q 764 -326 797 -351 q 711 -258 731 -301 q 692 -143 692 -214 q 707 -56 692 -89 q 738 0 722 -22 l 565 0 l 565 182 l 697 182 l 668 276 l 383 276 l 354 182 l 463 182 l 463 0 l 21 0 l 21 182 l 115 182 l 303 792 l 246 792 l 246 971 l 779 971 l 1025 182 l 1122 182 l 1122 0 m 435 443 l 617 443 l 525 743 l 435 443 z "},"ą":{"ha":833,"x_min":21,"x_max":931,"o":"m 50 636 q 103 665 71 649 q 174 698 135 682 q 259 724 214 714 q 353 735 304 735 q 482 722 415 735 q 603 676 549 708 q 694 588 658 643 q 729 449 729 532 l 729 178 l 813 178 l 813 0 l 772 0 l 746 -15 q 705 -58 718 -31 q 692 -110 692 -85 q 715 -158 692 -139 q 764 -178 739 -178 q 841 -165 794 -178 q 931 -136 888 -151 l 931 -335 q 851 -359 899 -349 q 739 -369 804 -369 q 649 -360 692 -369 q 572 -326 606 -351 q 519 -258 539 -301 q 500 -143 500 -214 q 515 -56 500 -89 q 546 0 531 -22 l 515 0 l 482 63 q 438 19 463 36 q 388 -8 414 1 q 338 -22 363 -18 q 294 -26 313 -26 q 196 -12 244 -26 q 108 29 147 1 q 45 101 69 57 q 21 206 21 144 q 44 311 21 264 q 106 392 67 358 q 199 443 146 425 q 310 461 251 461 q 365 455 340 461 q 406 440 389 449 q 434 424 424 432 q 447 413 444 415 l 447 461 q 410 524 447 508 q 315 539 372 539 q 201 518 253 539 q 108 475 149 497 l 50 636 m 358 154 q 414 169 390 154 q 447 200 438 185 l 447 253 q 441 262 446 256 q 426 275 436 268 q 402 288 417 282 q 365 293 388 293 q 304 272 324 293 q 285 219 285 251 q 306 172 285 190 q 358 154 326 154 z "},"Ć":{"ha":953,"x_min":21,"x_max":932,"o":"m 932 174 q 851 99 896 135 q 754 37 807 64 q 640 -6 701 10 q 511 -22 579 -22 q 310 12 400 -22 q 156 110 219 46 q 56 267 92 175 q 21 476 21 360 q 61 691 21 596 q 164 852 101 786 q 301 953 226 918 q 443 988 375 988 q 533 975 494 988 q 597 947 571 963 q 638 915 624 931 q 657 893 653 899 l 689 971 l 907 971 l 907 576 l 658 576 q 647 642 657 610 q 620 698 638 674 q 576 737 603 722 q 511 751 549 751 q 443 730 474 751 q 391 671 413 708 q 358 583 369 633 q 346 476 346 533 q 359 378 346 425 q 398 294 372 331 q 461 237 424 258 q 549 215 499 215 q 631 235 592 215 q 699 278 669 254 q 747 324 728 303 q 769 351 765 346 l 932 174 m 732 1250 l 522 1053 l 349 1053 l 457 1250 l 732 1250 z "},"ć":{"ha":738,"x_min":1,"x_max":724,"o":"m 500 381 q 494 431 499 406 q 479 478 489 457 q 453 513 469 500 q 413 526 436 526 q 359 511 382 526 q 321 471 336 496 q 298 414 306 446 q 290 349 290 382 q 329 231 290 278 q 438 185 368 185 q 529 206 490 185 q 601 264 568 228 l 724 122 q 664 70 699 96 q 585 25 629 44 q 490 -7 542 6 q 383 -19 439 -19 q 238 3 307 -19 q 116 73 168 26 q 33 189 64 119 q 1 351 1 258 q 30 510 1 443 q 106 622 58 578 q 215 686 153 665 q 343 707 276 707 q 406 699 378 707 q 456 678 435 690 q 493 651 478 665 q 517 628 508 638 l 540 694 l 704 694 l 704 381 l 500 381 m 625 974 l 415 776 l 242 776 l 350 974 l 625 974 z "},"Ĉ":{"ha":953,"x_min":21,"x_max":932,"o":"m 932 174 q 851 99 896 135 q 754 37 807 64 q 640 -6 701 10 q 511 -22 579 -22 q 310 12 400 -22 q 156 110 219 46 q 56 267 92 175 q 21 476 21 360 q 61 691 21 596 q 164 852 101 786 q 301 953 226 918 q 443 988 375 988 q 533 975 494 988 q 597 947 571 963 q 638 915 624 931 q 657 893 653 899 l 689 971 l 907 971 l 907 576 l 658 576 q 647 642 657 610 q 620 698 638 674 q 576 737 603 722 q 511 751 549 751 q 443 730 474 751 q 391 671 413 708 q 358 583 369 633 q 346 476 346 533 q 359 378 346 425 q 398 294 372 331 q 461 237 424 258 q 549 215 499 215 q 631 235 592 215 q 699 278 669 254 q 747 324 728 303 q 769 351 765 346 l 932 174 m 663 1035 l 469 1132 l 282 1035 l 213 1164 l 478 1329 l 740 1164 l 663 1035 z "},"ĉ":{"ha":738,"x_min":1,"x_max":724,"o":"m 500 381 q 494 431 499 406 q 479 478 489 457 q 453 513 469 500 q 413 526 436 526 q 359 511 382 526 q 321 471 336 496 q 298 414 306 446 q 290 349 290 382 q 329 231 290 278 q 438 185 368 185 q 529 206 490 185 q 601 264 568 228 l 724 122 q 664 70 699 96 q 585 25 629 44 q 490 -7 542 6 q 383 -19 439 -19 q 238 3 307 -19 q 116 73 168 26 q 33 189 64 119 q 1 351 1 258 q 30 510 1 443 q 106 622 58 578 q 215 686 153 665 q 343 707 276 707 q 406 699 378 707 q 456 678 435 690 q 493 651 478 665 q 517 628 508 638 l 540 694 l 704 694 l 704 381 l 500 381 m 554 758 l 361 856 l 174 758 l 104 888 l 369 1053 l 632 888 l 554 758 z "},"Ċ":{"ha":953,"x_min":21,"x_max":932,"o":"m 932 174 q 851 99 896 135 q 754 37 807 64 q 640 -6 701 10 q 511 -22 579 -22 q 310 12 400 -22 q 156 110 219 46 q 56 267 92 175 q 21 476 21 360 q 61 691 21 596 q 164 852 101 786 q 301 953 226 918 q 443 988 375 988 q 533 975 494 988 q 597 947 571 963 q 638 915 624 931 q 657 893 653 899 l 689 971 l 907 971 l 907 576 l 658 576 q 647 642 657 610 q 620 698 638 674 q 576 737 603 722 q 511 751 549 751 q 443 730 474 751 q 391 671 413 708 q 358 583 369 633 q 346 476 346 533 q 359 378 346 425 q 398 294 372 331 q 461 237 424 258 q 549 215 499 215 q 631 235 592 215 q 699 278 669 254 q 747 324 728 303 q 769 351 765 346 l 932 174 m 325 1174 q 335 1222 325 1197 q 363 1268 344 1247 q 410 1302 382 1289 q 475 1315 439 1315 q 540 1302 511 1315 q 588 1268 568 1289 q 617 1222 607 1247 q 628 1174 628 1197 q 589 1074 628 1115 q 475 1033 550 1033 q 415 1046 442 1033 q 367 1078 388 1058 q 336 1124 347 1099 q 325 1174 325 1149 z "},"ċ":{"ha":738,"x_min":1,"x_max":724,"o":"m 500 381 q 494 431 499 406 q 479 478 489 457 q 453 513 469 500 q 413 526 436 526 q 359 511 382 526 q 321 471 336 496 q 298 414 306 446 q 290 349 290 382 q 329 231 290 278 q 438 185 368 185 q 529 206 490 185 q 601 264 568 228 l 724 122 q 664 70 699 96 q 585 25 629 44 q 490 -7 542 6 q 383 -19 439 -19 q 238 3 307 -19 q 116 73 168 26 q 33 189 64 119 q 1 351 1 258 q 30 510 1 443 q 106 622 58 578 q 215 686 153 665 q 343 707 276 707 q 406 699 378 707 q 456 678 435 690 q 493 651 478 665 q 517 628 508 638 l 540 694 l 704 694 l 704 381 l 500 381 m 217 897 q 226 946 217 921 q 255 992 236 971 q 302 1026 274 1013 q 367 1039 331 1039 q 431 1026 403 1039 q 479 992 460 1013 q 509 946 499 971 q 519 897 519 921 q 481 798 519 839 q 367 757 442 757 q 306 769 333 757 q 259 802 279 782 q 228 847 239 822 q 217 897 217 872 z "},"Č":{"ha":953,"x_min":21,"x_max":932,"o":"m 932 174 q 851 99 896 135 q 754 37 807 64 q 640 -6 701 10 q 511 -22 579 -22 q 310 12 400 -22 q 156 110 219 46 q 56 267 92 175 q 21 476 21 360 q 61 691 21 596 q 164 852 101 786 q 301 953 226 918 q 443 988 375 988 q 533 975 494 988 q 597 947 571 963 q 638 915 624 931 q 657 893 653 899 l 689 971 l 907 971 l 907 576 l 658 576 q 647 642 657 610 q 620 698 638 674 q 576 737 603 722 q 511 751 549 751 q 443 730 474 751 q 391 671 413 708 q 358 583 369 633 q 346 476 346 533 q 359 378 346 425 q 398 294 372 331 q 461 237 424 258 q 549 215 499 215 q 631 235 592 215 q 699 278 669 254 q 747 324 728 303 q 769 351 765 346 l 932 174 m 290 1304 l 483 1207 l 671 1304 l 740 1175 l 475 1010 l 213 1175 l 290 1304 z "},"č":{"ha":738,"x_min":1,"x_max":724,"o":"m 500 381 q 494 431 499 406 q 479 478 489 457 q 453 513 469 500 q 413 526 436 526 q 359 511 382 526 q 321 471 336 496 q 298 414 306 446 q 290 349 290 382 q 329 231 290 278 q 438 185 368 185 q 529 206 490 185 q 601 264 568 228 l 724 122 q 664 70 699 96 q 585 25 629 44 q 490 -7 542 6 q 383 -19 439 -19 q 238 3 307 -19 q 116 73 168 26 q 33 189 64 119 q 1 351 1 258 q 30 510 1 443 q 106 622 58 578 q 215 686 153 665 q 343 707 276 707 q 406 699 378 707 q 456 678 435 690 q 493 651 478 665 q 517 628 508 638 l 540 694 l 704 694 l 704 381 l 500 381 m 183 1028 l 376 931 l 564 1028 l 633 899 l 368 733 l 106 899 l 183 1028 z "},"Ď":{"ha":1000,"x_min":35,"x_max":986,"o":"m 35 0 l 35 185 l 121 185 l 121 788 l 35 788 l 35 971 l 458 971 q 683 934 585 971 q 848 834 781 897 q 951 685 915 771 q 986 499 986 599 q 849 130 986 260 q 453 0 711 0 l 35 0 m 667 499 q 655 606 667 554 q 618 699 643 658 q 553 763 593 739 q 458 788 514 788 l 406 788 l 406 185 l 458 185 q 553 210 514 185 q 618 277 593 235 q 655 376 643 319 q 667 499 667 433 m 314 1304 l 507 1207 l 694 1304 l 764 1175 l 499 1010 l 236 1175 l 314 1304 z "},"ď":{"ha":1082,"x_min":14,"x_max":1108,"o":"m 511 861 l 447 861 l 447 1042 l 793 1042 l 793 181 l 860 181 l 860 0 l 535 0 l 511 51 q 490 34 504 44 q 453 13 475 24 q 401 -5 431 3 q 336 -12 372 -12 q 203 17 263 -12 q 101 98 143 47 q 37 215 60 149 q 14 354 14 282 q 40 501 14 435 q 111 613 67 567 q 214 683 156 658 q 336 708 272 708 q 451 688 410 708 q 511 656 492 668 l 511 861 m 842 722 q 881 781 864 751 q 910 844 899 811 q 928 914 922 876 q 935 997 935 951 q 935 1022 935 1010 q 933 1047 935 1033 l 1108 1000 l 1108 988 q 1067 808 1108 893 q 953 657 1025 724 l 842 722 m 313 354 q 319 292 313 322 q 340 238 326 261 q 371 199 353 214 q 413 183 389 183 q 481 226 451 183 q 511 344 511 269 q 504 417 511 383 q 484 475 497 450 q 452 514 471 500 q 411 528 433 528 q 340 481 367 528 q 313 354 313 433 z "},"Đ":{"ha":1000,"x_min":26,"x_max":986,"o":"m 26 539 l 121 539 l 121 788 l 35 788 l 35 971 l 458 971 q 683 934 585 971 q 848 834 781 897 q 951 685 915 771 q 986 499 986 599 q 849 130 986 260 q 453 0 711 0 l 35 0 l 35 185 l 121 185 l 121 417 l 26 417 l 26 539 m 667 499 q 655 606 667 554 q 618 699 643 658 q 553 763 593 739 q 458 788 514 788 l 406 788 l 406 539 l 492 539 l 492 417 l 406 417 l 406 185 l 458 185 q 553 210 514 185 q 618 277 593 235 q 655 376 643 319 q 667 499 667 433 z "},"đ":{"ha":881,"x_min":14,"x_max":901,"o":"m 371 824 l 511 824 l 511 861 l 447 861 l 447 1042 l 793 1042 l 793 824 l 901 824 l 901 733 l 793 733 l 793 181 l 860 181 l 860 0 l 535 0 l 511 51 q 490 34 504 44 q 453 13 475 24 q 401 -5 431 3 q 336 -12 372 -12 q 203 17 263 -12 q 101 98 143 47 q 37 215 60 149 q 14 354 14 282 q 40 501 14 435 q 111 613 67 567 q 214 683 156 658 q 336 708 272 708 q 451 688 410 708 q 511 656 492 668 l 511 733 l 371 733 l 371 824 m 313 354 q 319 292 313 322 q 340 238 326 261 q 371 199 353 214 q 413 183 389 183 q 481 226 451 183 q 511 344 511 269 q 504 417 511 383 q 484 475 497 450 q 452 514 471 500 q 411 528 433 528 q 340 481 367 528 q 313 354 313 433 z "},"Ē":{"ha":907,"x_min":35,"x_max":872,"o":"m 35 971 l 872 971 l 872 664 l 632 664 l 632 788 l 410 788 l 410 596 l 674 596 l 674 411 l 410 411 l 410 185 l 632 185 l 632 314 l 872 314 l 872 0 l 35 0 l 35 185 l 122 185 l 122 788 l 35 788 l 35 971 m 65 1246 l 840 1246 l 840 1061 l 65 1061 l 65 1246 z "},"ē":{"ha":753,"x_min":7,"x_max":732,"o":"m 732 96 q 568 2 654 29 q 374 -25 482 -25 q 243 -3 308 -25 q 126 63 178 18 q 40 180 74 108 q 7 351 7 251 q 36 503 7 436 q 115 618 65 571 q 233 690 165 665 q 381 714 301 714 q 533 689 467 714 q 643 619 599 664 q 710 515 688 575 q 732 383 732 454 q 728 328 732 356 q 715 278 724 301 l 278 278 q 287 244 281 264 q 308 207 293 225 q 350 176 324 189 q 421 164 376 164 q 460 165 439 164 q 507 174 482 167 q 560 194 532 181 q 615 231 588 207 l 732 96 m 389 526 q 337 514 357 526 q 305 484 317 501 q 288 447 293 467 q 282 415 283 428 l 492 415 q 488 455 492 435 q 473 491 483 475 q 442 517 463 507 q 389 526 422 526 m 43 965 l 714 965 l 714 785 l 43 785 l 43 965 z "},"Ĕ":{"ha":907,"x_min":35,"x_max":872,"o":"m 35 971 l 872 971 l 872 664 l 632 664 l 632 788 l 410 788 l 410 596 l 674 596 l 674 411 l 410 411 l 410 185 l 632 185 l 632 314 l 872 314 l 872 0 l 35 0 l 35 185 l 122 185 l 122 788 l 35 788 l 35 971 m 740 1276 q 709 1178 733 1221 q 647 1106 685 1135 q 560 1061 610 1076 q 457 1046 511 1046 q 358 1060 407 1046 q 271 1102 310 1074 q 205 1174 232 1131 q 169 1274 178 1217 l 385 1274 q 411 1204 392 1229 q 457 1179 431 1179 q 501 1206 485 1179 q 525 1275 518 1233 l 740 1276 z "},"ĕ":{"ha":753,"x_min":7,"x_max":732,"o":"m 732 96 q 568 2 654 29 q 374 -25 482 -25 q 243 -3 308 -25 q 126 63 178 18 q 40 180 74 108 q 7 351 7 251 q 36 503 7 436 q 115 618 65 571 q 233 690 165 665 q 381 714 301 714 q 533 689 467 714 q 643 619 599 664 q 710 515 688 575 q 732 383 732 454 q 728 328 732 356 q 715 278 724 301 l 278 278 q 287 244 281 264 q 308 207 293 225 q 350 176 324 189 q 421 164 376 164 q 460 165 439 164 q 507 174 482 167 q 560 194 532 181 q 615 231 588 207 l 732 96 m 389 526 q 337 514 357 526 q 305 484 317 501 q 288 447 293 467 q 282 415 283 428 l 492 415 q 488 455 492 435 q 473 491 483 475 q 442 517 463 507 q 389 526 422 526 m 690 992 q 659 893 683 936 q 597 821 635 850 q 510 776 560 792 q 407 761 461 761 q 308 775 357 761 q 221 817 260 789 q 155 889 182 846 q 119 989 128 932 l 335 989 q 361 919 342 944 q 407 894 381 894 q 451 922 435 894 q 475 990 468 949 l 690 992 z "},"Ė":{"ha":907,"x_min":35,"x_max":872,"o":"m 35 971 l 872 971 l 872 664 l 632 664 l 632 788 l 410 788 l 410 596 l 674 596 l 674 411 l 410 411 l 410 185 l 632 185 l 632 314 l 872 314 l 872 0 l 35 0 l 35 185 l 122 185 l 122 788 l 35 788 l 35 971 m 301 1174 q 311 1222 301 1197 q 340 1268 321 1247 q 387 1302 358 1289 q 451 1315 415 1315 q 516 1302 488 1315 q 564 1268 544 1289 q 594 1222 583 1247 q 604 1174 604 1197 q 565 1074 604 1115 q 451 1033 526 1033 q 391 1046 418 1033 q 344 1078 364 1058 q 313 1124 324 1099 q 301 1174 301 1149 z "},"ė":{"ha":753,"x_min":7,"x_max":732,"o":"m 732 96 q 568 2 654 29 q 374 -25 482 -25 q 243 -3 308 -25 q 126 63 178 18 q 40 180 74 108 q 7 351 7 251 q 36 503 7 436 q 115 618 65 571 q 233 690 165 665 q 381 714 301 714 q 533 689 467 714 q 643 619 599 664 q 710 515 688 575 q 732 383 732 454 q 728 328 732 356 q 715 278 724 301 l 278 278 q 287 244 281 264 q 308 207 293 225 q 350 176 324 189 q 421 164 376 164 q 460 165 439 164 q 507 174 482 167 q 560 194 532 181 q 615 231 588 207 l 732 96 m 389 526 q 337 514 357 526 q 305 484 317 501 q 288 447 293 467 q 282 415 283 428 l 492 415 q 488 455 492 435 q 473 491 483 475 q 442 517 463 507 q 389 526 422 526 m 225 897 q 235 946 225 921 q 263 992 244 971 q 310 1026 282 1013 q 375 1039 339 1039 q 440 1026 411 1039 q 488 992 468 1013 q 517 946 507 971 q 528 897 528 921 q 489 798 528 839 q 375 757 450 757 q 315 769 342 757 q 267 802 288 782 q 236 847 247 822 q 225 897 225 872 z "},"Ę":{"ha":907,"x_min":35,"x_max":872,"o":"m 35 971 l 872 971 l 872 664 l 632 664 l 632 788 l 410 788 l 410 596 l 674 596 l 674 411 l 410 411 l 410 185 l 632 185 l 632 314 l 872 314 l 872 0 l 714 0 l 688 -15 q 647 -58 660 -31 q 633 -110 633 -85 q 657 -158 633 -139 q 706 -178 681 -178 q 783 -165 736 -178 q 872 -136 829 -151 l 872 -335 q 793 -359 840 -349 q 681 -369 746 -369 q 590 -360 633 -369 q 514 -326 547 -351 q 461 -258 481 -301 q 442 -143 442 -214 q 457 -56 442 -89 q 488 0 472 -22 l 35 0 l 35 185 l 122 185 l 122 788 l 35 788 l 35 971 z "},"ę":{"ha":753,"x_min":7,"x_max":732,"o":"m 732 96 q 612 19 674 46 q 478 -18 550 -8 q 441 -60 453 -35 q 429 -110 429 -86 q 453 -158 429 -139 q 501 -178 476 -178 q 578 -165 532 -178 q 668 -136 625 -151 l 668 -335 q 589 -359 636 -349 q 476 -369 542 -369 q 386 -360 429 -369 q 310 -326 343 -351 q 257 -258 276 -301 q 238 -143 238 -214 q 249 -66 238 -99 q 275 -14 260 -33 l 275 -12 q 174 28 222 0 q 88 101 125 57 q 29 208 51 146 q 7 351 7 269 q 36 503 7 436 q 115 618 65 571 q 233 690 165 665 q 381 714 301 714 q 533 689 467 714 q 643 619 599 664 q 710 515 688 575 q 732 383 732 454 q 728 328 732 356 q 715 278 724 301 l 278 278 q 287 244 281 264 q 308 207 293 225 q 350 176 324 189 q 421 164 376 164 q 460 165 439 164 q 507 174 482 167 q 560 194 532 181 q 615 231 588 207 l 732 96 m 389 526 q 337 514 357 526 q 305 484 317 501 q 288 447 293 467 q 282 415 283 428 l 492 415 q 488 455 492 435 q 473 491 483 475 q 442 517 463 507 q 389 526 422 526 z "},"Ě":{"ha":907,"x_min":35,"x_max":872,"o":"m 35 971 l 872 971 l 872 664 l 632 664 l 632 788 l 410 788 l 410 596 l 674 596 l 674 411 l 410 411 l 410 185 l 632 185 l 632 314 l 872 314 l 872 0 l 35 0 l 35 185 l 122 185 l 122 788 l 35 788 l 35 971 m 267 1304 l 460 1207 l 647 1304 l 717 1175 l 451 1010 l 189 1175 l 267 1304 z "},"ě":{"ha":753,"x_min":7,"x_max":732,"o":"m 732 96 q 568 2 654 29 q 374 -25 482 -25 q 243 -3 308 -25 q 126 63 178 18 q 40 180 74 108 q 7 351 7 251 q 36 503 7 436 q 115 618 65 571 q 233 690 165 665 q 381 714 301 714 q 533 689 467 714 q 643 619 599 664 q 710 515 688 575 q 732 383 732 454 q 728 328 732 356 q 715 278 724 301 l 278 278 q 287 244 281 264 q 308 207 293 225 q 350 176 324 189 q 421 164 376 164 q 460 165 439 164 q 507 174 482 167 q 560 194 532 181 q 615 231 588 207 l 732 96 m 389 526 q 337 514 357 526 q 305 484 317 501 q 288 447 293 467 q 282 415 283 428 l 492 415 q 488 455 492 435 q 473 491 483 475 q 442 517 463 507 q 389 526 422 526 m 190 1028 l 383 931 l 571 1028 l 640 899 l 375 733 l 113 899 l 190 1028 z "},"Ĝ":{"ha":1078,"x_min":21,"x_max":1057,"o":"m 681 88 q 597 18 657 49 q 457 -12 538 -12 q 286 22 365 -12 q 148 119 207 56 q 55 274 89 183 q 21 476 21 364 q 57 684 21 590 q 153 845 93 778 q 289 950 213 913 q 447 988 365 988 q 571 972 522 988 q 649 938 619 957 q 694 899 679 918 q 718 871 710 879 l 747 971 l 954 971 l 954 561 l 706 561 q 691 636 704 603 q 656 692 678 669 q 606 726 633 714 q 547 738 578 738 q 470 716 506 738 q 410 659 435 694 q 371 576 385 624 q 357 476 357 528 q 369 377 357 424 q 406 296 382 331 q 466 241 431 261 q 547 221 501 221 q 636 241 607 221 q 681 289 665 261 l 681 347 l 596 347 l 596 496 l 1057 496 l 1057 347 l 1001 347 l 1001 0 l 724 0 l 681 88 m 725 1035 l 532 1132 l 344 1035 l 275 1164 l 540 1329 l 803 1164 l 725 1035 z "},"ĝ":{"ha":889,"x_min":14,"x_max":868,"o":"m 107 -8 q 144 -34 119 -19 q 200 -63 168 -49 q 270 -87 232 -78 q 349 -97 308 -97 q 426 -85 396 -97 q 476 -53 457 -72 q 502 -12 494 -35 q 510 33 510 11 l 510 81 q 489 58 503 71 q 455 33 475 44 q 408 13 435 21 q 347 4 381 4 q 194 34 257 4 q 91 113 131 64 q 33 224 51 161 q 14 351 14 286 q 36 498 14 432 q 102 610 58 564 q 211 683 146 657 q 363 708 276 708 q 449 690 408 708 q 510 651 489 672 l 538 694 l 868 694 l 868 513 l 785 513 l 785 97 q 758 -59 785 11 q 678 -179 732 -129 q 542 -257 624 -229 q 351 -285 461 -285 q 245 -272 294 -285 q 155 -241 196 -260 q 83 -201 114 -222 q 33 -162 53 -181 l 107 -8 m 310 354 q 317 292 310 322 q 337 238 324 261 q 368 199 350 214 q 410 183 386 183 q 478 226 449 183 q 508 344 508 269 q 501 417 508 383 q 481 475 494 450 q 449 514 468 500 q 408 528 431 528 q 337 481 364 528 q 310 354 310 433 m 631 758 l 438 856 l 250 758 l 181 888 l 446 1053 l 708 888 l 631 758 z "},"Ğ":{"ha":1078,"x_min":21,"x_max":1057,"o":"m 681 88 q 597 18 657 49 q 457 -12 538 -12 q 286 22 365 -12 q 148 119 207 56 q 55 274 89 183 q 21 476 21 364 q 57 684 21 590 q 153 845 93 778 q 289 950 213 913 q 447 988 365 988 q 571 972 522 988 q 649 938 619 957 q 694 899 679 918 q 718 871 710 879 l 747 971 l 954 971 l 954 561 l 706 561 q 691 636 704 603 q 656 692 678 669 q 606 726 633 714 q 547 738 578 738 q 470 716 506 738 q 410 659 435 694 q 371 576 385 624 q 357 476 357 528 q 369 377 357 424 q 406 296 382 331 q 466 241 431 261 q 547 221 501 221 q 636 241 607 221 q 681 289 665 261 l 681 347 l 596 347 l 596 496 l 1057 496 l 1057 347 l 1001 347 l 1001 0 l 724 0 l 681 88 m 824 1308 q 792 1210 817 1253 q 731 1138 768 1167 q 644 1093 693 1108 q 540 1078 594 1078 q 442 1092 490 1078 q 354 1134 393 1106 q 288 1206 315 1163 q 253 1306 261 1249 l 468 1306 q 494 1236 475 1261 q 540 1211 514 1211 q 585 1238 568 1211 q 608 1307 601 1265 l 824 1308 z "},"ğ":{"ha":889,"x_min":14,"x_max":868,"o":"m 107 -8 q 144 -34 119 -19 q 200 -63 168 -49 q 270 -87 232 -78 q 349 -97 308 -97 q 426 -85 396 -97 q 476 -53 457 -72 q 502 -12 494 -35 q 510 33 510 11 l 510 81 q 489 58 503 71 q 455 33 475 44 q 408 13 435 21 q 347 4 381 4 q 194 34 257 4 q 91 113 131 64 q 33 224 51 161 q 14 351 14 286 q 36 498 14 432 q 102 610 58 564 q 211 683 146 657 q 363 708 276 708 q 449 690 408 708 q 510 651 489 672 l 538 694 l 868 694 l 868 513 l 785 513 l 785 97 q 758 -59 785 11 q 678 -179 732 -129 q 542 -257 624 -229 q 351 -285 461 -285 q 245 -272 294 -285 q 155 -241 196 -260 q 83 -201 114 -222 q 33 -162 53 -181 l 107 -8 m 310 354 q 317 292 310 322 q 337 238 324 261 q 368 199 350 214 q 410 183 386 183 q 478 226 449 183 q 508 344 508 269 q 501 417 508 383 q 481 475 494 450 q 449 514 468 500 q 408 528 431 528 q 337 481 364 528 q 310 354 310 433 m 729 1032 q 698 933 722 976 q 636 861 674 890 q 549 817 599 832 q 446 801 500 801 q 347 815 396 801 q 260 858 299 829 q 194 929 221 886 q 158 1029 167 972 l 374 1029 q 400 960 381 985 q 446 935 419 935 q 490 962 474 935 q 514 1031 507 989 l 729 1032 z "},"Ġ":{"ha":1078,"x_min":21,"x_max":1057,"o":"m 681 88 q 597 18 657 49 q 457 -12 538 -12 q 286 22 365 -12 q 148 119 207 56 q 55 274 89 183 q 21 476 21 364 q 57 684 21 590 q 153 845 93 778 q 289 950 213 913 q 447 988 365 988 q 571 972 522 988 q 649 938 619 957 q 694 899 679 918 q 718 871 710 879 l 747 971 l 954 971 l 954 561 l 706 561 q 691 636 704 603 q 656 692 678 669 q 606 726 633 714 q 547 738 578 738 q 470 716 506 738 q 410 659 435 694 q 371 576 385 624 q 357 476 357 528 q 369 377 357 424 q 406 296 382 331 q 466 241 431 261 q 547 221 501 221 q 636 241 607 221 q 681 289 665 261 l 681 347 l 596 347 l 596 496 l 1057 496 l 1057 347 l 1001 347 l 1001 0 l 724 0 l 681 88 m 388 1174 q 397 1222 388 1197 q 426 1268 407 1247 q 473 1302 444 1289 q 538 1315 501 1315 q 602 1302 574 1315 q 650 1268 631 1289 q 680 1222 669 1247 q 690 1174 690 1197 q 651 1074 690 1115 q 538 1033 613 1033 q 477 1046 504 1033 q 430 1078 450 1058 q 399 1124 410 1099 q 388 1174 388 1149 z "},"ġ":{"ha":889,"x_min":14,"x_max":868,"o":"m 107 -8 q 144 -34 119 -19 q 200 -63 168 -49 q 270 -87 232 -78 q 349 -97 308 -97 q 426 -85 396 -97 q 476 -53 457 -72 q 502 -12 494 -35 q 510 33 510 11 l 510 81 q 489 58 503 71 q 455 33 475 44 q 408 13 435 21 q 347 4 381 4 q 194 34 257 4 q 91 113 131 64 q 33 224 51 161 q 14 351 14 286 q 36 498 14 432 q 102 610 58 564 q 211 683 146 657 q 363 708 276 708 q 449 690 408 708 q 510 651 489 672 l 538 694 l 868 694 l 868 513 l 785 513 l 785 97 q 758 -59 785 11 q 678 -179 732 -129 q 542 -257 624 -229 q 351 -285 461 -285 q 245 -272 294 -285 q 155 -241 196 -260 q 83 -201 114 -222 q 33 -162 53 -181 l 107 -8 m 310 354 q 317 292 310 322 q 337 238 324 261 q 368 199 350 214 q 410 183 386 183 q 478 226 449 183 q 508 344 508 269 q 501 417 508 383 q 481 475 494 450 q 449 514 468 500 q 408 528 431 528 q 337 481 364 528 q 310 354 310 433 m 293 897 q 303 946 293 921 q 331 992 313 971 q 378 1026 350 1013 q 443 1039 407 1039 q 508 1026 479 1039 q 556 992 536 1013 q 585 946 575 971 q 596 897 596 921 q 557 798 596 839 q 443 757 518 757 q 383 769 410 757 q 335 802 356 782 q 304 847 315 822 q 293 897 293 872 z "},"Ģ":{"ha":1078,"x_min":21,"x_max":1057,"o":"m 681 88 q 597 18 657 49 q 457 -12 538 -12 q 286 22 365 -12 q 148 119 207 56 q 55 274 89 183 q 21 476 21 364 q 57 684 21 590 q 153 845 93 778 q 289 950 213 913 q 447 988 365 988 q 571 972 522 988 q 649 938 619 957 q 694 899 679 918 q 718 871 710 879 l 747 971 l 954 971 l 954 561 l 706 561 q 691 636 704 603 q 656 692 678 669 q 606 726 633 714 q 547 738 578 738 q 470 716 506 738 q 410 659 435 694 q 371 576 385 624 q 357 476 357 528 q 369 377 357 424 q 406 296 382 331 q 466 241 431 261 q 547 221 501 221 q 636 241 607 221 q 681 289 665 261 l 681 347 l 596 347 l 596 496 l 1057 496 l 1057 347 l 1001 347 l 1001 0 l 724 0 l 681 88 m 388 -358 q 427 -308 411 -329 q 453 -268 443 -287 q 467 -227 463 -249 q 471 -174 471 -206 q 467 -81 471 -139 l 686 -85 l 686 -101 q 646 -281 686 -203 q 521 -432 606 -358 l 388 -358 z "},"ģ":{"ha":889,"x_min":14,"x_max":868,"o":"m 107 -8 q 144 -34 119 -19 q 200 -63 168 -49 q 270 -87 232 -78 q 349 -97 308 -97 q 426 -85 396 -97 q 476 -53 457 -72 q 502 -12 494 -35 q 510 33 510 11 l 510 81 q 489 58 503 71 q 455 33 475 44 q 408 13 435 21 q 347 4 381 4 q 194 34 257 4 q 91 113 131 64 q 33 224 51 161 q 14 351 14 286 q 36 498 14 432 q 102 610 58 564 q 211 683 146 657 q 363 708 276 708 q 449 690 408 708 q 510 651 489 672 l 538 694 l 868 694 l 868 513 l 785 513 l 785 97 q 758 -59 785 11 q 678 -179 732 -129 q 542 -257 624 -229 q 351 -285 461 -285 q 245 -272 294 -285 q 155 -241 196 -260 q 83 -201 114 -222 q 33 -162 53 -181 l 107 -8 m 631 1032 q 542 919 572 978 q 513 776 513 861 q 513 754 513 765 q 515 731 514 743 l 292 775 l 292 786 q 345 952 292 874 q 490 1093 399 1031 l 631 1032 m 310 354 q 317 292 310 322 q 337 238 324 261 q 368 199 350 214 q 410 183 386 183 q 478 226 449 183 q 508 344 508 269 q 501 417 508 383 q 481 475 494 450 q 449 514 468 500 q 408 528 431 528 q 337 481 364 528 q 310 354 310 433 z "},"Ĥ":{"ha":1067,"x_min":35,"x_max":1032,"o":"m 35 971 l 485 971 l 485 788 l 399 788 l 399 578 l 663 578 l 663 788 l 581 788 l 581 971 l 1032 971 l 1032 788 l 951 788 l 951 183 l 1032 183 l 1032 0 l 581 0 l 581 183 l 663 183 l 663 393 l 399 393 l 399 183 l 485 183 l 485 0 l 35 0 l 35 183 l 111 183 l 111 788 l 35 788 l 35 971 m 719 1035 l 526 1132 l 339 1035 l 269 1164 l 535 1329 l 797 1164 l 719 1035 z "},"ĥ":{"ha":918,"x_min":-65,"x_max":897,"o":"m 471 0 l 35 0 l 35 182 l 93 182 l 93 861 l 35 861 l 35 1042 l 371 1042 l 371 608 q 397 636 376 618 q 448 673 418 654 q 515 706 478 692 q 589 719 551 719 q 717 692 669 719 q 791 622 765 665 q 824 523 817 578 q 832 414 832 468 l 832 182 l 897 182 l 897 0 l 540 0 l 540 378 q 539 418 540 396 q 530 460 538 440 q 506 493 522 479 q 458 507 489 507 q 415 495 432 507 q 388 465 397 483 q 374 423 378 446 q 371 378 371 400 l 371 182 l 471 182 l 471 0 m 385 1082 l 192 1179 l 4 1082 l -65 1211 l 200 1376 l 463 1211 l 385 1082 z "},"Ħ":{"ha":1067,"x_min":13,"x_max":1047,"o":"m 13 692 l 111 692 l 111 788 l 35 788 l 35 971 l 485 971 l 485 788 l 399 788 l 399 692 l 663 692 l 663 788 l 581 788 l 581 971 l 1032 971 l 1032 788 l 951 788 l 951 692 l 1047 692 l 1047 579 l 951 579 l 951 183 l 1032 183 l 1032 0 l 581 0 l 581 183 l 663 183 l 663 313 l 399 313 l 399 183 l 485 183 l 485 0 l 35 0 l 35 183 l 111 183 l 111 579 l 13 579 l 13 692 m 663 497 l 663 579 l 399 579 l 399 497 l 663 497 z "},"ħ":{"ha":931,"x_min":40,"x_max":910,"o":"m 40 851 l 106 851 l 106 919 l 47 919 l 47 1042 l 383 1042 l 383 851 l 658 851 l 658 744 l 383 744 l 383 608 q 410 636 389 618 q 460 673 431 654 q 527 706 490 692 q 601 719 564 719 q 730 692 682 719 q 803 622 778 665 q 837 523 829 578 q 844 414 844 468 l 844 182 l 910 182 l 910 0 l 553 0 l 553 378 q 551 418 553 396 q 542 460 550 440 q 518 493 535 479 q 471 507 501 507 q 427 495 444 507 q 400 465 410 483 q 387 423 390 446 q 383 378 383 400 l 383 182 l 483 182 l 483 0 l 47 0 l 47 182 l 106 182 l 106 744 l 40 744 l 40 851 z "},"Ĩ":{"ha":531,"x_min":8,"x_max":524,"o":"m 35 971 l 496 971 l 496 788 l 410 788 l 410 185 l 496 185 l 496 0 l 35 0 l 35 185 l 122 185 l 122 788 l 35 788 l 35 971 m 524 1118 q 453 1061 493 1081 q 353 1042 413 1042 q 299 1050 321 1042 q 258 1067 278 1058 q 218 1085 239 1076 q 167 1093 197 1093 q 69 1051 111 1093 l 8 1190 q 79 1251 40 1231 q 171 1272 118 1272 q 226 1265 204 1272 q 269 1248 249 1257 q 310 1231 289 1239 q 360 1224 331 1224 q 419 1236 390 1224 q 461 1264 447 1249 l 524 1118 z "},"ĩ":{"ha":458,"x_min":-28,"x_max":488,"o":"m 424 0 l 35 0 l 35 182 l 93 182 l 93 514 l 35 514 l 35 694 l 357 694 l 357 182 l 424 182 l 424 0 m 488 842 q 417 785 457 804 q 317 765 376 765 q 263 774 285 765 q 222 791 242 782 q 182 808 203 800 q 131 817 161 817 q 33 775 75 817 l -28 914 q 43 975 4 954 q 135 996 82 996 q 190 988 168 996 q 233 972 213 981 q 274 955 253 963 q 324 947 294 947 q 383 960 354 947 q 425 988 411 972 l 488 842 z "},"Ī":{"ha":531,"x_min":35,"x_max":496,"o":"m 35 971 l 496 971 l 496 788 l 410 788 l 410 185 l 496 185 l 496 0 l 35 0 l 35 185 l 122 185 l 122 788 l 35 788 l 35 971 m 43 1247 l 496 1247 l 496 1060 l 43 1060 l 43 1247 z "},"ī":{"ha":458,"x_min":8,"x_max":450,"o":"m 424 0 l 35 0 l 35 182 l 93 182 l 93 514 l 35 514 l 35 694 l 357 694 l 357 182 l 424 182 l 424 0 m 8 969 l 424 969 l 450 785 l 8 785 l 8 969 z "},"Ĭ":{"ha":531,"x_min":-19,"x_max":551,"o":"m 35 971 l 496 971 l 496 788 l 410 788 l 410 185 l 496 185 l 496 0 l 35 0 l 35 185 l 122 185 l 122 788 l 35 788 l 35 971 m 551 1276 q 520 1178 544 1221 q 458 1106 496 1135 q 372 1061 421 1076 q 268 1046 322 1046 q 169 1060 218 1046 q 82 1102 121 1074 q 16 1174 43 1131 q -19 1274 -11 1217 l 196 1274 q 222 1204 203 1229 q 268 1179 242 1179 q 313 1206 296 1179 q 336 1275 329 1233 l 551 1276 z "},"ĭ":{"ha":458,"x_min":-57,"x_max":514,"o":"m 424 0 l 35 0 l 35 182 l 93 182 l 93 514 l 35 514 l 35 694 l 357 694 l 357 182 l 424 182 l 424 0 m 514 1032 q 483 933 507 976 q 421 861 458 890 q 334 817 383 832 q 231 801 285 801 q 132 815 181 801 q 44 858 83 829 q -22 929 6 886 q -57 1029 -49 972 l 158 1029 q 185 960 165 985 q 231 935 204 935 q 275 962 258 935 q 299 1031 292 989 l 514 1032 z "},"Į":{"ha":531,"x_min":35,"x_max":496,"o":"m 35 971 l 496 971 l 496 788 l 410 788 l 410 185 l 496 185 l 496 0 l 338 0 l 311 -15 q 270 -58 283 -31 q 257 -110 257 -85 q 281 -158 257 -139 q 329 -178 304 -178 q 406 -165 360 -178 q 496 -136 453 -151 l 496 -335 q 417 -359 464 -349 q 304 -369 369 -369 q 214 -360 257 -369 q 138 -326 171 -351 q 85 -258 104 -301 q 65 -143 65 -214 q 81 -56 65 -89 q 111 0 96 -22 l 35 0 l 35 185 l 122 185 l 122 788 l 35 788 l 35 971 z "},"į":{"ha":458,"x_min":14,"x_max":444,"o":"m 424 0 l 286 0 l 260 -15 q 219 -58 232 -31 q 206 -110 206 -85 q 229 -158 206 -139 q 278 -178 253 -178 q 355 -165 308 -178 q 444 -136 401 -151 l 444 -335 q 365 -359 413 -349 q 253 -369 318 -369 q 163 -360 206 -369 q 86 -326 119 -351 q 33 -258 53 -301 q 14 -143 14 -214 q 29 -56 14 -89 q 60 0 44 -22 l 35 0 l 35 182 l 93 182 l 93 514 l 35 514 l 35 694 l 357 694 l 357 182 l 424 182 l 424 0 m 74 897 q 83 946 74 921 q 112 992 93 971 q 159 1026 131 1013 q 224 1039 188 1039 q 288 1026 260 1039 q 336 992 317 1013 q 366 946 356 971 q 376 897 376 921 q 338 798 376 839 q 224 757 299 757 q 163 769 190 757 q 116 802 136 782 q 85 847 96 822 q 74 897 74 872 z "},"İ":{"ha":531,"x_min":35,"x_max":496,"o":"m 35 971 l 496 971 l 496 788 l 410 788 l 410 185 l 496 185 l 496 0 l 35 0 l 35 185 l 122 185 l 122 788 l 35 788 l 35 971 m 114 1174 q 124 1222 114 1197 q 152 1268 133 1247 q 199 1302 171 1289 q 264 1315 228 1315 q 328 1302 300 1315 q 376 1268 357 1289 q 406 1222 396 1247 q 417 1174 417 1197 q 378 1074 417 1115 q 264 1033 339 1033 q 203 1046 231 1033 q 156 1078 176 1058 q 125 1124 136 1099 q 114 1174 114 1149 z "},"ı":{"ha":458,"x_min":35,"x_max":424,"o":"m 424 0 l 35 0 l 35 182 l 93 182 l 93 514 l 35 514 l 35 694 l 357 694 l 357 182 l 424 182 l 424 0 z "},"Ĳ":{"ha":1019,"x_min":35,"x_max":965,"o":"m 385 -85 q 447 -97 411 -97 q 531 -53 499 -97 q 563 103 563 -8 l 563 789 l 410 789 l 410 185 l 496 185 l 496 0 l 35 0 l 35 185 l 122 185 l 122 788 l 35 788 l 35 971 l 965 971 l 965 789 l 850 789 l 850 103 q 829 -61 850 11 q 762 -183 808 -133 q 640 -258 715 -232 q 458 -283 565 -283 q 420 -279 439 -283 q 386 -268 401 -275 l 385 -85 z "},"ĳ":{"ha":814,"x_min":35,"x_max":757,"o":"m 424 0 l 35 0 l 35 182 l 93 182 l 93 514 l 35 514 l 35 694 l 357 694 l 357 182 l 424 182 l 424 0 m 74 897 q 83 946 74 921 q 112 992 93 971 q 159 1026 131 1013 q 224 1039 188 1039 q 288 1026 260 1039 q 336 992 317 1013 q 366 946 356 971 q 376 897 376 921 q 338 798 376 839 q 224 757 299 757 q 163 769 190 757 q 116 802 136 782 q 85 847 96 822 q 74 897 74 872 m 474 514 l 415 514 l 415 694 l 738 694 l 738 97 q 724 -36 738 32 q 665 -161 710 -104 q 538 -254 621 -218 q 315 -290 454 -290 l 315 -104 q 408 -82 375 -104 q 455 -28 440 -60 q 472 38 469 3 q 474 97 474 72 l 474 514 m 454 897 q 464 946 454 921 q 492 992 474 971 q 540 1026 511 1013 q 604 1039 568 1039 q 669 1026 640 1039 q 717 992 697 1013 q 747 946 736 971 q 757 897 757 921 q 718 798 757 839 q 604 757 679 757 q 544 769 571 757 q 497 802 517 782 q 465 847 476 822 q 454 897 454 872 z "},"Ĵ":{"ha":643,"x_min":28,"x_max":618,"o":"m 28 -85 q 90 -97 54 -97 q 174 -53 142 -97 q 206 103 206 -8 l 206 789 l 86 789 l 86 971 l 608 971 l 608 789 l 493 789 l 493 103 q 472 -61 493 11 q 405 -183 451 -133 q 283 -258 358 -232 q 101 -283 208 -283 q 63 -279 82 -283 q 29 -268 44 -275 l 28 -85 m 540 1035 l 347 1132 l 160 1035 l 90 1164 l 356 1329 l 618 1164 l 540 1035 z "},"ĵ":{"ha":500,"x_min":19,"x_max":549,"o":"m 178 514 l 119 514 l 119 694 l 442 694 l 442 97 q 428 -36 442 32 q 369 -161 414 -104 q 242 -254 325 -218 q 19 -290 158 -290 l 19 -104 q 112 -82 79 -104 q 159 -28 144 -60 q 176 38 174 3 q 178 97 178 72 l 178 514 m 471 750 l 278 847 l 90 750 l 21 879 l 286 1044 l 549 879 l 471 750 z "},"Ķ":{"ha":1132,"x_min":35,"x_max":1097,"o":"m 472 792 l 397 792 l 397 565 l 656 792 l 556 792 l 556 971 l 1018 971 l 1018 792 l 938 792 l 736 618 l 1017 181 l 1097 181 l 1097 0 l 556 0 l 556 181 l 650 181 l 500 417 l 397 329 l 397 181 l 472 181 l 472 0 l 35 0 l 35 181 l 110 181 l 110 792 l 35 792 l 35 971 l 472 971 l 472 792 m 414 -358 q 453 -308 438 -329 q 479 -268 469 -287 q 493 -227 489 -249 q 497 -174 497 -206 q 493 -81 497 -139 l 713 -85 l 713 -101 q 672 -281 713 -203 q 547 -432 632 -358 l 414 -358 z "},"ķ":{"ha":908,"x_min":53,"x_max":879,"o":"m 53 0 l 53 181 l 110 181 l 110 860 l 53 860 l 53 1042 l 374 1042 l 374 414 l 535 510 l 435 510 l 435 693 l 824 693 l 824 510 l 717 510 l 622 450 l 810 182 l 879 182 l 879 0 l 468 0 l 468 182 l 526 182 l 421 332 l 372 299 l 372 182 l 424 182 l 424 0 l 53 0 m 303 -358 q 342 -308 326 -329 q 368 -268 358 -287 q 382 -227 378 -249 q 386 -174 386 -206 q 382 -81 386 -139 l 601 -85 l 601 -101 q 561 -281 601 -203 q 436 -432 521 -358 l 303 -358 z "},"ĸ":{"ha":908,"x_min":53,"x_max":879,"o":"m 53 0 l 53 181 l 110 181 l 110 510 l 53 510 l 53 692 l 374 692 l 374 414 l 535 510 l 435 510 l 435 693 l 824 693 l 824 510 l 717 510 l 622 450 l 810 182 l 879 182 l 879 0 l 468 0 l 468 182 l 526 182 l 421 332 l 372 299 l 372 182 l 424 182 l 424 0 l 53 0 z "},"Ĺ":{"ha":847,"x_min":35,"x_max":813,"o":"m 35 971 l 474 971 l 474 788 l 400 788 l 400 185 l 579 185 l 579 361 l 813 361 l 813 0 l 35 0 l 35 185 l 111 185 l 111 788 l 35 788 l 35 971 m 615 1250 l 406 1053 l 232 1053 l 340 1250 l 615 1250 z "},"ĺ":{"ha":461,"x_min":35,"x_max":513,"o":"m 440 0 l 35 0 l 35 182 l 94 182 l 94 863 l 36 863 l 36 1042 l 358 1042 l 358 182 l 440 182 l 440 0 m 513 1283 l 303 1086 l 129 1086 l 238 1283 l 513 1283 z "},"Ļ":{"ha":847,"x_min":35,"x_max":813,"o":"m 35 971 l 474 971 l 474 788 l 400 788 l 400 185 l 579 185 l 579 361 l 813 361 l 813 0 l 35 0 l 35 185 l 111 185 l 111 788 l 35 788 l 35 971 m 272 -358 q 312 -308 296 -329 q 338 -268 328 -287 q 351 -227 347 -249 q 356 -174 356 -206 q 351 -81 356 -139 l 571 -85 l 571 -101 q 531 -281 571 -203 q 406 -432 490 -358 l 272 -358 z "},"ļ":{"ha":461,"x_min":35,"x_max":440,"o":"m 440 0 l 35 0 l 35 182 l 94 182 l 94 863 l 36 863 l 36 1042 l 358 1042 l 358 182 l 440 182 l 440 0 m 79 -358 q 119 -308 103 -329 q 144 -268 135 -287 q 158 -227 154 -249 q 163 -174 163 -206 q 158 -81 163 -139 l 378 -85 l 378 -101 q 338 -281 378 -203 q 213 -432 297 -358 l 79 -358 z "},"Ľ":{"ha":847,"x_min":35,"x_max":813,"o":"m 35 971 l 474 971 l 474 788 l 400 788 l 400 185 l 579 185 l 579 361 l 813 361 l 813 0 l 35 0 l 35 185 l 111 185 l 111 788 l 35 788 l 35 971 m 463 638 q 542 762 514 697 q 571 919 571 826 q 571 943 571 931 q 569 969 571 956 l 774 921 q 726 731 774 821 q 592 571 679 642 l 463 638 z "},"ľ":{"ha":675,"x_min":35,"x_max":706,"o":"m 440 0 l 35 0 l 35 182 l 94 182 l 94 863 l 36 863 l 36 1042 l 358 1042 l 358 182 l 440 182 l 440 0 m 392 732 q 473 844 444 786 q 501 986 501 903 q 501 1009 501 997 q 499 1035 500 1021 l 706 989 q 658 817 706 897 q 522 672 611 736 l 392 732 z "},"Ŀ":{"ha":847,"x_min":35,"x_max":813,"o":"m 35 971 l 474 971 l 474 788 l 400 788 l 400 185 l 579 185 l 579 361 l 813 361 l 813 0 l 35 0 l 35 185 l 111 185 l 111 788 l 35 788 l 35 971 m 450 576 q 460 630 450 603 q 490 680 469 657 q 538 717 510 703 q 604 732 567 732 q 671 717 642 732 q 720 680 700 703 q 751 630 740 657 q 761 576 761 603 q 720 472 761 514 q 604 429 679 429 q 544 442 572 429 q 494 475 515 454 q 462 522 474 496 q 450 576 450 549 z "},"ŀ":{"ha":749,"x_min":35,"x_max":715,"o":"m 440 0 l 35 0 l 35 182 l 94 182 l 94 863 l 36 863 l 36 1042 l 358 1042 l 358 182 l 440 182 l 440 0 m 404 558 q 414 612 404 585 q 444 662 424 639 q 492 699 464 685 q 558 714 521 714 q 625 699 596 714 q 674 662 654 685 q 705 612 694 639 q 715 558 715 585 q 674 453 715 496 q 558 411 633 411 q 498 424 526 411 q 449 457 469 436 q 416 504 428 478 q 404 558 404 531 z "},"Ł":{"ha":847,"x_min":32,"x_max":813,"o":"m 35 971 l 474 971 l 474 788 l 400 788 l 400 653 l 507 696 l 507 511 l 400 468 l 400 185 l 579 185 l 579 361 l 813 361 l 813 0 l 35 0 l 35 185 l 111 185 l 111 353 l 32 321 l 32 506 l 111 538 l 111 788 l 35 788 l 35 971 z "},"ł":{"ha":461,"x_min":-31,"x_max":493,"o":"m -31 424 l 94 497 l 94 863 l 36 863 l 36 1042 l 358 1042 l 358 656 l 493 736 l 493 551 l 358 471 l 358 182 l 440 182 l 440 0 l 35 0 l 35 182 l 94 182 l 94 313 l -31 239 l -31 424 z "},"Ń":{"ha":1133,"x_min":35,"x_max":1099,"o":"m 1099 792 l 1007 792 l 1007 0 l 708 0 l 354 529 l 354 179 l 461 179 l 461 0 l 35 0 l 35 179 l 117 179 l 117 792 l 36 792 l 36 971 l 435 971 l 776 461 l 776 792 l 681 792 l 681 971 l 1099 971 l 1099 792 m 758 1250 l 549 1053 l 375 1053 l 483 1250 l 758 1250 z "},"ń":{"ha":899,"x_min":35,"x_max":878,"o":"m 463 0 l 35 0 l 35 182 l 93 182 l 93 514 l 35 514 l 35 694 l 331 694 l 363 608 q 447 688 399 657 q 561 719 494 719 q 691 692 642 719 q 767 622 740 665 q 803 523 794 578 q 813 414 813 468 l 813 182 l 878 182 l 878 0 l 528 0 l 528 379 q 527 419 528 397 q 519 461 526 442 q 497 494 513 481 q 450 508 481 508 q 406 497 424 508 q 379 466 389 485 q 366 424 369 447 q 363 379 363 401 l 363 182 l 463 182 l 463 0 m 640 974 l 463 776 l 257 776 l 365 974 l 640 974 z "},"Ņ":{"ha":1133,"x_min":35,"x_max":1099,"o":"m 1099 792 l 1007 792 l 1007 0 l 708 0 l 354 529 l 354 179 l 461 179 l 461 0 l 35 0 l 35 179 l 117 179 l 117 792 l 36 792 l 36 971 l 435 971 l 776 461 l 776 792 l 681 792 l 681 971 l 1099 971 l 1099 792 m 415 -358 q 455 -308 439 -329 q 481 -268 471 -287 q 494 -227 490 -249 q 499 -174 499 -206 q 494 -81 499 -139 l 714 -85 l 714 -101 q 674 -281 714 -203 q 549 -432 633 -358 l 415 -358 z "},"ņ":{"ha":899,"x_min":35,"x_max":878,"o":"m 463 0 l 35 0 l 35 182 l 93 182 l 93 514 l 35 514 l 35 694 l 331 694 l 363 608 q 447 688 399 657 q 561 719 494 719 q 691 692 642 719 q 767 622 740 665 q 803 523 794 578 q 813 414 813 468 l 813 182 l 878 182 l 878 0 l 528 0 l 528 379 q 527 419 528 397 q 519 461 526 442 q 497 494 513 481 q 450 508 481 508 q 406 497 424 508 q 379 466 389 485 q 366 424 369 447 q 363 379 363 401 l 363 182 l 463 182 l 463 0 m 297 -358 q 337 -308 321 -329 q 363 -268 353 -287 q 376 -227 372 -249 q 381 -174 381 -206 q 376 -81 381 -139 l 596 -85 l 596 -101 q 556 -281 596 -203 q 431 -432 515 -358 l 297 -358 z "},"Ň":{"ha":1133,"x_min":35,"x_max":1099,"o":"m 1099 792 l 1007 792 l 1007 0 l 708 0 l 354 529 l 354 179 l 461 179 l 461 0 l 35 0 l 35 179 l 117 179 l 117 792 l 36 792 l 36 971 l 435 971 l 776 461 l 776 792 l 681 792 l 681 971 l 1099 971 l 1099 792 m 381 1304 l 574 1207 l 761 1304 l 831 1175 l 565 1010 l 303 1175 l 381 1304 z "},"ň":{"ha":899,"x_min":35,"x_max":878,"o":"m 463 0 l 35 0 l 35 182 l 93 182 l 93 514 l 35 514 l 35 694 l 331 694 l 363 608 q 447 688 399 657 q 561 719 494 719 q 691 692 642 719 q 767 622 740 665 q 803 523 794 578 q 813 414 813 468 l 813 182 l 878 182 l 878 0 l 528 0 l 528 379 q 527 419 528 397 q 519 461 526 442 q 497 494 513 481 q 450 508 481 508 q 406 497 424 508 q 379 466 389 485 q 366 424 369 447 q 363 379 363 401 l 363 182 l 463 182 l 463 0 m 217 1028 l 410 931 l 597 1028 l 667 899 l 401 733 l 139 899 l 217 1028 z "},"ŉ":{"ha":1111,"x_min":-29,"x_max":1090,"o":"m 675 0 l 247 0 l 247 182 l 306 182 l 306 514 l 247 514 l 247 694 l 543 694 l 575 608 q 659 688 611 657 q 774 719 707 719 q 903 692 854 719 q 980 622 953 665 q 1016 523 1007 578 q 1025 414 1025 468 l 1025 182 l 1090 182 l 1090 0 l 740 0 l 740 379 q 740 419 740 397 q 732 461 739 442 q 709 494 725 481 q 663 508 693 508 q 619 497 636 508 q 592 466 601 485 q 578 424 582 447 q 575 379 575 401 l 575 182 l 675 182 l 675 0 m -29 636 q 10 686 -6 665 q 36 726 26 707 q 50 767 46 746 q 54 821 54 789 q 50 914 54 856 l 269 910 l 269 893 q 229 714 269 792 q 104 563 189 636 l -29 636 z "},"Ŋ":{"ha":1133,"x_min":35,"x_max":1099,"o":"m 1099 792 l 1007 792 l 1007 103 q 986 -61 1007 11 q 919 -183 965 -133 q 797 -258 872 -232 q 615 -283 722 -283 q 577 -279 596 -283 q 543 -268 558 -275 l 542 -85 q 604 -97 568 -97 q 669 -75 642 -97 q 710 0 696 -53 l 354 529 l 354 179 l 461 179 l 461 0 l 35 0 l 35 179 l 117 179 l 117 792 l 36 792 l 36 971 l 435 971 l 776 461 l 776 792 l 681 792 l 681 971 l 1099 971 l 1099 792 z "},"ŋ":{"ha":861,"x_min":35,"x_max":815,"o":"m 350 -85 q 413 -97 376 -97 q 493 -58 461 -97 q 528 81 525 -18 l 528 379 q 527 419 528 397 q 519 461 526 442 q 497 494 513 481 q 450 508 481 508 q 406 497 424 508 q 379 466 389 485 q 366 424 369 447 q 363 379 363 401 l 363 182 l 463 182 l 463 0 l 35 0 l 35 182 l 93 182 l 93 514 l 35 514 l 35 694 l 331 694 l 363 608 q 447 688 399 657 q 561 719 494 719 q 691 692 642 719 q 767 622 740 665 q 803 523 794 578 q 813 414 813 468 l 815 90 q 794 -72 815 -1 q 727 -189 774 -142 q 606 -260 681 -236 q 424 -283 531 -283 q 385 -279 404 -283 q 351 -268 367 -275 l 350 -85 z "},"Ō":{"ha":1028,"x_min":21,"x_max":1007,"o":"m 518 -25 q 318 7 410 -25 q 160 103 226 39 q 58 263 94 167 q 21 490 21 360 q 56 696 21 603 q 156 856 92 789 q 310 960 221 924 q 508 997 400 997 q 730 960 636 997 q 885 856 824 924 q 977 693 947 789 q 1007 481 1007 597 q 975 269 1007 363 q 881 110 943 175 q 727 10 818 44 q 518 -25 636 -25 m 518 193 q 577 214 551 193 q 622 272 603 235 q 650 363 640 310 q 660 481 660 415 q 651 599 660 544 q 623 695 642 654 q 575 760 604 736 q 506 783 546 783 q 448 762 474 783 q 403 701 422 740 q 374 608 385 663 q 364 490 364 554 q 376 367 364 422 q 408 274 388 313 q 456 214 428 235 q 518 193 485 193 m 126 1246 l 901 1246 l 901 1061 l 126 1061 l 126 1246 z "},"ō":{"ha":797,"x_min":11,"x_max":786,"o":"m 403 -18 q 258 5 328 -18 q 133 74 188 28 q 47 189 79 119 q 15 350 15 258 q 48 505 15 438 q 134 618 81 572 q 256 688 188 664 q 396 711 325 711 q 549 685 478 711 q 672 612 619 660 q 753 495 724 564 q 782 339 782 426 q 752 187 782 253 q 671 75 722 121 q 551 6 619 29 q 403 -18 482 -18 m 403 160 q 442 174 425 160 q 472 213 460 188 q 491 272 485 238 q 497 344 497 306 q 490 417 497 383 q 471 476 483 451 q 440 516 458 501 q 396 531 421 531 q 358 517 375 531 q 328 478 340 503 q 308 419 315 453 q 300 349 300 386 q 329 211 300 263 q 403 160 358 160 m 11 969 l 786 969 l 786 785 l 11 785 l 11 969 z "},"Ŏ":{"ha":1028,"x_min":21,"x_max":1007,"o":"m 518 -25 q 318 7 410 -25 q 160 103 226 39 q 58 263 94 167 q 21 490 21 360 q 56 696 21 603 q 156 856 92 789 q 310 960 221 924 q 508 997 400 997 q 730 960 636 997 q 885 856 824 924 q 977 693 947 789 q 1007 481 1007 597 q 975 269 1007 363 q 881 110 943 175 q 727 10 818 44 q 518 -25 636 -25 m 518 193 q 577 214 551 193 q 622 272 603 235 q 650 363 640 310 q 660 481 660 415 q 651 599 660 544 q 623 695 642 654 q 575 760 604 736 q 506 783 546 783 q 448 762 474 783 q 403 701 422 740 q 374 608 385 663 q 364 490 364 554 q 376 367 364 422 q 408 274 388 313 q 456 214 428 235 q 518 193 485 193 m 813 1276 q 781 1178 806 1221 q 719 1106 757 1135 q 633 1061 682 1076 q 529 1046 583 1046 q 431 1060 479 1046 q 343 1102 382 1074 q 277 1174 304 1131 q 242 1274 250 1217 l 457 1274 q 483 1204 464 1229 q 529 1179 503 1179 q 574 1206 557 1179 q 597 1275 590 1233 l 813 1276 z "},"ŏ":{"ha":797,"x_min":15,"x_max":782,"o":"m 403 -18 q 258 5 328 -18 q 133 74 188 28 q 47 189 79 119 q 15 350 15 258 q 48 505 15 438 q 134 618 81 572 q 256 688 188 664 q 396 711 325 711 q 549 685 478 711 q 672 612 619 660 q 753 495 724 564 q 782 339 782 426 q 752 187 782 253 q 671 75 722 121 q 551 6 619 29 q 403 -18 482 -18 m 403 160 q 442 174 425 160 q 472 213 460 188 q 491 272 485 238 q 497 344 497 306 q 490 417 497 383 q 471 476 483 451 q 440 516 458 501 q 396 531 421 531 q 358 517 375 531 q 328 478 340 503 q 308 419 315 453 q 300 349 300 386 q 329 211 300 263 q 403 160 358 160 m 703 1000 q 672 901 696 944 q 610 829 647 858 q 523 785 572 800 q 419 769 474 769 q 321 783 369 769 q 233 826 272 797 q 167 897 194 854 q 132 997 140 940 l 347 997 q 374 928 354 953 q 419 903 393 903 q 464 930 447 903 q 488 999 481 957 l 703 1000 z "},"Ő":{"ha":1028,"x_min":21,"x_max":1007,"o":"m 518 -25 q 318 7 410 -25 q 160 103 226 39 q 58 263 94 167 q 21 490 21 360 q 56 696 21 603 q 156 856 92 789 q 310 960 221 924 q 508 997 400 997 q 730 960 636 997 q 885 856 824 924 q 977 693 947 789 q 1007 481 1007 597 q 975 269 1007 363 q 881 110 943 175 q 727 10 818 44 q 518 -25 636 -25 m 518 193 q 577 214 551 193 q 622 272 603 235 q 650 363 640 310 q 660 481 660 415 q 651 599 660 544 q 623 695 642 654 q 575 760 604 736 q 506 783 546 783 q 448 762 474 783 q 403 701 422 740 q 374 608 385 663 q 364 490 364 554 q 376 367 364 422 q 408 274 388 313 q 456 214 428 235 q 518 193 485 193 m 624 1250 l 414 1053 l 240 1053 l 349 1250 l 624 1250 m 960 1250 l 750 1053 l 576 1053 l 685 1250 l 960 1250 z "},"ő":{"ha":797,"x_min":15,"x_max":846,"o":"m 403 -18 q 258 5 328 -18 q 133 74 188 28 q 47 189 79 119 q 15 350 15 258 q 48 505 15 438 q 134 618 81 572 q 256 688 188 664 q 396 711 325 711 q 549 685 478 711 q 672 612 619 660 q 753 495 724 564 q 782 339 782 426 q 752 187 782 253 q 671 75 722 121 q 551 6 619 29 q 403 -18 482 -18 m 403 160 q 442 174 425 160 q 472 213 460 188 q 491 272 485 238 q 497 344 497 306 q 490 417 497 383 q 471 476 483 451 q 440 516 458 501 q 396 531 421 531 q 358 517 375 531 q 328 478 340 503 q 308 419 315 453 q 300 349 300 386 q 329 211 300 263 q 403 160 358 160 m 510 974 l 300 776 l 126 776 l 235 974 l 510 974 m 846 974 l 636 776 l 463 776 l 571 974 l 846 974 z "},"Œ":{"ha":1358,"x_min":40,"x_max":1324,"o":"m 567 972 l 1324 972 l 1324 664 l 1083 664 l 1083 788 l 861 788 l 861 596 l 1125 596 l 1125 411 l 861 411 l 861 185 l 1083 185 l 1083 314 l 1324 314 l 1324 0 l 643 0 q 560 -4 601 -4 q 347 26 443 -4 q 183 119 251 57 q 78 275 115 182 q 40 493 40 368 q 81 691 42 603 q 190 842 121 779 q 356 938 260 904 q 567 972 451 972 m 574 207 l 574 774 q 560 778 565 778 q 491 756 525 778 q 430 696 457 735 q 385 603 403 657 q 368 486 368 550 q 385 371 368 422 q 431 283 403 319 q 494 226 460 246 q 564 207 529 207 l 574 207 z "},"œ":{"ha":1250,"x_min":15,"x_max":1228,"o":"m 1228 96 q 1064 2 1150 29 q 869 -25 978 -25 q 749 -7 810 -25 q 638 49 689 11 q 529 -1 589 15 q 403 -18 469 -18 q 258 5 328 -18 q 133 74 188 28 q 47 189 79 119 q 15 350 15 258 q 48 505 15 438 q 134 618 81 572 q 256 688 188 664 q 396 711 325 711 q 527 692 467 711 q 636 639 588 672 q 745 694 685 675 q 876 714 806 714 q 1028 689 963 714 q 1139 619 1094 664 q 1206 515 1183 575 q 1228 383 1228 454 q 1224 328 1228 356 q 1211 278 1219 301 l 778 278 q 776 272 776 275 q 775 267 776 269 q 786 234 779 251 q 809 201 793 217 q 851 174 825 185 q 917 164 876 164 q 956 165 935 164 q 1003 174 978 167 q 1056 194 1028 181 q 1111 231 1083 207 l 1228 96 m 403 160 q 442 174 425 160 q 472 213 460 188 q 491 272 485 238 q 497 344 497 306 q 490 417 497 383 q 471 476 483 451 q 440 516 458 501 q 396 531 421 531 q 358 517 375 531 q 328 478 340 503 q 308 419 315 453 q 300 349 300 386 q 329 211 300 263 q 403 160 358 160 m 885 526 q 833 514 853 526 q 801 484 813 501 q 784 447 789 467 q 778 415 779 428 l 988 415 q 983 455 988 435 q 969 491 979 475 q 938 517 958 507 q 885 526 918 526 z "},"Ŕ":{"ha":1024,"x_min":35,"x_max":1010,"o":"m 35 971 l 486 971 q 682 949 607 971 q 799 888 757 926 q 856 797 842 849 q 871 685 871 744 q 856 610 871 644 q 813 549 840 575 q 749 506 786 524 q 669 483 713 489 q 738 460 706 478 q 796 417 771 443 q 836 357 821 390 q 851 286 851 324 q 858 217 851 242 q 885 192 865 192 q 917 236 917 192 l 917 282 l 1010 282 l 1010 206 q 1000 122 1010 163 q 967 51 990 82 q 904 2 943 21 q 807 -17 865 -17 q 603 51 669 -17 q 538 242 538 119 q 533 319 538 289 q 515 367 529 350 q 472 392 500 385 q 399 399 444 399 l 399 183 l 483 183 l 483 0 l 35 0 l 35 183 l 113 183 l 113 789 l 35 789 l 35 971 m 399 790 l 399 554 l 461 554 q 558 583 522 554 q 594 667 594 611 q 562 760 594 729 q 468 790 529 790 l 399 790 m 703 1250 l 493 1053 l 319 1053 l 428 1250 l 703 1250 z "},"ŕ":{"ha":575,"x_min":35,"x_max":560,"o":"m 428 0 l 35 0 l 35 182 l 96 182 l 96 514 l 36 514 l 36 694 l 297 694 l 339 606 q 368 653 353 631 q 407 692 383 675 q 465 719 431 710 q 554 729 500 729 l 554 479 q 409 448 460 479 q 358 325 358 417 l 358 182 l 428 182 l 428 0 m 560 974 l 350 776 l 176 776 l 285 974 l 560 974 z "},"Ŗ":{"ha":1024,"x_min":35,"x_max":1010,"o":"m 35 971 l 486 971 q 682 949 607 971 q 799 888 757 926 q 856 797 842 849 q 871 685 871 744 q 856 610 871 644 q 813 549 840 575 q 749 506 786 524 q 669 483 713 489 q 738 460 706 478 q 796 417 771 443 q 836 357 821 390 q 851 286 851 324 q 858 217 851 242 q 885 192 865 192 q 917 236 917 192 l 917 282 l 1010 282 l 1010 206 q 1000 122 1010 163 q 967 51 990 82 q 904 2 943 21 q 807 -17 865 -17 q 603 51 669 -17 q 538 242 538 119 q 533 319 538 289 q 515 367 529 350 q 472 392 500 385 q 399 399 444 399 l 399 183 l 483 183 l 483 0 l 35 0 l 35 183 l 113 183 l 113 789 l 35 789 l 35 971 m 360 -358 q 399 -308 383 -329 q 425 -268 415 -287 q 439 -227 435 -249 q 443 -174 443 -206 q 439 -81 443 -139 l 658 -85 l 658 -101 q 618 -281 658 -203 q 493 -432 578 -358 l 360 -358 m 399 790 l 399 554 l 461 554 q 558 583 522 554 q 594 667 594 611 q 562 760 594 729 q 468 790 529 790 l 399 790 z "},"ŗ":{"ha":575,"x_min":35,"x_max":554,"o":"m 428 0 l 35 0 l 35 182 l 96 182 l 96 514 l 36 514 l 36 694 l 297 694 l 339 606 q 368 653 353 631 q 407 692 383 675 q 465 719 431 710 q 554 729 500 729 l 554 479 q 409 448 460 479 q 358 325 358 417 l 358 182 l 428 182 l 428 0 m 136 -358 q 176 -308 160 -329 q 201 -268 192 -287 q 215 -227 211 -249 q 219 -174 219 -206 q 215 -81 219 -139 l 435 -85 l 435 -101 q 394 -281 435 -203 q 269 -432 354 -358 l 136 -358 z "},"Ř":{"ha":1024,"x_min":35,"x_max":1010,"o":"m 35 971 l 486 971 q 682 949 607 971 q 799 888 757 926 q 856 797 842 849 q 871 685 871 744 q 856 610 871 644 q 813 549 840 575 q 749 506 786 524 q 669 483 713 489 q 738 460 706 478 q 796 417 771 443 q 836 357 821 390 q 851 286 851 324 q 858 217 851 242 q 885 192 865 192 q 917 236 917 192 l 917 282 l 1010 282 l 1010 206 q 1000 122 1010 163 q 967 51 990 82 q 904 2 943 21 q 807 -17 865 -17 q 603 51 669 -17 q 538 242 538 119 q 533 319 538 289 q 515 367 529 350 q 472 392 500 385 q 399 399 444 399 l 399 183 l 483 183 l 483 0 l 35 0 l 35 183 l 113 183 l 113 789 l 35 789 l 35 971 m 399 790 l 399 554 l 461 554 q 558 583 522 554 q 594 667 594 611 q 562 760 594 729 q 468 790 529 790 l 399 790 m 325 1304 l 518 1207 l 706 1304 l 775 1175 l 510 1010 l 247 1175 l 325 1304 z "},"ř":{"ha":575,"x_min":24,"x_max":554,"o":"m 428 0 l 35 0 l 35 182 l 96 182 l 96 514 l 36 514 l 36 694 l 297 694 l 339 606 q 368 653 353 631 q 407 692 383 675 q 465 719 431 710 q 554 729 500 729 l 554 479 q 409 448 460 479 q 358 325 358 417 l 358 182 l 428 182 l 428 0 m 101 1028 l 294 931 l 482 1028 l 551 899 l 286 733 l 24 899 l 101 1028 z "},"Ś":{"ha":986,"x_min":35,"x_max":951,"o":"m 35 0 l 35 350 l 293 350 q 313 280 293 307 q 359 238 332 253 q 416 217 386 222 q 468 211 446 211 q 507 214 486 211 q 545 224 528 217 q 574 245 563 232 q 586 281 586 258 q 547 324 586 307 q 448 358 507 342 q 319 397 389 375 q 191 456 250 418 q 92 551 132 493 q 53 697 53 608 q 85 831 53 774 q 167 924 118 888 q 274 978 217 960 q 383 996 332 996 q 469 988 426 996 q 551 964 513 981 q 622 920 590 947 q 674 854 653 893 l 688 971 l 926 971 l 926 622 l 675 622 q 661 691 675 661 q 623 742 647 721 q 566 773 599 763 q 497 783 533 783 q 465 778 482 783 q 434 765 449 774 q 410 742 419 756 q 401 710 401 728 q 442 650 401 674 q 544 606 483 626 q 676 560 606 585 q 808 500 747 536 q 910 410 869 464 q 951 274 951 356 q 917 136 951 192 q 830 45 883 81 q 711 -6 776 10 q 583 -21 646 -21 q 486 -10 531 -21 q 406 19 442 1 q 341 60 369 38 q 293 107 313 83 l 278 0 l 35 0 m 763 1250 l 553 1053 l 379 1053 l 488 1250 l 763 1250 z "},"ś":{"ha":706,"x_min":21,"x_max":678,"o":"m 21 0 l 21 250 l 207 250 q 224 204 207 222 q 265 176 242 186 q 314 161 289 165 q 354 157 339 157 q 395 166 375 157 q 415 204 415 175 q 387 235 415 224 q 315 258 358 247 q 221 285 271 269 q 127 327 171 300 q 55 398 83 354 q 26 510 26 442 q 51 601 26 563 q 112 663 75 639 q 191 699 149 688 q 271 711 233 711 q 399 679 342 711 q 478 603 456 647 l 489 694 l 660 694 l 660 444 l 479 444 q 467 485 479 467 q 434 519 454 504 q 389 542 414 533 q 338 550 364 550 q 299 538 315 550 q 283 500 283 526 q 313 463 283 476 q 385 435 342 449 q 481 406 429 422 q 576 364 532 390 q 649 297 619 338 q 678 192 678 256 q 656 104 678 143 q 599 38 635 65 q 517 -3 564 11 q 419 -17 469 -17 q 288 14 344 -17 q 207 85 232 44 l 194 0 l 21 0 m 594 974 l 385 776 l 211 776 l 319 974 l 594 974 z "},"Ŝ":{"ha":986,"x_min":35,"x_max":951,"o":"m 35 0 l 35 350 l 293 350 q 313 280 293 307 q 359 238 332 253 q 416 217 386 222 q 468 211 446 211 q 507 214 486 211 q 545 224 528 217 q 574 245 563 232 q 586 281 586 258 q 547 324 586 307 q 448 358 507 342 q 319 397 389 375 q 191 456 250 418 q 92 551 132 493 q 53 697 53 608 q 85 831 53 774 q 167 924 118 888 q 274 978 217 960 q 383 996 332 996 q 469 988 426 996 q 551 964 513 981 q 622 920 590 947 q 674 854 653 893 l 688 971 l 926 971 l 926 622 l 675 622 q 661 691 675 661 q 623 742 647 721 q 566 773 599 763 q 497 783 533 783 q 465 778 482 783 q 434 765 449 774 q 410 742 419 756 q 401 710 401 728 q 442 650 401 674 q 544 606 483 626 q 676 560 606 585 q 808 500 747 536 q 910 410 869 464 q 951 274 951 356 q 917 136 951 192 q 830 45 883 81 q 711 -6 776 10 q 583 -21 646 -21 q 486 -10 531 -21 q 406 19 442 1 q 341 60 369 38 q 293 107 313 83 l 278 0 l 35 0 m 679 1035 l 486 1132 l 299 1035 l 229 1164 l 494 1329 l 757 1164 l 679 1035 z "},"ŝ":{"ha":706,"x_min":21,"x_max":678,"o":"m 21 0 l 21 250 l 207 250 q 224 204 207 222 q 265 176 242 186 q 314 161 289 165 q 354 157 339 157 q 395 166 375 157 q 415 204 415 175 q 387 235 415 224 q 315 258 358 247 q 221 285 271 269 q 127 327 171 300 q 55 398 83 354 q 26 510 26 442 q 51 601 26 563 q 112 663 75 639 q 191 699 149 688 q 271 711 233 711 q 399 679 342 711 q 478 603 456 647 l 489 694 l 660 694 l 660 444 l 479 444 q 467 485 479 467 q 434 519 454 504 q 389 542 414 533 q 338 550 364 550 q 299 538 315 550 q 283 500 283 526 q 313 463 283 476 q 385 435 342 449 q 481 406 429 422 q 576 364 532 390 q 649 297 619 338 q 678 192 678 256 q 656 104 678 143 q 599 38 635 65 q 517 -3 564 11 q 419 -17 469 -17 q 288 14 344 -17 q 207 85 232 44 l 194 0 l 21 0 m 539 758 l 346 856 l 158 758 l 89 888 l 354 1053 l 617 888 l 539 758 z "},"Ş":{"ha":986,"x_min":35,"x_max":951,"o":"m 638 -136 q 628 -187 638 -161 q 600 -233 619 -212 q 549 -265 581 -253 q 469 -278 517 -278 q 403 -269 438 -278 q 347 -250 369 -261 l 392 -164 q 458 -179 425 -179 q 504 -146 504 -179 q 458 -112 504 -112 q 436 -113 446 -112 q 419 -115 426 -114 l 406 -92 l 436 6 q 352 52 388 25 q 293 107 317 79 l 278 0 l 35 0 l 35 350 l 293 350 q 313 280 293 307 q 359 238 332 253 q 416 217 386 222 q 468 211 446 211 q 507 214 486 211 q 545 224 528 217 q 574 245 563 232 q 586 281 586 258 q 547 324 586 307 q 448 358 507 342 q 319 397 389 375 q 191 456 250 418 q 92 551 132 493 q 53 697 53 608 q 85 831 53 774 q 167 924 118 888 q 274 978 217 960 q 383 996 332 996 q 469 988 426 996 q 551 964 513 981 q 622 920 590 947 q 674 854 653 893 l 688 971 l 926 971 l 926 622 l 675 622 q 661 691 675 661 q 623 742 647 721 q 566 773 599 763 q 497 783 533 783 q 465 778 482 783 q 434 765 449 774 q 410 742 419 756 q 401 710 401 728 q 442 650 401 674 q 544 606 483 626 q 676 560 606 585 q 808 500 747 536 q 910 410 869 464 q 951 274 951 356 q 917 136 951 192 q 830 45 883 81 q 711 -6 776 10 q 583 -21 646 -21 q 560 -20 572 -21 q 538 -18 549 -19 l 531 -35 q 609 -67 581 -39 q 638 -136 638 -96 z "},"ş":{"ha":706,"x_min":21,"x_max":678,"o":"m 497 -136 q 488 -187 497 -161 q 460 -233 479 -212 q 408 -265 440 -253 q 329 -278 376 -278 q 263 -269 297 -278 q 207 -250 229 -261 l 251 -164 q 318 -179 285 -179 q 364 -146 364 -179 q 318 -112 364 -112 q 296 -113 306 -112 q 279 -115 286 -114 l 265 -92 l 297 10 q 207 85 236 39 l 194 0 l 21 0 l 21 250 l 207 250 q 224 204 207 222 q 265 176 242 186 q 314 161 289 165 q 354 157 339 157 q 395 166 375 157 q 415 204 415 175 q 387 235 415 224 q 315 258 358 247 q 221 285 271 269 q 127 327 171 300 q 55 398 83 354 q 26 510 26 442 q 51 601 26 563 q 112 663 75 639 q 191 699 149 688 q 271 711 233 711 q 399 679 342 711 q 478 603 456 647 l 489 694 l 660 694 l 660 444 l 479 444 q 467 485 479 467 q 434 519 454 504 q 389 542 414 533 q 338 550 364 550 q 299 538 315 550 q 283 500 283 526 q 313 463 283 476 q 385 435 342 449 q 481 406 429 422 q 576 364 532 390 q 649 297 619 338 q 678 192 678 256 q 656 104 678 143 q 599 38 635 65 q 517 -3 564 11 q 419 -17 469 -17 q 399 -15 406 -17 l 390 -35 q 469 -67 440 -39 q 497 -136 497 -96 z "},"Š":{"ha":986,"x_min":35,"x_max":951,"o":"m 324 1306 l 517 1208 l 704 1306 l 774 1176 l 508 1011 l 246 1176 l 324 1306 m 35 0 l 35 350 l 293 350 q 313 280 293 307 q 359 238 332 253 q 416 217 386 222 q 468 211 446 211 q 507 214 486 211 q 545 224 528 217 q 574 245 563 232 q 586 281 586 258 q 547 324 586 307 q 448 358 507 342 q 319 397 389 375 q 191 456 250 418 q 92 551 132 493 q 53 697 53 608 q 85 831 53 774 q 167 924 118 888 q 274 978 217 960 q 383 996 332 996 q 469 988 426 996 q 551 964 513 981 q 622 920 590 947 q 674 854 653 893 l 688 971 l 926 971 l 926 622 l 675 622 q 661 691 675 661 q 623 742 647 721 q 566 773 599 763 q 497 783 533 783 q 465 778 482 783 q 434 765 449 774 q 410 742 419 756 q 401 710 401 728 q 442 650 401 674 q 544 606 483 626 q 676 560 606 585 q 808 500 747 536 q 910 410 869 464 q 951 274 951 356 q 917 136 951 192 q 830 45 883 81 q 711 -6 776 10 q 583 -21 646 -21 q 486 -10 531 -21 q 406 19 442 1 q 341 60 369 38 q 293 107 313 83 l 278 0 l 35 0 z "},"š":{"ha":706,"x_min":21,"x_max":678,"o":"m 156 1031 l 349 933 l 536 1031 l 606 901 l 340 736 l 78 901 l 156 1031 m 21 0 l 21 250 l 207 250 q 224 204 207 222 q 265 176 242 186 q 314 161 289 165 q 354 157 339 157 q 395 166 375 157 q 415 204 415 175 q 387 235 415 224 q 315 258 358 247 q 221 285 271 269 q 127 327 171 300 q 55 398 83 354 q 26 510 26 442 q 51 601 26 563 q 112 663 75 639 q 191 699 149 688 q 271 711 233 711 q 399 679 342 711 q 478 603 456 647 l 489 694 l 660 694 l 660 444 l 479 444 q 467 485 479 467 q 434 519 454 504 q 389 542 414 533 q 338 550 364 550 q 299 538 315 550 q 283 500 283 526 q 313 463 283 476 q 385 435 342 449 q 481 406 429 422 q 576 364 532 390 q 649 297 619 338 q 678 192 678 256 q 656 104 678 143 q 599 38 635 65 q 517 -3 564 11 q 419 -17 469 -17 q 288 14 344 -17 q 207 85 232 44 l 194 0 l 21 0 z "},"Ţ":{"ha":974,"x_min":21,"x_max":953,"o":"m 953 971 l 953 610 l 749 610 l 749 788 l 632 788 l 632 185 l 747 185 l 747 0 l 231 0 l 231 185 l 344 185 l 344 788 l 225 788 l 225 610 l 21 610 l 21 971 l 953 971 m 335 -358 q 374 -308 358 -329 q 400 -268 390 -287 q 414 -227 410 -249 q 418 -174 418 -206 q 414 -81 418 -139 l 633 -85 l 633 -101 q 593 -281 633 -203 q 468 -432 553 -358 l 335 -358 z "},"ţ":{"ha":504,"x_min":21,"x_max":483,"o":"m 21 694 l 96 694 l 96 822 l 351 904 l 351 694 l 483 694 l 483 514 l 351 514 l 351 267 q 351 247 351 257 q 350 226 350 238 q 358 177 350 199 q 396 156 365 156 q 437 163 410 156 q 483 179 464 171 l 483 1 q 444 -10 468 -6 q 396 -18 421 -15 q 349 -23 371 -21 q 315 -25 328 -25 q 194 -4 238 -25 q 129 54 150 17 q 103 146 108 92 q 96 267 97 200 l 96 514 l 21 514 l 21 694 m 100 -358 q 140 -308 124 -329 q 165 -268 156 -287 q 179 -227 175 -249 q 183 -174 183 -206 q 179 -81 183 -139 l 399 -85 l 399 -101 q 358 -281 399 -203 q 233 -432 318 -358 l 100 -358 z "},"Ť":{"ha":974,"x_min":21,"x_max":953,"o":"m 953 971 l 953 610 l 749 610 l 749 788 l 632 788 l 632 185 l 747 185 l 747 0 l 231 0 l 231 185 l 344 185 l 344 788 l 225 788 l 225 610 l 21 610 l 21 971 l 953 971 m 300 1304 l 493 1207 l 681 1304 l 750 1175 l 485 1010 l 222 1175 l 300 1304 z "},"ť":{"ha":678,"x_min":21,"x_max":642,"o":"m 21 694 l 96 694 l 96 822 l 351 904 l 351 694 l 483 694 l 483 514 l 351 514 l 351 267 q 351 247 351 257 q 350 226 350 238 q 358 177 350 199 q 396 156 365 156 q 437 163 410 156 q 483 179 464 171 l 483 1 q 444 -10 468 -6 q 396 -18 421 -15 q 349 -23 371 -21 q 315 -25 328 -25 q 194 -4 238 -25 q 129 54 150 17 q 103 146 108 92 q 96 267 97 200 l 96 514 l 21 514 l 21 694 m 385 760 q 451 866 428 811 q 474 1000 474 921 q 474 1022 474 1011 q 472 1044 474 1033 l 642 1003 l 642 992 q 601 835 642 908 q 492 704 561 763 l 385 760 z "},"Ŧ":{"ha":974,"x_min":21,"x_max":953,"o":"m 99 496 l 344 496 l 344 788 l 225 788 l 225 610 l 21 610 l 21 971 l 953 971 l 953 610 l 749 610 l 749 788 l 632 788 l 632 496 l 874 496 l 874 311 l 632 311 l 632 185 l 747 185 l 747 0 l 231 0 l 231 185 l 344 185 l 344 311 l 99 311 l 99 496 z "},"ŧ":{"ha":504,"x_min":-135,"x_max":640,"o":"m -135 969 l 640 969 l 640 785 l 351 785 l 351 694 l 483 694 l 483 514 l 351 514 l 351 267 q 351 247 351 257 q 350 226 350 238 q 358 177 350 199 q 396 156 365 156 q 437 163 410 156 q 483 179 464 171 l 483 1 q 444 -10 468 -6 q 396 -18 421 -15 q 349 -23 371 -21 q 315 -25 328 -25 q 194 -4 238 -25 q 129 54 150 17 q 103 146 108 92 q 96 267 97 200 l 96 514 l 21 514 l 21 694 l 96 694 l 96 785 l -135 785 l -135 969 z "},"Ũ":{"ha":1024,"x_min":21,"x_max":1003,"o":"m 21 971 l 463 971 l 463 792 l 388 792 l 388 492 q 397 356 388 408 q 424 273 406 303 q 467 232 442 243 q 526 221 493 221 q 584 230 558 221 q 628 267 610 239 q 657 349 647 296 q 667 493 667 403 l 667 788 l 592 788 l 592 971 l 1003 971 l 1003 792 l 928 792 l 928 454 q 826 92 928 207 q 529 -24 725 -24 q 208 97 318 -17 q 99 447 99 210 l 99 790 l 21 790 l 21 971 m 769 1118 q 699 1061 739 1081 q 599 1042 658 1042 q 545 1050 567 1042 q 504 1067 524 1058 q 464 1085 485 1076 q 413 1093 443 1093 q 315 1051 357 1093 l 254 1190 q 325 1251 286 1231 q 417 1272 364 1272 q 472 1265 450 1272 q 515 1248 494 1257 q 556 1231 535 1239 q 606 1224 576 1224 q 665 1236 636 1224 q 707 1264 693 1249 l 769 1118 z "},"ũ":{"ha":876,"x_min":21,"x_max":856,"o":"m 21 694 l 357 694 l 357 360 q 373 227 357 269 q 432 185 389 185 q 494 214 468 185 q 519 290 519 243 l 519 511 l 428 511 l 428 694 l 788 694 l 788 185 l 856 185 l 856 0 l 593 0 l 556 88 q 528 56 544 75 q 490 21 513 38 q 435 -8 467 4 q 358 -19 403 -19 q 226 1 279 -19 q 140 64 172 22 q 93 169 107 106 q 79 319 79 233 l 79 511 l 21 511 l 21 694 m 696 842 q 625 785 665 804 q 525 765 585 765 q 472 774 493 765 q 431 791 450 782 q 390 808 411 800 q 339 817 369 817 q 242 775 283 817 l 181 914 q 251 975 213 954 q 343 996 290 996 q 399 988 376 996 q 441 972 421 981 q 482 955 461 963 q 532 947 503 947 q 591 960 563 947 q 633 988 619 972 l 696 842 z "},"Ū":{"ha":1024,"x_min":21,"x_max":1003,"o":"m 21 971 l 463 971 l 463 792 l 388 792 l 388 492 q 397 356 388 408 q 424 273 406 303 q 467 232 442 243 q 526 221 493 221 q 584 230 558 221 q 628 267 610 239 q 657 349 647 296 q 667 493 667 403 l 667 788 l 592 788 l 592 971 l 1003 971 l 1003 792 l 928 792 l 928 454 q 826 92 928 207 q 529 -24 725 -24 q 208 97 318 -17 q 99 447 99 210 l 99 790 l 21 790 l 21 971 m 124 1246 l 899 1246 l 899 1061 l 124 1061 l 124 1246 z "},"ū":{"ha":876,"x_min":21,"x_max":856,"o":"m 21 694 l 357 694 l 357 360 q 373 227 357 269 q 432 185 389 185 q 494 214 468 185 q 519 290 519 243 l 519 511 l 428 511 l 428 694 l 788 694 l 788 185 l 856 185 l 856 0 l 593 0 l 556 88 q 528 56 544 75 q 490 21 513 38 q 435 -8 467 4 q 358 -19 403 -19 q 226 1 279 -19 q 140 64 172 22 q 93 169 107 106 q 79 319 79 233 l 79 511 l 21 511 l 21 694 m 50 969 l 825 969 l 825 785 l 50 785 l 50 969 z "},"Ŭ":{"ha":1024,"x_min":21,"x_max":1003,"o":"m 21 971 l 463 971 l 463 792 l 388 792 l 388 492 q 397 356 388 408 q 424 273 406 303 q 467 232 442 243 q 526 221 493 221 q 584 230 558 221 q 628 267 610 239 q 657 349 647 296 q 667 493 667 403 l 667 788 l 592 788 l 592 971 l 1003 971 l 1003 792 l 928 792 l 928 454 q 826 92 928 207 q 529 -24 725 -24 q 208 97 318 -17 q 99 447 99 210 l 99 790 l 21 790 l 21 971 m 797 1308 q 766 1210 790 1253 q 704 1138 742 1167 q 617 1093 667 1108 q 514 1078 568 1078 q 415 1092 464 1078 q 328 1134 367 1106 q 262 1206 289 1163 q 226 1306 235 1249 l 442 1306 q 468 1236 449 1261 q 514 1211 488 1211 q 558 1238 542 1211 q 582 1307 575 1265 l 797 1308 z "},"ŭ":{"ha":876,"x_min":21,"x_max":856,"o":"m 21 694 l 357 694 l 357 360 q 373 227 357 269 q 432 185 389 185 q 494 214 468 185 q 519 290 519 243 l 519 511 l 428 511 l 428 694 l 788 694 l 788 185 l 856 185 l 856 0 l 593 0 l 556 88 q 528 56 544 75 q 490 21 513 38 q 435 -8 467 4 q 358 -19 403 -19 q 226 1 279 -19 q 140 64 172 22 q 93 169 107 106 q 79 319 79 233 l 79 511 l 21 511 l 21 694 m 724 1032 q 692 933 717 976 q 631 861 668 890 q 544 817 593 832 q 440 801 494 801 q 342 815 390 801 q 254 858 293 829 q 188 929 215 886 q 153 1029 161 972 l 368 1029 q 394 960 375 985 q 440 935 414 935 q 485 962 468 935 q 508 1031 501 989 l 724 1032 z "},"Ů":{"ha":1024,"x_min":21,"x_max":1003,"o":"m 21 971 l 463 971 l 463 792 l 388 792 l 388 492 q 397 356 388 408 q 424 273 406 303 q 467 232 442 243 q 526 221 493 221 q 584 230 558 221 q 628 267 610 239 q 657 349 647 296 q 667 493 667 403 l 667 788 l 592 788 l 592 971 l 1003 971 l 1003 792 l 928 792 l 928 454 q 826 92 928 207 q 529 -24 725 -24 q 208 97 318 -17 q 99 447 99 210 l 99 790 l 21 790 l 21 971 m 569 1178 q 553 1219 569 1203 q 515 1236 536 1236 q 471 1219 488 1236 q 454 1178 454 1203 q 471 1136 454 1153 q 511 1119 488 1119 q 553 1136 538 1119 q 569 1178 569 1153 m 674 1178 q 660 1121 674 1147 q 625 1074 647 1094 q 574 1042 603 1054 q 514 1031 544 1031 q 449 1042 479 1031 q 397 1074 419 1054 q 363 1121 375 1094 q 350 1178 350 1147 q 363 1235 350 1208 q 399 1281 376 1261 q 451 1313 422 1301 q 514 1325 481 1325 q 576 1313 547 1325 q 626 1281 604 1301 q 661 1235 649 1261 q 674 1178 674 1208 z "},"ů":{"ha":876,"x_min":21,"x_max":856,"o":"m 21 694 l 357 694 l 357 360 q 373 227 357 269 q 432 185 389 185 q 494 214 468 185 q 519 290 519 243 l 519 511 l 428 511 l 428 694 l 788 694 l 788 185 l 856 185 l 856 0 l 593 0 l 556 88 q 528 56 544 75 q 490 21 513 38 q 435 -8 467 4 q 358 -19 403 -19 q 226 1 279 -19 q 140 64 172 22 q 93 169 107 106 q 79 319 79 233 l 79 511 l 21 511 l 21 694 m 449 901 q 432 943 449 926 q 394 960 415 960 q 350 943 367 960 q 333 901 333 926 q 350 860 333 876 q 390 843 367 843 q 433 860 417 843 q 449 901 449 876 m 553 901 q 540 844 553 871 q 504 798 526 818 q 453 766 482 778 q 393 754 424 754 q 328 766 358 754 q 276 798 299 778 q 242 844 254 818 q 229 901 229 871 q 242 958 229 932 q 278 1005 256 985 q 331 1037 301 1025 q 393 1049 360 1049 q 455 1037 426 1049 q 506 1005 483 1025 q 540 958 528 985 q 553 901 553 932 z "},"Ű":{"ha":1024,"x_min":21,"x_max":1003,"o":"m 21 971 l 463 971 l 463 792 l 388 792 l 388 492 q 397 356 388 408 q 424 273 406 303 q 467 232 442 243 q 526 221 493 221 q 584 230 558 221 q 628 267 610 239 q 657 349 647 296 q 667 493 667 403 l 667 788 l 592 788 l 592 971 l 1003 971 l 1003 792 l 928 792 l 928 454 q 826 92 928 207 q 529 -24 725 -24 q 208 97 318 -17 q 99 447 99 210 l 99 790 l 21 790 l 21 971 m 614 1250 l 404 1053 l 231 1053 l 339 1250 l 614 1250 m 950 1250 l 740 1053 l 567 1053 l 675 1250 l 950 1250 z "},"ű":{"ha":876,"x_min":21,"x_max":856,"o":"m 21 694 l 357 694 l 357 360 q 373 227 357 269 q 432 185 389 185 q 494 214 468 185 q 519 290 519 243 l 519 511 l 428 511 l 428 694 l 788 694 l 788 185 l 856 185 l 856 0 l 593 0 l 556 88 q 528 56 544 75 q 490 21 513 38 q 435 -8 467 4 q 358 -19 403 -19 q 226 1 279 -19 q 140 64 172 22 q 93 169 107 106 q 79 319 79 233 l 79 511 l 21 511 l 21 694 m 461 974 l 251 776 l 78 776 l 186 974 l 461 974 m 797 974 l 588 776 l 414 776 l 522 974 l 797 974 z "},"Ų":{"ha":1024,"x_min":21,"x_max":1003,"o":"m 21 971 l 463 971 l 463 792 l 388 792 l 388 492 q 397 356 388 408 q 424 273 406 303 q 467 232 442 243 q 526 221 493 221 q 584 230 558 221 q 628 267 610 239 q 657 349 647 296 q 667 493 667 403 l 667 788 l 592 788 l 592 971 l 1003 971 l 1003 792 l 928 792 l 928 454 q 858 135 928 247 q 651 -10 788 22 l 643 -15 q 602 -58 615 -31 q 589 -110 589 -85 q 613 -158 589 -139 q 661 -178 636 -178 q 738 -165 692 -178 q 828 -136 785 -151 l 828 -335 q 749 -359 796 -349 q 636 -369 701 -369 q 546 -360 589 -369 q 469 -326 503 -351 q 417 -258 436 -301 q 397 -143 397 -214 q 408 -66 397 -99 q 433 -14 418 -33 q 183 126 268 14 q 99 447 99 238 l 99 790 l 21 790 l 21 971 z "},"ų":{"ha":876,"x_min":21,"x_max":951,"o":"m 21 694 l 357 694 l 357 360 q 373 227 357 269 q 432 185 389 185 q 494 214 468 185 q 519 290 519 243 l 519 511 l 428 511 l 428 694 l 788 694 l 788 185 l 856 185 l 856 0 l 793 0 l 767 -15 q 726 -58 739 -31 q 713 -110 713 -85 q 736 -158 713 -139 q 785 -178 760 -178 q 862 -165 815 -178 q 951 -136 908 -151 l 951 -335 q 872 -359 919 -349 q 760 -369 825 -369 q 669 -360 713 -369 q 593 -326 626 -351 q 540 -258 560 -301 q 521 -143 521 -214 q 544 -35 521 -76 q 585 18 568 6 l 556 88 q 528 56 544 75 q 490 21 513 38 q 435 -8 467 4 q 358 -19 403 -19 q 226 1 279 -19 q 140 64 172 22 q 93 169 107 106 q 79 319 79 233 l 79 511 l 21 511 l 21 694 z "},"Ŵ":{"ha":1410,"x_min":-14,"x_max":1424,"o":"m 451 314 q 460 365 453 328 q 476 451 467 403 q 497 554 486 500 q 519 658 508 608 l 589 971 l 878 971 l 965 588 q 980 517 974 554 q 991 443 986 479 q 1000 374 996 407 q 1007 314 1004 340 l 1014 314 q 1020 374 1015 338 q 1031 448 1025 410 q 1044 522 1038 486 q 1056 579 1050 557 l 1103 790 l 1026 790 l 1026 971 l 1424 971 l 1424 790 l 1347 790 l 1140 0 l 811 0 l 728 331 q 718 372 724 349 q 708 418 713 394 q 700 464 704 442 q 693 503 696 486 l 688 503 q 681 465 685 488 q 673 417 678 442 q 663 371 668 393 q 654 333 658 349 l 569 0 l 247 0 l 64 790 l -14 790 l -14 971 l 444 971 l 444 790 l 364 790 l 400 588 q 413 522 406 563 q 426 441 419 482 q 437 365 432 400 q 444 314 442 329 l 451 314 m 890 1035 l 697 1132 l 510 1035 l 440 1164 l 706 1329 l 968 1164 l 890 1035 z "},"ŵ":{"ha":1211,"x_min":0,"x_max":1211,"o":"m 394 213 q 399 268 396 233 q 409 345 403 303 q 426 437 415 388 q 451 539 436 486 l 496 694 l 753 694 l 806 514 q 828 428 818 474 q 846 340 838 382 q 859 265 854 299 q 865 213 864 231 l 868 213 q 873 255 869 229 q 881 311 876 281 q 891 373 885 342 q 906 432 897 404 l 929 514 l 872 514 l 872 694 l 1211 694 l 1211 514 l 1154 514 l 992 0 l 699 0 l 603 314 l 503 0 l 217 0 l 60 514 l 0 514 l 0 694 l 374 694 l 374 514 l 326 514 l 357 413 q 370 359 364 388 q 381 303 376 331 q 388 251 385 275 q 392 213 390 228 l 394 213 m 792 758 l 599 856 l 411 758 l 342 888 l 607 1053 l 869 888 l 792 758 z "},"Ŷ":{"ha":929,"x_min":-14,"x_max":943,"o":"m 518 533 q 526 558 519 543 q 540 590 532 574 q 556 624 547 607 q 569 653 564 640 l 646 793 l 569 793 l 569 971 l 943 971 l 943 793 l 868 793 l 611 342 l 611 181 l 689 181 l 689 0 l 244 0 l 244 181 l 324 181 l 324 344 l 54 793 l -14 793 l -14 971 l 461 971 l 461 793 l 389 793 l 469 646 q 478 621 472 636 q 492 589 485 606 q 504 557 499 572 q 513 533 510 542 l 518 533 m 650 1035 l 457 1132 l 269 1035 l 200 1164 l 465 1329 l 728 1164 l 650 1035 z "},"ŷ":{"ha":806,"x_min":-12,"x_max":819,"o":"m 531 518 l 467 518 l 467 694 l 819 694 l 819 522 l 753 522 l 489 -119 q 453 -187 474 -153 q 400 -251 433 -222 q 316 -297 367 -279 q 190 -315 265 -315 q 95 -293 136 -312 q 22 -246 54 -274 l 126 -82 q 170 -115 146 -100 q 218 -131 194 -131 q 266 -107 246 -131 q 296 -56 286 -83 l 315 3 l 44 517 l -12 517 l -12 694 l 415 694 l 415 518 l 350 518 l 440 301 l 531 518 m 589 758 l 396 856 l 208 758 l 139 888 l 404 1053 l 667 888 l 589 758 z "},"Ÿ":{"ha":929,"x_min":-14,"x_max":943,"o":"m 518 533 q 526 558 519 543 q 540 590 532 574 q 556 624 547 607 q 569 653 564 640 l 646 793 l 569 793 l 569 971 l 943 971 l 943 793 l 868 793 l 611 342 l 611 181 l 689 181 l 689 0 l 244 0 l 244 181 l 324 181 l 324 344 l 54 793 l -14 793 l -14 971 l 461 971 l 461 793 l 389 793 l 469 646 q 478 621 472 636 q 492 589 485 606 q 504 557 499 572 q 513 533 510 542 l 518 533 m 504 1174 q 514 1222 504 1197 q 542 1268 524 1247 q 590 1302 561 1289 q 654 1315 618 1315 q 719 1302 690 1315 q 767 1268 747 1289 q 797 1222 786 1247 q 807 1174 807 1197 q 768 1074 807 1115 q 654 1033 729 1033 q 594 1046 621 1033 q 547 1078 567 1058 q 515 1124 526 1099 q 504 1174 504 1149 m 122 1174 q 132 1222 122 1197 q 160 1268 142 1247 q 208 1302 179 1289 q 272 1315 236 1315 q 337 1302 308 1315 q 385 1268 365 1289 q 415 1222 404 1247 q 425 1174 425 1197 q 386 1074 425 1115 q 272 1033 347 1033 q 212 1046 239 1033 q 165 1078 185 1058 q 133 1124 144 1099 q 122 1174 122 1149 z "},"Ź":{"ha":992,"x_min":35,"x_max":954,"o":"m 43 606 l 43 971 l 954 971 l 954 786 l 449 183 l 706 183 l 706 361 l 953 361 l 953 0 l 35 0 l 35 181 l 540 788 l 278 788 l 278 606 l 43 606 m 688 1250 l 478 1053 l 304 1053 l 413 1250 l 688 1250 z "},"ź":{"ha":768,"x_min":35,"x_max":733,"o":"m 35 417 l 35 694 l 722 694 l 722 515 l 392 182 l 538 182 l 538 276 l 733 276 l 733 0 l 35 0 l 35 182 l 369 515 l 215 515 l 215 417 l 35 417 m 575 974 l 365 776 l 192 776 l 300 974 l 575 974 z "},"Ż":{"ha":992,"x_min":35,"x_max":954,"o":"m 43 606 l 43 971 l 954 971 l 954 786 l 449 183 l 706 183 l 706 361 l 953 361 l 953 0 l 35 0 l 35 181 l 540 788 l 278 788 l 278 606 l 43 606 m 344 1174 q 354 1222 344 1197 q 383 1268 364 1247 q 430 1302 401 1289 q 494 1315 458 1315 q 559 1302 531 1315 q 607 1268 588 1289 q 637 1222 626 1247 q 647 1174 647 1197 q 608 1074 647 1115 q 494 1033 569 1033 q 434 1046 461 1033 q 387 1078 407 1058 q 356 1124 367 1099 q 344 1174 344 1149 z "},"ż":{"ha":768,"x_min":35,"x_max":733,"o":"m 35 417 l 35 694 l 722 694 l 722 515 l 392 182 l 538 182 l 538 276 l 733 276 l 733 0 l 35 0 l 35 182 l 369 515 l 215 515 l 215 417 l 35 417 m 232 897 q 242 946 232 921 q 270 992 251 971 q 317 1026 289 1013 q 382 1039 346 1039 q 447 1026 418 1039 q 494 992 475 1013 q 524 946 514 971 q 535 897 535 921 q 496 798 535 839 q 382 757 457 757 q 322 769 349 757 q 274 802 294 782 q 243 847 254 822 q 232 897 232 872 z "},"Ž":{"ha":992,"x_min":35,"x_max":954,"o":"m 324 1306 l 517 1208 l 704 1306 l 774 1176 l 508 1011 l 246 1176 l 324 1306 m 43 606 l 43 971 l 954 971 l 954 786 l 449 183 l 706 183 l 706 361 l 953 361 l 953 0 l 35 0 l 35 181 l 540 788 l 278 788 l 278 606 l 43 606 z "},"ž":{"ha":768,"x_min":35,"x_max":733,"o":"m 199 1028 l 392 931 l 579 1028 l 649 899 l 383 733 l 121 899 l 199 1028 m 35 417 l 35 694 l 722 694 l 722 515 l 392 182 l 538 182 l 538 276 l 733 276 l 733 0 l 35 0 l 35 182 l 369 515 l 215 515 l 215 417 l 35 417 z "},"ſ":{"ha":429,"x_min":35,"x_max":571,"o":"m 488 872 q 458 882 476 878 q 411 886 439 886 q 367 813 367 886 l 367 -218 l 92 -218 l 92 514 l 35 514 l 35 694 l 92 694 l 92 813 q 99 885 92 842 q 135 969 107 929 q 218 1038 164 1010 q 367 1067 272 1067 q 424 1064 393 1067 q 482 1056 454 1061 q 533 1045 510 1051 q 571 1032 557 1039 l 488 872 z "},"ƀ":{"ha":911,"x_min":43,"x_max":881,"o":"m 575 772 l 379 772 l 379 640 q 410 666 390 654 q 456 687 431 678 q 508 701 481 696 q 561 706 536 706 q 701 675 642 706 q 801 594 761 644 q 860 477 840 543 q 881 342 881 411 q 856 195 879 261 q 792 83 833 129 q 692 10 750 36 q 560 -15 633 -15 q 492 -10 519 -15 q 443 3 464 -6 q 406 24 422 13 q 376 47 390 35 l 356 0 l 43 0 l 43 181 l 101 181 l 101 772 l 43 772 l 43 850 l 101 850 l 101 907 l 43 907 l 43 1042 l 379 1042 l 379 850 l 575 850 l 575 772 m 575 339 q 568 401 575 369 q 548 456 561 432 q 516 494 535 479 q 475 510 497 510 q 406 467 436 510 q 376 349 376 424 q 383 276 376 310 q 403 218 390 243 q 435 179 417 193 q 476 165 454 165 q 548 213 521 165 q 575 339 575 260 z "},"Ɓ":{"ha":1204,"x_min":31,"x_max":1190,"o":"m 96 583 q 54 638 78 597 q 31 746 31 678 q 50 860 31 817 q 103 929 69 904 q 179 963 136 954 q 269 972 222 972 q 291 972 281 972 q 313 971 301 971 l 803 971 q 1060 909 976 971 q 1143 733 1143 847 q 1136 656 1143 689 q 1114 598 1129 624 q 1072 553 1099 572 q 1007 518 1046 533 q 1078 488 1044 507 q 1136 440 1111 469 q 1176 372 1161 411 q 1190 282 1190 332 q 1102 67 1190 135 q 813 0 1014 0 l 285 0 l 285 181 l 365 181 l 365 769 q 294 781 321 781 q 246 761 269 781 q 222 713 222 742 q 235 660 222 688 q 276 618 249 633 l 329 588 q 332 586 331 586 l 96 583 m 764 181 q 842 212 808 181 q 876 300 876 243 q 847 388 876 353 q 760 422 818 422 l 653 422 l 653 181 l 764 181 m 653 788 l 653 579 l 738 579 q 813 608 793 579 q 832 686 832 636 q 806 761 832 735 q 740 788 781 788 l 653 788 z "},"Ƃ":{"ha":889,"x_min":35,"x_max":868,"o":"m 35 182 l 113 182 l 113 788 l 35 788 l 35 971 l 850 971 l 850 664 l 610 664 l 610 788 l 397 788 l 397 572 l 503 572 q 644 555 578 572 q 760 503 710 538 q 839 417 810 469 q 868 297 868 365 q 853 184 868 238 q 797 90 839 131 q 681 24 756 49 q 485 0 606 0 l 35 0 l 35 182 m 467 181 q 562 213 528 181 q 596 307 596 244 q 558 392 596 363 q 460 422 521 422 l 397 422 l 397 181 l 467 181 z "},"ƃ":{"ha":911,"x_min":43,"x_max":881,"o":"m 781 861 l 379 861 l 379 640 q 410 666 390 654 q 456 687 431 678 q 508 701 481 696 q 561 706 536 706 q 701 675 642 706 q 801 594 761 644 q 860 477 840 543 q 881 342 881 411 q 856 195 879 261 q 792 83 833 129 q 692 10 750 36 q 560 -15 633 -15 q 492 -10 519 -15 q 443 3 464 -6 q 406 24 422 13 q 376 47 390 35 l 356 0 l 43 0 l 43 181 l 101 181 l 101 860 l 43 860 l 43 1042 l 781 1042 l 781 861 m 575 339 q 568 401 575 369 q 548 456 561 432 q 516 494 535 479 q 475 510 497 510 q 406 467 436 510 q 376 349 376 424 q 383 276 376 310 q 403 218 390 243 q 435 179 417 193 q 476 165 454 165 q 548 213 521 165 q 575 339 575 260 z "},"Ƅ":{"ha":889,"x_min":35,"x_max":868,"o":"m 113 788 l 35 788 l 35 971 l 482 971 l 482 788 l 397 788 l 397 572 l 503 572 q 644 555 578 572 q 760 503 710 538 q 839 417 810 469 q 868 297 868 365 q 854 181 868 238 q 799 78 840 124 q 683 6 757 33 q 488 -21 608 -21 q 302 6 375 -21 q 188 77 229 33 q 129 176 146 121 q 113 288 113 231 l 113 788 m 596 307 q 558 392 596 363 q 460 422 521 422 l 397 422 l 397 301 q 426 214 397 244 q 506 183 456 183 q 573 219 550 183 q 596 307 596 256 z "},"ƅ":{"ha":911,"x_min":43,"x_max":881,"o":"m 101 860 l 43 860 l 43 1042 l 379 1042 l 379 640 q 410 666 390 654 q 456 687 431 678 q 508 701 481 696 q 561 706 536 706 q 701 675 642 706 q 801 594 761 644 q 860 477 840 543 q 881 342 881 411 q 855 195 879 261 q 781 83 831 129 q 656 10 732 36 q 475 -15 581 -15 q 318 16 388 -15 q 201 97 249 47 q 127 205 153 146 q 101 318 101 264 l 101 860 m 575 339 q 568 401 575 369 q 548 456 561 432 q 516 494 535 479 q 475 510 497 510 q 406 467 436 510 q 376 349 376 424 q 383 276 376 310 q 403 218 390 243 q 435 179 417 193 q 476 165 454 165 q 548 213 521 165 q 575 339 575 260 z "},"Ɔ":{"ha":953,"x_min":21,"x_max":932,"o":"m 183 351 q 206 324 188 346 q 254 278 225 303 q 322 235 283 254 q 404 215 360 215 q 492 237 454 215 q 555 294 529 258 q 594 378 581 331 q 607 476 607 425 q 595 583 607 533 q 562 671 583 633 q 510 730 540 708 q 442 751 479 751 q 377 737 404 751 q 333 698 350 722 q 306 642 315 674 q 294 576 296 610 l 46 576 l 46 971 l 264 971 l 296 893 q 315 915 300 899 q 356 947 329 931 q 419 975 382 963 q 510 988 457 988 q 652 953 578 988 q 789 852 726 918 q 892 691 851 786 q 932 476 932 596 q 897 267 932 360 q 797 110 861 175 q 642 12 733 46 q 442 -22 551 -22 q 313 -6 374 -22 q 199 37 251 10 q 101 99 146 64 q 21 174 56 135 l 183 351 z "},"Ƈ":{"ha":953,"x_min":21,"x_max":936,"o":"m 935 772 q 878 781 901 781 q 829 761 853 781 q 806 713 806 742 q 819 660 806 688 q 860 618 832 633 l 913 588 q 915 586 914 586 l 679 583 q 653 610 668 592 q 628 658 639 629 q 610 699 618 682 q 592 728 603 717 q 562 746 581 740 q 511 751 543 751 q 443 730 474 751 q 391 671 413 708 q 358 583 369 633 q 346 476 346 533 q 359 378 346 425 q 398 294 372 331 q 461 237 424 258 q 549 215 499 215 q 631 235 592 215 q 699 278 669 254 q 747 324 728 303 q 769 351 765 346 l 932 174 q 851 99 896 135 q 754 37 807 64 q 640 -6 701 10 q 511 -22 579 -22 q 310 12 400 -22 q 156 110 219 46 q 56 267 92 175 q 21 476 21 360 q 61 691 21 596 q 164 852 101 786 q 301 953 226 918 q 443 988 375 988 q 528 976 492 988 q 590 951 564 965 q 632 921 617 936 q 654 897 647 906 q 740 957 686 942 q 853 972 793 972 q 897 971 876 972 q 936 967 917 969 l 935 772 z "},"ƈ":{"ha":738,"x_min":1,"x_max":724,"o":"m 722 586 q 656 577 682 586 q 615 553 629 568 q 594 519 600 539 q 589 481 589 500 q 593 440 589 460 q 603 410 597 421 l 478 410 q 471 443 474 425 q 468 481 468 461 q 444 517 457 507 q 413 526 431 526 q 359 511 382 526 q 321 471 336 496 q 298 414 306 446 q 290 349 290 382 q 329 231 290 278 q 438 185 368 185 q 529 206 490 185 q 601 264 568 228 l 724 122 q 664 70 699 96 q 585 25 629 44 q 490 -7 542 6 q 383 -19 439 -19 q 238 3 307 -19 q 116 73 168 26 q 33 189 64 119 q 1 351 1 258 q 30 510 1 443 q 106 622 58 578 q 215 686 153 665 q 343 707 276 707 q 449 682 407 707 q 510 635 490 657 q 596 692 543 678 q 707 707 649 707 l 722 707 l 722 586 z "},"Ɖ":{"ha":1000,"x_min":35,"x_max":986,"o":"m 58 581 l 121 581 l 121 788 l 35 788 l 35 971 l 458 971 q 683 934 585 971 q 848 834 781 897 q 951 685 915 771 q 986 499 986 599 q 849 130 986 260 q 453 0 711 0 l 35 0 l 35 185 l 121 185 l 121 396 l 58 396 l 58 581 m 667 499 q 655 606 667 554 q 618 699 643 658 q 553 763 593 739 q 458 788 514 788 l 406 788 l 406 581 l 540 581 l 540 396 l 406 396 l 406 185 l 458 185 q 553 210 514 185 q 618 277 593 235 q 655 376 643 319 q 667 499 667 433 z "},"Ɗ":{"ha":1211,"x_min":19,"x_max":1197,"o":"m 85 583 q 43 638 67 597 q 19 746 19 678 q 39 860 19 817 q 92 929 58 904 q 168 963 125 954 q 258 972 211 972 q 280 972 269 972 q 301 971 290 971 l 669 971 q 894 934 796 971 q 1059 834 992 897 q 1162 685 1126 771 q 1197 499 1197 599 q 1060 130 1197 260 q 664 0 922 0 l 246 0 l 246 185 l 332 185 l 332 775 q 306 779 318 778 q 283 781 293 781 q 235 761 258 781 q 211 713 211 742 q 224 660 211 688 q 265 618 238 633 l 318 588 q 321 586 319 586 l 85 583 m 878 499 q 866 606 878 554 q 829 699 854 658 q 765 763 804 739 q 669 788 725 788 l 617 788 l 617 185 l 669 185 q 765 210 725 185 q 829 277 804 235 q 866 376 854 319 q 878 499 878 433 z "},"Ƌ":{"ha":889,"x_min":35,"x_max":868,"o":"m 506 181 l 506 422 l 443 422 q 344 392 382 422 q 307 307 307 363 q 341 213 307 244 q 436 181 375 181 l 506 181 m 868 0 l 418 0 q 222 24 297 0 q 106 90 147 49 q 49 184 64 131 q 35 297 35 238 q 64 417 35 365 q 143 503 93 469 q 259 555 193 538 q 400 572 325 572 l 506 572 l 506 788 l 293 788 l 293 664 l 53 664 l 53 971 l 868 971 l 868 788 l 790 788 l 790 182 l 868 182 l 868 0 z "},"ƌ":{"ha":911,"x_min":43,"x_max":881,"o":"m 143 1042 l 881 1042 l 881 860 l 822 860 l 822 181 l 881 181 l 881 0 l 568 0 l 547 47 q 517 24 532 35 q 481 3 501 13 q 431 -10 460 -6 q 364 -15 403 -15 q 232 10 290 -15 q 132 83 174 36 q 67 195 90 129 q 43 342 44 261 q 63 477 43 411 q 123 594 83 543 q 222 675 163 644 q 363 706 282 706 q 415 701 388 706 q 468 687 443 696 q 513 666 493 678 q 544 640 533 654 l 544 861 l 143 861 l 143 1042 m 349 339 q 376 213 349 260 q 447 165 403 165 q 488 179 469 165 q 520 218 507 193 q 540 276 533 243 q 547 349 547 310 q 517 467 547 424 q 449 510 488 510 q 407 494 425 510 q 376 456 389 479 q 356 401 363 432 q 349 339 349 369 z "},"ƍ":{"ha":797,"x_min":15,"x_max":782,"o":"m 15 350 q 48 505 15 438 q 134 618 81 572 q 256 688 188 664 q 396 711 325 711 q 549 685 478 711 q 672 612 619 660 q 753 495 724 564 q 782 339 782 426 q 719 127 782 211 q 556 7 656 43 l 733 -172 l 733 -354 l 35 -354 l 35 -78 l 231 -78 l 231 -172 l 376 -172 l 121 85 q 44 197 72 131 q 15 350 15 263 m 403 160 q 442 174 425 160 q 472 213 460 188 q 491 272 485 238 q 497 344 497 306 q 490 417 497 383 q 471 476 483 451 q 440 516 458 501 q 396 531 421 531 q 358 517 375 531 q 328 478 340 503 q 308 419 315 453 q 300 349 300 386 q 329 211 300 263 q 403 160 358 160 z "},"Ǝ":{"ha":907,"x_min":35,"x_max":872,"o":"m 872 788 l 785 788 l 785 185 l 872 185 l 872 0 l 35 0 l 35 314 l 275 314 l 275 185 l 497 185 l 497 411 l 233 411 l 233 596 l 497 596 l 497 788 l 275 788 l 275 664 l 35 664 l 35 971 l 872 971 l 872 788 z "},"Ə":{"ha":1028,"x_min":21,"x_max":1007,"o":"m 681 543 q 661 628 676 589 q 620 697 646 668 q 559 743 594 726 q 479 760 524 760 q 397 740 435 760 q 329 697 358 721 q 281 651 300 672 q 258 624 263 629 l 96 801 q 176 876 131 840 q 274 938 221 911 q 388 981 326 965 q 517 997 449 997 q 722 962 631 997 q 876 860 813 926 q 973 699 939 794 q 1007 485 1007 604 q 972 279 1007 372 q 872 119 936 186 q 717 15 807 51 q 519 -22 628 -22 q 298 15 392 -22 q 142 119 204 51 q 51 282 81 186 q 21 494 21 378 q 21 517 21 506 q 22 539 21 528 l 681 543 m 521 192 q 616 247 574 192 q 674 399 658 303 l 374 399 q 421 249 385 307 q 521 192 457 192 z "},"Ɛ":{"ha":926,"x_min":21,"x_max":896,"o":"m 496 -18 q 324 1 408 -18 q 172 58 239 19 q 63 153 104 96 q 21 288 21 210 q 38 372 21 335 q 80 436 56 408 q 132 483 104 464 q 181 515 160 503 q 142 541 164 525 q 100 578 119 557 q 67 626 81 599 q 53 689 53 654 q 137 909 53 832 q 399 986 221 986 q 540 956 485 986 q 621 893 594 926 l 653 971 l 871 971 l 871 628 l 615 628 q 599 679 610 653 q 572 726 589 706 q 528 761 554 747 q 467 775 503 775 q 402 766 426 775 q 364 742 378 757 q 345 706 350 726 q 340 665 340 686 q 382 594 340 618 q 486 569 424 569 l 611 569 l 611 404 l 482 404 q 379 382 418 404 q 340 303 340 360 q 381 223 340 250 q 494 196 422 196 q 620 222 568 196 q 721 286 672 247 l 896 139 q 828 80 871 108 q 733 30 786 51 q 618 -5 679 8 q 496 -18 557 -18 z "},"Ƒ":{"ha":940,"x_min":-21,"x_max":903,"o":"m 72 971 l 903 971 l 903 664 l 657 664 l 657 789 l 444 789 l 444 546 l 711 546 l 711 361 l 444 361 l 444 103 q 424 -61 444 11 q 356 -183 403 -133 q 235 -258 310 -232 q 53 -283 160 -283 q 15 -279 33 -283 q -19 -268 -4 -275 l -21 -85 q 42 -97 6 -97 q 125 -53 93 -97 q 157 103 157 -8 l 157 788 l 72 788 l 72 971 z "},"ƒ":{"ha":536,"x_min":-57,"x_max":571,"o":"m 92 514 l 35 514 l 35 694 l 92 694 l 92 813 q 99 885 92 842 q 135 969 107 929 q 218 1038 164 1010 q 367 1067 272 1067 q 424 1064 393 1067 q 482 1056 454 1061 q 533 1045 510 1051 q 571 1032 557 1039 l 488 872 q 458 882 476 878 q 411 886 439 886 q 367 813 367 886 l 367 694 l 493 694 l 493 514 l 367 514 l 367 182 l 365 97 q 350 -36 364 32 q 292 -161 336 -104 q 165 -254 249 -218 q -57 -290 82 -290 l -57 -104 q 24 -87 -6 -104 q 69 -45 54 -71 q 88 10 85 -19 q 92 67 92 40 l 92 97 l 92 514 z "},"Ɠ":{"ha":1078,"x_min":21,"x_max":1057,"o":"m 681 88 q 597 18 657 49 q 457 -12 538 -12 q 286 22 365 -12 q 148 119 207 56 q 55 274 89 183 q 21 476 21 364 q 55 678 21 585 q 147 841 89 772 q 282 949 206 910 q 443 988 358 988 q 528 976 492 988 q 590 951 564 965 q 632 921 617 936 q 654 897 647 906 q 740 957 686 942 q 853 972 793 972 q 886 969 864 972 q 932 963 908 967 q 976 954 956 958 q 1007 949 997 950 l 1007 750 q 980 757 999 751 q 940 767 961 763 q 901 776 919 772 q 878 781 883 781 q 829 761 853 781 q 806 713 806 742 q 819 660 806 688 q 860 618 832 633 l 913 588 q 915 586 914 586 l 679 583 q 628 658 653 601 q 613 692 619 676 q 599 717 607 707 q 580 732 592 726 q 547 738 568 738 q 470 716 506 738 q 410 659 435 694 q 371 576 385 624 q 357 476 357 528 q 369 377 357 424 q 406 296 382 331 q 466 241 431 261 q 547 221 501 221 q 636 241 607 221 q 681 289 665 261 l 681 347 l 596 347 l 596 496 l 1057 496 l 1057 347 l 1001 347 l 1001 0 l 724 0 l 681 88 z "},"Ɣ":{"ha":1074,"x_min":-14,"x_max":1088,"o":"m 63 790 l -14 790 l -14 971 l 499 971 l 499 790 l 422 790 l 540 554 q 556 511 549 529 q 569 478 564 493 q 578 451 575 464 q 583 424 582 438 l 590 424 q 595 451 592 438 q 605 481 599 465 q 620 517 611 497 q 640 563 629 536 l 767 790 l 694 790 l 694 971 l 1088 971 l 1088 790 l 1019 790 l 707 183 q 728 137 715 167 q 756 70 742 107 q 779 -6 769 33 q 789 -82 789 -46 q 775 -190 789 -140 q 734 -275 761 -239 q 667 -331 707 -311 q 576 -351 628 -351 q 483 -333 528 -351 q 405 -281 439 -314 q 351 -206 371 -249 q 331 -112 331 -162 q 340 -44 331 -81 q 363 28 349 -7 q 392 95 376 64 q 422 149 408 126 l 63 790 m 525 -146 q 572 -207 525 -207 q 614 -186 607 -207 q 621 -140 621 -165 q 610 -99 621 -121 q 571 -32 600 -78 q 539 -85 553 -60 q 525 -146 525 -111 z "},"ƕ":{"ha":1250,"x_min":35,"x_max":1222,"o":"m 758 381 q 775 226 758 269 q 828 182 792 182 q 878 226 871 182 q 886 360 886 269 l 886 694 l 1222 694 l 1222 511 l 1164 511 l 1164 319 q 1138 169 1164 233 q 1064 64 1111 106 q 951 1 1017 22 q 807 -19 886 -19 q 697 -4 753 -19 q 597 43 642 11 q 525 125 553 75 q 497 244 497 175 l 499 397 q 495 433 497 414 q 487 469 493 453 q 469 497 481 486 q 436 507 457 507 q 408 495 419 507 q 388 465 396 483 q 375 423 379 446 q 371 378 371 400 l 371 182 l 471 182 l 471 0 l 35 0 l 35 182 l 93 182 l 93 861 l 35 861 l 35 1042 l 371 1042 l 371 608 q 390 636 376 618 q 426 673 404 654 q 479 706 449 692 q 547 719 510 719 q 671 697 628 719 q 733 631 714 675 q 756 524 753 588 q 758 381 758 461 z "},"Ɩ":{"ha":576,"x_min":28,"x_max":608,"o":"m 607 -268 q 573 -279 592 -275 q 535 -283 554 -283 q 353 -258 428 -283 q 231 -183 278 -232 q 164 -61 185 -133 q 143 103 143 11 l 143 789 l 28 789 l 28 971 l 550 971 l 550 789 l 431 789 l 431 103 q 462 -53 431 -8 q 546 -97 493 -97 q 608 -85 581 -97 l 607 -268 z "},"Ɨ":{"ha":521,"x_min":29,"x_max":496,"o":"m 35 971 l 496 971 l 496 788 l 410 788 l 410 563 l 493 563 l 493 372 l 410 372 l 410 185 l 496 185 l 496 0 l 35 0 l 35 185 l 122 185 l 122 372 l 29 372 l 29 563 l 122 563 l 122 788 l 35 788 l 35 971 z "},"Ƙ":{"ha":1132,"x_min":35,"x_max":1128,"o":"m 397 544 q 497 563 460 544 q 556 613 533 582 q 591 682 579 643 q 615 762 603 721 q 643 842 626 803 q 690 911 660 881 q 770 960 721 942 q 897 979 819 979 q 1005 960 961 979 q 1075 917 1049 942 q 1114 869 1101 893 q 1128 836 1126 846 l 1026 688 q 1015 718 1021 700 q 997 753 1008 736 q 965 781 985 769 q 914 793 944 793 q 861 771 875 793 q 842 713 847 749 q 831 634 836 678 q 803 546 825 590 l 1017 181 l 1097 181 l 1097 0 l 556 0 l 556 181 l 650 181 l 563 353 q 495 342 531 346 q 417 338 460 338 l 397 338 l 397 181 l 472 181 l 472 0 l 35 0 l 35 181 l 110 181 l 110 792 l 35 792 l 35 971 l 510 971 l 510 792 l 397 792 l 397 544 z "},"ƙ":{"ha":908,"x_min":53,"x_max":879,"o":"m 494 872 q 465 882 483 878 q 418 886 446 886 q 374 813 374 886 l 374 414 l 535 510 l 435 510 l 435 693 l 824 693 l 824 510 l 717 510 l 622 450 l 810 182 l 879 182 l 879 0 l 468 0 l 468 182 l 526 182 l 421 332 l 374 299 l 374 182 l 424 182 l 424 0 l 53 0 l 53 182 l 110 182 l 110 813 q 116 885 110 842 q 148 969 122 929 q 226 1038 174 1010 q 374 1067 279 1067 q 431 1064 400 1067 q 489 1056 461 1061 q 540 1045 517 1051 q 578 1032 564 1039 l 494 872 z "},"ƚ":{"ha":461,"x_min":35,"x_max":442,"o":"m 442 372 l 358 372 l 358 182 l 440 182 l 440 0 l 35 0 l 35 182 l 94 182 l 94 372 l 35 372 l 35 563 l 94 563 l 94 863 l 36 863 l 36 1042 l 358 1042 l 358 563 l 442 563 l 442 372 z "},"ƛ":{"ha":932,"x_min":-8,"x_max":947,"o":"m 718 706 l 624 664 l 871 146 l 947 146 l 947 -26 l 453 -26 l 453 150 l 508 150 l 404 367 l 301 150 l 356 150 l 356 -26 l -8 -26 l -8 151 l 57 151 l 278 515 l 160 465 l 110 581 l 275 651 q 244 683 261 671 q 203 694 226 694 q 148 679 175 694 q 99 646 121 664 l 35 901 q 118 949 71 929 q 228 971 165 968 q 370 953 313 971 q 466 907 428 935 q 528 845 504 879 q 569 778 551 811 l 668 821 l 718 706 z "},"Ɯ":{"ha":1664,"x_min":21,"x_max":1610,"o":"m 1161 971 l 1610 971 l 1610 788 l 1524 788 l 1524 185 l 1610 185 l 1610 0 l 1407 0 l 1303 113 q 1199 9 1258 42 q 1072 -24 1139 -24 q 873 17 954 -19 q 743 125 792 53 q 650 13 707 50 q 497 -24 593 -24 q 317 9 392 -21 q 193 97 242 39 q 122 242 144 154 q 99 447 99 329 l 99 790 l 21 790 l 21 971 l 463 971 l 463 792 l 388 792 l 388 492 q 397 356 388 408 q 424 273 406 303 q 467 232 442 243 q 526 221 493 221 q 584 230 558 221 q 628 267 610 239 q 657 349 647 296 q 667 493 667 403 l 667 788 l 592 788 l 590 790 l 590 971 l 1032 971 l 1032 792 l 957 792 l 957 492 q 966 356 957 408 q 993 273 975 303 q 1037 232 1011 243 q 1096 221 1063 221 q 1153 230 1128 221 q 1198 267 1179 239 q 1226 349 1217 296 q 1236 493 1236 403 l 1236 788 l 1161 788 l 1161 971 z "},"Ɲ":{"ha":1133,"x_min":-111,"x_max":1099,"o":"m -111 -85 q -49 -97 -85 -97 q 7 -87 -22 -97 q 60 -53 36 -76 q 101 9 85 -29 q 117 103 117 47 l 117 792 l 36 792 l 36 971 l 435 971 l 776 461 l 776 792 l 681 792 l 681 971 l 1099 971 l 1099 792 l 1007 792 l 1007 0 l 708 0 l 354 529 l 354 103 q 333 -61 354 11 q 266 -183 313 -133 q 144 -258 219 -232 q -37 -283 69 -283 q -76 -279 -57 -283 q -110 -268 -94 -275 l -111 -85 z "},"ƞ":{"ha":899,"x_min":35,"x_max":878,"o":"m 463 0 l 35 0 l 35 182 l 93 182 l 93 514 l 35 514 l 35 694 l 331 694 l 363 608 q 447 688 399 657 q 561 719 494 719 q 691 692 642 719 q 767 622 740 665 q 803 523 794 578 q 813 414 813 468 l 813 -165 l 878 -165 l 878 -347 l 528 -347 l 528 379 q 527 419 528 397 q 519 461 526 442 q 497 494 513 481 q 450 508 481 508 q 406 497 424 508 q 379 466 389 485 q 366 424 369 447 q 363 379 363 401 l 363 182 l 463 182 l 463 0 z "},"Ɵ":{"ha":1028,"x_min":21,"x_max":1007,"o":"m 518 -25 q 318 7 410 -25 q 160 103 226 39 q 58 263 94 167 q 21 490 21 360 q 56 696 21 603 q 156 856 92 789 q 310 960 221 924 q 508 997 400 997 q 730 960 636 997 q 885 856 824 924 q 977 693 947 789 q 1007 481 1007 597 q 975 269 1007 363 q 881 110 943 175 q 727 10 818 44 q 518 -25 636 -25 m 506 783 q 412 718 449 783 q 365 547 375 653 l 657 547 q 642 642 653 599 q 612 716 631 685 q 567 765 593 747 q 506 783 540 783 m 518 193 q 611 253 575 193 q 657 415 647 313 l 368 415 q 419 252 379 311 q 518 193 460 193 z "},"Ơ":{"ha":1028,"x_min":21,"x_max":1143,"o":"m 518 -25 q 318 7 410 -25 q 160 103 226 39 q 58 263 94 167 q 21 490 21 360 q 56 696 21 603 q 156 856 92 789 q 310 960 221 924 q 508 997 400 997 q 787 933 678 997 q 951 757 896 869 q 980 784 968 764 q 992 822 992 804 q 977 874 992 846 q 943 926 963 903 l 1075 990 q 1143 819 1143 907 q 1131 742 1143 778 q 1098 678 1118 706 q 1051 631 1078 650 q 997 603 1025 611 q 1004 543 1001 574 q 1007 481 1007 513 q 975 269 1007 363 q 881 110 943 175 q 727 10 818 44 q 518 -25 636 -25 m 518 193 q 577 214 551 193 q 622 272 603 235 q 650 363 640 310 q 660 481 660 415 q 651 599 660 544 q 623 695 642 654 q 575 760 604 736 q 506 783 546 783 q 448 762 474 783 q 403 701 422 740 q 374 608 385 663 q 364 490 364 554 q 376 367 364 422 q 408 274 388 313 q 456 214 428 235 q 518 193 485 193 z "},"ơ":{"ha":958,"x_min":15,"x_max":957,"o":"m 403 -18 q 258 5 328 -18 q 133 74 188 28 q 47 189 79 119 q 15 350 15 258 q 48 505 15 438 q 134 618 81 572 q 256 688 188 664 q 396 711 325 711 q 618 651 522 708 q 754 488 714 594 q 792 512 778 490 q 806 556 806 533 q 791 608 806 579 q 757 660 776 636 l 889 724 q 957 553 957 640 q 942 467 957 506 q 902 399 926 428 q 847 352 878 369 q 782 331 815 335 q 750 183 781 247 q 668 73 719 118 q 549 5 617 28 q 403 -18 481 -18 m 403 160 q 442 174 425 160 q 472 213 460 188 q 491 272 485 238 q 497 344 497 306 q 490 417 497 383 q 471 476 483 451 q 440 516 458 501 q 396 531 421 531 q 358 517 375 531 q 328 478 340 503 q 308 419 315 453 q 300 349 300 386 q 329 211 300 263 q 403 160 358 160 z "},"Ƣ":{"ha":1550,"x_min":21,"x_max":1504,"o":"m 518 -25 q 318 7 410 -25 q 160 103 226 39 q 58 263 94 167 q 21 490 21 360 q 56 696 21 603 q 156 856 92 789 q 310 960 221 924 q 508 997 400 997 q 660 981 592 997 q 785 935 729 965 q 881 980 829 963 q 996 997 933 997 q 1182 969 1101 994 q 1317 890 1263 943 q 1399 753 1371 836 q 1426 551 1426 669 l 1426 157 l 1504 157 l 1504 -24 l 1063 -24 l 1063 156 l 1138 156 l 1138 507 q 1107 692 1138 632 q 1010 753 1076 753 q 958 740 983 753 q 1007 481 1007 628 q 975 269 1007 363 q 881 110 943 175 q 727 10 818 44 q 518 -25 636 -25 m 518 193 q 577 214 551 193 q 622 272 603 235 q 650 363 640 310 q 660 481 660 415 q 651 599 660 544 q 623 695 642 654 q 575 760 604 736 q 506 783 546 783 q 448 762 474 783 q 403 701 422 740 q 374 608 385 663 q 364 490 364 554 q 376 367 364 422 q 408 274 388 313 q 456 214 428 235 q 518 193 485 193 z "},"ƣ":{"ha":1178,"x_min":15,"x_max":1196,"o":"m 403 -18 q 258 5 328 -18 q 133 74 188 28 q 47 189 79 119 q 15 350 15 258 q 48 505 15 438 q 134 618 81 572 q 256 688 188 664 q 396 711 325 711 q 606 660 514 711 q 692 693 635 675 q 851 711 750 711 q 999 683 944 711 q 1083 614 1054 654 q 1119 530 1111 574 q 1126 457 1126 486 l 1126 -164 l 1196 -164 l 1196 -346 l 768 -346 l 768 -164 l 851 -164 l 851 457 q 807 531 851 531 q 767 528 783 531 q 740 521 751 525 q 771 437 760 482 q 782 339 782 392 q 752 187 782 253 q 671 75 722 121 q 551 6 619 29 q 403 -18 482 -18 m 403 160 q 442 174 425 160 q 472 213 460 188 q 491 272 485 238 q 497 344 497 306 q 490 417 497 383 q 471 476 483 451 q 440 516 458 501 q 396 531 421 531 q 358 517 375 531 q 328 478 340 503 q 308 419 315 453 q 300 349 300 386 q 329 211 300 263 q 403 160 358 160 z "},"Ƥ":{"ha":1097,"x_min":11,"x_max":1076,"o":"m 76 583 q 35 638 58 597 q 11 746 11 678 q 31 860 11 817 q 83 929 50 904 q 160 963 117 954 q 250 972 203 972 q 272 972 261 972 q 293 971 282 971 l 693 971 q 889 947 814 971 q 1006 881 964 922 q 1062 787 1047 840 q 1076 674 1076 733 q 1047 553 1076 604 q 968 467 1018 501 q 852 416 918 433 q 711 399 786 399 l 606 399 l 606 183 l 690 183 l 690 0 l 243 0 l 243 183 l 321 183 l 321 775 q 296 779 307 778 q 275 781 285 781 q 226 761 250 781 q 203 713 203 742 q 216 660 203 688 q 257 618 229 633 l 310 588 q 313 586 311 586 l 76 583 m 606 790 l 606 549 l 668 549 q 767 578 729 549 q 804 664 804 608 q 770 758 804 726 q 675 790 736 790 l 606 790 z "},"ƥ":{"ha":886,"x_min":35,"x_max":872,"o":"m 842 950 q 753 838 783 896 q 724 694 724 779 q 724 675 724 685 q 725 654 724 665 q 835 523 799 606 q 872 342 872 440 q 848 192 872 258 q 781 81 824 126 q 681 10 739 35 q 556 -15 622 -15 q 480 -8 513 -15 q 426 8 447 -1 q 392 27 404 18 q 375 39 379 36 l 375 -101 l 450 -101 l 450 -283 l 35 -283 l 35 -101 l 93 -101 l 93 510 l 35 510 l 35 694 l 353 694 l 376 646 q 424 676 392 657 q 503 701 457 694 l 503 704 q 556 870 503 792 q 701 1011 610 949 l 842 950 m 574 339 q 567 401 574 369 q 547 456 560 432 q 515 494 533 479 q 474 510 496 510 q 405 467 435 510 q 375 349 375 424 q 382 276 375 310 q 402 218 389 243 q 434 179 415 193 q 475 165 453 165 q 547 213 519 165 q 574 339 574 260 z "}}}
